<?xml version="1.0" encoding="UTF-8" standalone="no"?>
<!-- Created with Inkscape (http://www.inkscape.org/) -->

<svg
   xmlns:dc="http://purl.org/dc/elements/1.1/"
   xmlns:cc="http://creativecommons.org/ns#"
   xmlns:rdf="http://www.w3.org/1999/02/22-rdf-syntax-ns#"
   xmlns:svg="http://www.w3.org/2000/svg"
   xmlns="http://www.w3.org/2000/svg"
   xmlns:sodipodi="http://sodipodi.sourceforge.net/DTD/sodipodi-0.dtd"
   xmlns:inkscape="http://www.inkscape.org/namespaces/inkscape"
   width="235"
   height="165"
   viewBox="0 0 235 165"
   id="svg2"
   version="1.1"
   inkscape:version="0.91 r13725">
  <defs
     id="defs4">
    <clipPath
       id="clipPath4150"
       clipPathUnits="userSpaceOnUse">
      <path
         inkscape:connector-curvature="0"
         id="path4152"
         d="m 0,595.28 841.89,0 L 841.89,0 0,0 0,595.28 Z" />
    </clipPath>
    <clipPath
       id="clipPath5268"
       clipPathUnits="userSpaceOnUse">
      <path
         inkscape:connector-curvature="0"
         id="path5270"
         d="M 0,792 1224,792 1224,0 0,0 0,792 Z" />
    </clipPath>
    <clipPath
       id="clipPath5845"
       clipPathUnits="userSpaceOnUse">
      <path
         inkscape:connector-curvature="0"
         id="path5847"
         d="M 0,0 612,0 612,792 0,792 0,0 Z" />
    </clipPath>
    <clipPath
       id="clipPath5859"
       clipPathUnits="userSpaceOnUse">
      <path
         inkscape:connector-curvature="0"
         id="path5861"
         d="M 0,792 612,792 612,0 0,0 0,792 Z" />
    </clipPath>
    <clipPath
       id="clipPath5931"
       clipPathUnits="userSpaceOnUse">
      <path
         inkscape:connector-curvature="0"
         id="path5933"
         d="M 0,600 800,600 800,0 0,0 0,600 Z" />
    </clipPath>
    <clipPath
       id="clipPath5997"
       clipPathUnits="userSpaceOnUse">
      <path
         inkscape:connector-curvature="0"
         id="path5999"
         d="M 0,600 800,600 800,0 0,0 0,600 Z" />
    </clipPath>
  </defs>
  <sodipodi:namedview
     id="base"
     pagecolor="#ffffff"
     bordercolor="#666666"
     borderopacity="1.0"
     inkscape:pageopacity="0.0"
     inkscape:pageshadow="2"
     inkscape:zoom="0.98994949"
     inkscape:cx="576.93449"
     inkscape:cy="282.6178"
     inkscape:document-units="px"
     inkscape:current-layer="layer1"
     showgrid="false"
     units="px"
     inkscape:window-width="1920"
     inkscape:window-height="1053"
     inkscape:window-x="0"
     inkscape:window-y="0"
     inkscape:window-maximized="1" />
  <metadata
     id="metadata7">
    <rdf:RDF>
      <cc:Work
         rdf:about="">
        <dc:format>image/svg+xml</dc:format>
        <dc:type
           rdf:resource="http://purl.org/dc/dcmitype/StillImage" />
        <dc:title></dc:title>
      </cc:Work>
    </rdf:RDF>
  </metadata>
  <g
     inkscape:label="Capa 1"
     inkscape:groupmode="layer"
     id="layer1"
     transform="translate(0,-887.36216)">
    <g
       id="g6614"
       transform="translate(-520.0611,180.62674)">
      <path
         d="m 521.75548,819.41465 29.8725,51.314 137.9675,-0.0127 c 44.51875,0 63.77125,-23.23625 63.77125,-48.1675 0,-16.50375 -11.72125,-29.8975 -23.64,-35.955 -1.2275,-0.63875 -1.06875,-1.74375 -0.1975,-2.39625 10.44375,-7.72875 17.46125,-17.63125 17.46125,-32.93125 0,-18.10625 -12.9525,-43.52375 -63.58875,-43.52375 l -130.515,0 -29.57125,51.49875 21.71875,0 c 2.41375,0 4.38,1.96625 4.38,4.3825 l 0,51.4175 c 0,2.40875 -1.96625,4.37375 -4.38,4.37375 l -23.27875,0"
         style="fill:#ffffff;fill-opacity:1;fill-rule:nonzero;stroke:none"
         id="path6241"
         inkscape:connector-curvature="0" />
      <path
         d="m 713.61673,787.74965 c -1.5725,-0.3825 -1.31625,-2.29875 -0.16125,-2.735 14.155,-5.36375 22.41375,-14.89875 22.41375,-31.69625 0.1975,-22.535 -19.72125,-38.02375 -52.11125,-38.02375 l -122.74375,0 -21.5275,38.04875 14.82625,0 c 2.91625,0 5.28375,2.365 5.28375,5.28375 l 0,61.40125 c 0,2.925 -2.3675,5.295 -5.28375,5.295 l -14.66,0 21.68875,37.85887 128.25375,-0.0249 c 36.61625,0 51.70375,-24.33025 51.70375,-42.2315 0,-15.74 -11.59625,-29.33 -27.6825,-33.17625 z m -61.18,37.5875 -17.5225,0 c -2.175,0 -3.93875,-1.75625 -3.93875,-3.93125 l 0,-20.62125 21.46125,0 c 10.25875,0 14.0825,5.0525 14.0825,12.0925 0,7.25 -3.82375,12.46 -14.0825,12.46 z m 0,-47.4725 -21.46125,0 0,-20.645 c 0.0238,-2.16875 1.77625,-3.90125 3.93875,-3.90125 l 17.5225,0 c 10.25875,0 14.0825,5.235 14.0825,12.06625 0,7.24375 -3.82375,12.48 -14.0825,12.48"
         style="fill:#f03d20;fill-opacity:1;fill-rule:nonzero;stroke:none"
         id="path6243"
         inkscape:connector-curvature="0" />
      <path
         d="m 666.43048,715.29465 c -4.06625,10.69 -8.36625,23.605 -11.97875,38.0975 -0.6375,-0.0488 -1.315,-0.0738 -2.015,-0.0738 l -17.5225,0 c -2.1625,0 -3.915,1.7325 -3.93875,3.90125 l 0,20.64375 18.415,0 c -1.205,7.40375 -2.215,15.07 -2.85125,22.92125 l -15.56375,0 0,20.62 c 0,2.17625 1.76375,3.93125 3.93875,3.93125 l 10.73875,0 c 0.1725,12.3625 1.2775,25.03137 3.58875,37.8215 l -15.99875,0 c -12.62,-30.47275 -30.00125,-82.04525 -12.72375,-147.864 l 45.91125,0 0,10e-4 z m 43.6825,4.22625 c -26.05,38.62625 -40.1675,87.87625 -33.83875,132.72625 7.76375,-37.75 28.01625,-72.585 59.54625,-97.81 0.025,-0.375 0.0488,-0.74375 0.0488,-1.11875 0.135,-15.53875 -9.28875,-27.72125 -25.75625,-33.7975 z m -107.3375,132.91137 c -22.7575,-42.77512 -28.73625,-91.96762 -20.27,-137.13762 l -21.49125,0 -21.5275,38.04875 14.82625,0 c 2.91625,0 5.28375,2.365 5.28375,5.28375 l 0,47.10875 c 11.045,17.93 27.05,35.1075 43.17875,46.69637"
         style="fill:#100f0d;fill-opacity:1;fill-rule:nonzero;stroke:none"
         id="path6245"
         inkscape:connector-curvature="0" />
    </g>
  </g>
</svg>
