<?xml version="1.0" encoding="UTF-8" standalone="no"?>
<!-- Created with Inkscape (http://www.inkscape.org/) -->

<svg
   xmlns:dc="http://purl.org/dc/elements/1.1/"
   xmlns:cc="http://creativecommons.org/ns#"
   xmlns:rdf="http://www.w3.org/1999/02/22-rdf-syntax-ns#"
   xmlns:svg="http://www.w3.org/2000/svg"
   xmlns="http://www.w3.org/2000/svg"
   xmlns:sodipodi="http://sodipodi.sourceforge.net/DTD/sodipodi-0.dtd"
   xmlns:inkscape="http://www.inkscape.org/namespaces/inkscape"
   width="295"
   height="295"
   viewBox="0 0 295 295"
   id="svg2"
   version="1.1"
   inkscape:version="0.91 r13725">
  <defs
     id="defs4">
    <clipPath
       id="clipPath4150"
       clipPathUnits="userSpaceOnUse">
      <path
         inkscape:connector-curvature="0"
         id="path4152"
         d="m 0,595.28 841.89,0 L 841.89,0 0,0 0,595.28 Z" />
    </clipPath>
    <clipPath
       id="clipPath5268"
       clipPathUnits="userSpaceOnUse">
      <path
         inkscape:connector-curvature="0"
         id="path5270"
         d="M 0,792 1224,792 1224,0 0,0 0,792 Z" />
    </clipPath>
  </defs>
  <sodipodi:namedview
     id="base"
     pagecolor="#ffffff"
     bordercolor="#666666"
     borderopacity="1.0"
     inkscape:pageopacity="0.0"
     inkscape:pageshadow="2"
     inkscape:zoom="0.98994949"
     inkscape:cx="576.93449"
     inkscape:cy="282.6178"
     inkscape:document-units="px"
     inkscape:current-layer="layer1"
     showgrid="false"
     units="px"
     inkscape:window-width="1920"
     inkscape:window-height="1053"
     inkscape:window-x="0"
     inkscape:window-y="0"
     inkscape:window-maximized="1" />
  <metadata
     id="metadata7">
    <rdf:RDF>
      <cc:Work
         rdf:about="">
        <dc:format>image/svg+xml</dc:format>
        <dc:type
           rdf:resource="http://purl.org/dc/dcmitype/StillImage" />
        <dc:title></dc:title>
      </cc:Work>
    </rdf:RDF>
  </metadata>
  <g
     inkscape:label="Capa 1"
     inkscape:groupmode="layer"
     id="layer1"
     transform="translate(0,-757.36216)">
    <g
       id="g5794"
       transform="translate(-825.68061,124.54151)">
      <path
         d="m 973.22926,904.71565 c -68.7325,0 -124.455,-55.7175 -124.455,-124.44875 0,-68.7325 55.72,-124.45 124.455,-124.45 68.73124,0 124.45004,55.7175 124.45004,124.45 0,68.73125 -55.7188,124.44875 -124.45004,124.44875 z m -0.0462,-271.24875 c -81.105,0 -146.85625,65.7475 -146.85625,146.85125 0,81.1075 65.75125,146.85625 146.85625,146.85625 81.10254,0 146.85134,-65.74875 146.85134,-146.85625 0,-81.10375 -65.7525,-146.85125 -146.85134,-146.85125"
         style="fill:#99aab5;fill-opacity:1;fill-rule:nonzero;stroke:none"
         id="path5356"
         inkscape:connector-curvature="0" />
      <path
         d="m 909.08551,777.45315 c -0.0263,-1.93 -0.46,-2.535 -1.95,-2.535 -1.86875,0 -1.77875,1.68875 -1.77875,3.41375 l 0,0.7775 3.72875,0 0,-1.65625"
         style="fill:#ffffff;fill-opacity:1;fill-rule:nonzero;stroke:none"
         id="path5358"
         inkscape:connector-curvature="0" />
      <path
         d="m 892.78051,774.91815 c -1.8625,0 -1.78,1.68875 -1.78,3.41375 l 0,0.7775 3.735,0 0,-1.65625 c -0.03,-1.93 -0.465,-2.535 -1.955,-2.535"
         style="fill:#ffffff;fill-opacity:1;fill-rule:nonzero;stroke:none"
         id="path5360"
         inkscape:connector-curvature="0" />
      <path
         d="m 931.41801,777.45315 c -0.0325,-1.93 -0.45625,-2.535 -1.9525,-2.535 -1.8675,0 -1.7825,1.68875 -1.7825,3.41375 l 0,0.7775 3.735,0 0,-1.65625"
         style="fill:#ffffff;fill-opacity:1;fill-rule:nonzero;stroke:none"
         id="path5362"
         inkscape:connector-curvature="0" />
      <path
         d="m 1034.798,842.22315 c -6.6025,-35.1075 -18.8325,-54.63 -62.87624,-62.11125 44.04374,-7.4825 56.27124,-26.99625 62.87624,-62.11375 6.6013,35.1175 18.8338,54.63125 62.8725,62.11375 -44.0387,7.48125 -56.2662,26.99875 -62.8725,62.11125 z M 952.62301,788.2344 c 1.0625,0 1.8125,-0.9125 1.55375,-2.12875 -0.0562,-1.08125 -1.11875,-1.6875 -1.83625,-2.2625 l -2.03875,-1.66375 c -1.8675,-1.51625 -3.075,-3.27375 -3.075,-6.0125 0,-2.93875 1.9775,-4.62625 5.56625,-4.62625 3.62,0 5.28375,2.22875 5.19875,6.32 l -3.72875,0 c 0.0888,-2.13 -0.435,-2.9425 -1.7225,-2.9425 -0.89,0 -1.58,0.47125 -1.58,1.555 0,1.115 0.6875,1.62 1.40625,2.19875 l 3.04,2.43125 c 0.95,0.64125 2.44125,2.465 2.56,3.74875 0.31625,3.315 -0.37375,6.75875 -5.54125,6.75875 -1.98,0 -5.68625,-0.97875 -5.25625,-6.7925 l 3.73,0 c -0.2825,3.515 0.8675,3.41625 1.72375,3.41625 z m -10.4425,-12.81 c 0.46125,-1.38375 0.92,-2.1625 1.46625,-2.705 1.05875,-1.04875 1.7775,-0.97875 2.32625,-1.01125 l 0,5.20125 c -2.07,-0.23375 -3.64625,0.3725 -3.70875,3.17875 l 0,11.0175 -3.72875,0 0,-19.0625 3.5875,0 0,3.37875 0.0575,0 0,0.002 z m -12.5425,12.81 c 1.37625,0 1.78,-1.185 1.72125,-3.5875 l 3.735,0 c 0.14125,4.26375 -1.34875,6.96375 -5.17,6.96375 -4.305,0 -6.0575,-2.4 -5.9675,-8.005 l 0,-5.00875 c -0.17375,-4.49 1.77375,-7.05625 5.45,-7.05625 5.195,0 5.7425,3.1725 5.7425,8.3775 l 0,2.57125 -7.465,0 0,2.77125 c 0.03,2.49875 0.83625,2.97375 1.95375,2.97375 z m -13.03,2.87125 0,-25.345 3.7325,0 0,25.345 -3.7325,0 z m 55.27625,113.38375 c -6.6025,-35.11125 -18.8325,-54.63125 -62.87,-62.11375 44.0375,-7.4775 56.2675,-26.99375 62.87,-62.1025 -6.6025,-35.1125 -18.8325,-54.63 -62.87,-62.11 44.0375,-7.4825 56.2675,-26.99875 62.87,-62.115 6.6025,35.11625 18.83375,54.6325 62.87504,62.115 -44.03629,7.48 -56.27004,26.9975 -62.87504,62.11 6.605,35.10875 18.83375,54.625 62.87504,62.1025 -44.04129,7.4825 -56.27254,27.0025 -62.87504,62.11375 z m -70.26375,-120.88375 0,-5.00875 c -0.17125,-4.49 1.78,-7.05625 5.4575,-7.05625 5.195,0 5.74125,3.1725 5.74125,8.3775 l 0,2.57125 -7.465,0 0,2.77125 c 0.0263,2.50125 0.83125,2.97875 1.95,2.97875 1.37875,0 1.78,-1.19 1.72375,-3.59 l 3.73,0 c 0.14625,4.26375 -1.35,6.96125 -5.16375,6.96125 -4.305,0 -6.05875,-2.4 -5.97375,-8.005 z m -3.1575,-1.11875 -7.465,0 0,2.76875 c 0.0263,2.50375 0.83125,2.97875 1.9525,2.97875 1.3775,0 1.78,-1.185 1.72125,-3.5875 l 3.73625,0 c 0.14125,4.26375 -1.35625,6.96375 -5.16875,6.96375 -4.30625,0 -6.0575,-2.4 -5.97375,-8.005 l 0,-5.00875 c -0.1725,-4.49 1.77875,-7.05625 5.45125,-7.05625 5.2,0 5.74375,3.1725 5.74375,8.3775 l 0,2.56875 0.003,0 z m -13.425,-7.22875 -1.585,0 0,11.82125 c 0.0888,0.81625 1.12625,0.71375 1.585,0.645 l 0,3.44375 c -2.21,0.305 -5.31,0.54375 -5.31,-3.00125 l 0,-12.90875 -1.52375,0 0,-3.2125 1.49,0 0,-1.56375 3.76125,-3.6725 0,5.2375 1.585,0 0,3.21125 -0.003,0 z m -15.2425,16.45375 c -4.825,0 -6.54625,-3.17875 -6.54625,-7.705 l 0,-1.85875 4.0175,0 0,1.48375 c -0.0812,2.47375 0.54875,4.26375 2.53125,4.26375 1.69375,0 2.49625,-1.0525 2.49625,-2.97625 0,-1.48625 -0.57625,-2.50375 -1.61125,-3.3475 -2.09625,-1.92625 -4.70125,-3.30875 -6.345,-5.84375 -0.655,-1.1475 -1.035,-2.53875 -1.035,-3.8875 0,-4.32625 2.07,-6.69125 6.31875,-6.69125 6.4,0 6.23,5.815 6.25875,8.31 l -3.87875,0 c 0.0325,-2.26375 -0.14125,-4.49125 -2.35375,-4.49125 -1.34875,0 -2.20625,0.6425 -2.20625,2.36375 0,1.925 1.03375,2.6725 2.29625,3.615 1.3225,0.97875 3.75875,2.87125 4.87875,4.1575 1.3775,1.58625 1.8125,3.10375 1.8125,5.305 0,4.80125 -2.70625,7.3025 -6.63375,7.3025 z m 103.43375,-135.895 c -68.7325,0 -124.455,55.7175 -124.455,124.45 0,68.73125 55.72,124.44875 124.455,124.44875 68.73124,0 124.45004,-55.7175 124.45004,-124.44875 0,-68.7325 -55.7188,-124.45 -124.45004,-124.45"
         style="fill:#ffffff;fill-opacity:1;fill-rule:nonzero;stroke:none"
         id="path5364"
         inkscape:connector-curvature="0" />
      <path
         d="m 869.73801,774.9519 c -1.2625,-0.94375 -2.29625,-1.69 -2.29625,-3.61625 0,-1.72125 0.8575,-2.36375 2.20625,-2.36375 2.2125,0 2.38625,2.2275 2.35375,4.4925 l 3.87875,0 c -0.0312,-2.49625 0.14125,-8.31 -6.25875,-8.31 -4.24875,0 -6.31875,2.3625 -6.31875,6.69 0,1.35 0.37875,2.73875 1.035,3.8875 1.64375,2.53375 4.24875,3.91625 6.345,5.845 1.035,0.84375 1.61125,1.86 1.61125,3.3475 0,1.9225 -0.805,2.975 -2.49625,2.975 -1.9825,0 -2.61125,-1.7925 -2.53125,-4.2625 l 0,-1.48375 -4.0175,0 0,1.86 c 0,4.52375 1.72125,7.70375 6.54625,7.70375 3.9275,0 6.63375,-2.5 6.63375,-7.29875 0,-2.20125 -0.435,-3.7175 -1.8125,-5.305 -1.12,-1.29125 -3.55625,-3.18375 -4.87875,-4.16125"
         style="fill:#211c1d;fill-opacity:1;fill-rule:nonzero;stroke:none"
         id="path5366"
         inkscape:connector-curvature="0" />
      <path
         d="m 883.45301,766.8069 -3.76,3.67375 0,1.5625 -1.49125,0 0,3.2125 1.525,0 0,12.9075 c 0,3.545 3.1,3.30875 5.30875,3.005 l 0,-3.4475 c -0.45625,0.0725 -1.49625,0.175 -1.58375,-0.64125 l 0,-11.82375 1.58375,0 0,-3.21 -1.58375,0 0,-5.23875 10e-4,0"
         style="fill:#211c1d;fill-opacity:1;fill-rule:nonzero;stroke:none"
         id="path5368"
         inkscape:connector-curvature="0" />
      <path
         d="m 894.73551,779.1094 -3.735,0 0,-0.7775 c 0,-1.725 -0.0825,-3.41375 1.78,-3.41375 1.49,0 1.925,0.60625 1.9525,2.53625 l 0,1.655 0.002,0 z m -2.015,-7.56875 c -3.6725,0 -5.6225,2.56625 -5.45,7.05625 l 0,5.00875 c -0.0862,5.6075 1.665,8.005 5.97375,8.005 3.8125,0 5.30875,-2.7 5.16875,-6.96375 l -3.73625,0 c 0.0588,2.4025 -0.345,3.5875 -1.72125,3.5875 -1.12375,0 -1.92625,-0.4725 -1.9525,-2.97875 l 0,-2.76875 7.46375,0 0,-2.57125 c -0.004,-5.2025 -0.54875,-8.375 -5.74625,-8.375"
         style="fill:#211c1d;fill-opacity:1;fill-rule:nonzero;stroke:none"
         id="path5370"
         inkscape:connector-curvature="0" />
      <path
         d="m 905.35676,778.33065 c 0,-1.72625 -0.09,-3.415 1.77875,-3.415 1.49,0 1.92125,0.6075 1.95,2.5375 l 0,1.65625 -3.72875,0 0,-0.77875 z m 7.40375,6.31625 -3.73125,0 c 0.0562,2.4025 -0.345,3.5875 -1.72375,3.5875 -1.11625,0 -1.9225,-0.4725 -1.94875,-2.97875 l 0,-2.76875 7.46375,0 0,-2.57125 c 0,-5.20375 -0.545,-8.37625 -5.74,-8.37625 -3.67875,0 -5.63,2.565 -5.45875,7.05625 l 0,5.00625 c -0.0862,5.60875 1.67,8.00375 5.9775,8.00375 3.81375,0.005 5.3075,-2.695 5.16125,-6.95875"
         style="fill:#211c1d;fill-opacity:1;fill-rule:nonzero;stroke:none"
         id="path5372"
         inkscape:connector-curvature="0" />
      <path
         d="m 916.60801,791.10565 3.73242,0 0,-25.34475 -3.73242,0 0,25.34475 z"
         style="fill:#211c1d;fill-opacity:1;fill-rule:nonzero;stroke:none"
         id="path5374"
         inkscape:connector-curvature="0" />
      <path
         d="m 927.68301,778.33065 c 0,-1.72625 -0.085,-3.415 1.7825,-3.415 1.49625,0 1.92,0.6075 1.9525,2.5375 l 0,1.65625 -3.735,0 0,-0.77875 z m 7.46375,4.15625 0,-2.57125 c 0,-5.20375 -0.545,-8.37625 -5.7425,-8.37625 -3.67375,0 -5.62375,2.565 -5.45,7.05625 l 0,5.00625 c -0.09,5.60875 1.66375,8.00375 5.9675,8.00375 3.82125,0 5.31125,-2.69625 5.17125,-6.96 l -3.735,0 c 0.0587,2.39875 -0.34625,3.58875 -1.72125,3.58875 -1.11875,0 -1.925,-0.475 -1.95625,-2.97875 l 0,-2.77125 7.46625,0 0,0.002"
         style="fill:#211c1d;fill-opacity:1;fill-rule:nonzero;stroke:none"
         id="path5376"
         inkscape:connector-curvature="0" />
      <path
         d="m 938.53801,772.04565 0,19.0625 3.72875,0 0,-11.0175 c 0.06,-2.8075 1.63875,-3.4125 3.70875,-3.17875 l 0,-5.20125 c -0.54875,0.0325 -1.2675,-0.0387 -2.3275,1.01125 -0.545,0.5425 -1.00375,1.31875 -1.46625,2.705 l -0.0563,0 0,-3.38125 -3.5875,0"
         style="fill:#211c1d;fill-opacity:1;fill-rule:nonzero;stroke:none"
         id="path5378"
         inkscape:connector-curvature="0" />
      <path
         d="m 947.16926,784.81815 c -0.43,5.81375 3.27625,6.7925 5.25625,6.7925 5.1675,0 5.85625,-3.44375 5.54125,-6.75875 -0.11875,-1.28125 -1.61,-3.1075 -2.56,-3.74875 l -3.04,-2.43125 c -0.71625,-0.57875 -1.40625,-1.08375 -1.40625,-2.19875 0,-1.08625 0.6875,-1.555 1.58,-1.555 1.29,0 1.81125,0.8125 1.72375,2.9425 l 3.73,0 c 0.0862,-4.09 -1.57875,-6.32 -5.19875,-6.32 -3.58875,0 -5.56625,1.68875 -5.56625,4.62625 0,2.73875 1.2075,4.49375 3.075,6.0125 l 2.03875,1.66375 c 0.72,0.575 1.78,1.18125 1.83625,2.2625 0.26125,1.21625 -0.49125,2.12875 -1.55375,2.12875 -0.85625,0 -2.00375,0.0987 -1.72125,-3.41625 l -3.735,0 0,0"
         style="fill:#211c1d;fill-opacity:1;fill-rule:nonzero;stroke:none"
         id="path5380"
         inkscape:connector-curvature="0" />
      <path
         d="m 971.88426,780.27315 c 6.605,-35.1125 18.83375,-54.63 62.87504,-62.11 -44.03629,-7.4825 -56.27004,-26.99875 -62.87504,-62.115 -6.6025,35.11625 -18.8325,54.6325 -62.87,62.115 44.035,7.48 56.2675,26.9975 62.87,62.11 0,0 0,-0.002 0,-0.006 0,10e-4 0,10e-4 0,0.006"
         style="fill:#ecc60d;fill-opacity:1;fill-rule:nonzero;stroke:none"
         id="path5382"
         inkscape:connector-curvature="0" />
      <path
         d="m 971.88426,780.27315 c 0,0 0,-0.002 0,-0.006 0,10e-4 0,10e-4 0,10e-4 -6.6025,35.11375 -18.8325,54.63 -62.87,62.1075 44.0375,7.4825 56.2675,27.0025 62.87,62.11375 6.6025,-35.11125 18.83375,-54.63125 62.87504,-62.11375 -44.04129,-7.4775 -56.27004,-26.99375 -62.87504,-62.1025"
         style="fill:#273f85;fill-opacity:1;fill-rule:nonzero;stroke:none"
         id="path5384"
         inkscape:connector-curvature="0" />
      <path
         d="m 1034.798,717.99815 c -6.6025,35.1175 -18.8325,54.63125 -62.87624,62.11375 44.04374,7.48125 56.27124,27.00375 62.87624,62.11125 6.6013,-35.1075 18.8338,-54.63 62.8725,-62.11125 -44.0387,-7.4825 -56.2662,-26.99875 -62.8725,-62.11375"
         style="fill:#bf1f26;fill-opacity:1;fill-rule:nonzero;stroke:none"
         id="path5386"
         inkscape:connector-curvature="0" />
    </g>
  </g>
</svg>
