<?xml version="1.0" encoding="UTF-8" standalone="no"?>
<!-- Created with Inkscape (http://www.inkscape.org/) -->

<svg
   xmlns:dc="http://purl.org/dc/elements/1.1/"
   xmlns:cc="http://creativecommons.org/ns#"
   xmlns:rdf="http://www.w3.org/1999/02/22-rdf-syntax-ns#"
   xmlns:svg="http://www.w3.org/2000/svg"
   xmlns="http://www.w3.org/2000/svg"
   xmlns:sodipodi="http://sodipodi.sourceforge.net/DTD/sodipodi-0.dtd"
   xmlns:inkscape="http://www.inkscape.org/namespaces/inkscape"
   width="106.53561mm"
   height="112.88889mm"
   viewBox="0 0 377.4884 399.99999"
   id="svg2"
   version="1.1"
   inkscape:version="0.91 r13725"
   sodipodi:docname="Jacksonville Jaguars.svg">
  <defs
     id="defs4">
    <clipPath
       id="clipPath3354"
       clipPathUnits="userSpaceOnUse">
      <path
         inkscape:connector-curvature="0"
         id="path3356"
         d="m 607.68,733.44 -603.84,0 0,-636.48 248.64,0 0,-93.12 355.2,0 0,729.6" />
    </clipPath>
    <clipPath
       id="clipPath3431"
       clipPathUnits="userSpaceOnUse">
      <path
         inkscape:connector-curvature="0"
         id="path3433"
         d="M 0,792 612,792 612,0 0,0 0,792 Z" />
    </clipPath>
    <clipPath
       id="clipPath3441"
       clipPathUnits="userSpaceOnUse">
      <path
         inkscape:connector-curvature="0"
         id="path3443"
         d="m 19.574,740.36 41.534,0 0,31.107 -41.534,0 0,-31.107 z" />
    </clipPath>
    <clipPath
       id="clipPath3453"
       clipPathUnits="userSpaceOnUse">
      <path
         inkscape:connector-curvature="0"
         id="path3455"
         d="m 19.574,740.359 41.534,0 0,31.107 -41.534,0 0,-31.107 z" />
    </clipPath>
    <clipPath
       id="clipPath3653"
       clipPathUnits="userSpaceOnUse">
      <path
         inkscape:connector-curvature="0"
         id="path3655"
         d="m 562.72,741.532 27.308,0 0,28.937 -27.308,0 0,-28.937 z" />
    </clipPath>
    <linearGradient
       id="linearGradient3781"
       spreadMethod="pad"
       gradientTransform="matrix(270,0,0,-270,36,19.479996)"
       gradientUnits="userSpaceOnUse"
       y2="0"
       x2="1"
       y1="0"
       x1="0">
      <stop
         id="stop3783"
         offset="0"
         style="stop-opacity:1;stop-color:#ffffff" />
      <stop
         id="stop3785"
         offset="0.20091254"
         style="stop-opacity:0;stop-color:#ffffff" />
      <stop
         id="stop3787"
         offset="1"
         style="stop-opacity:0;stop-color:#ffffff" />
    </linearGradient>
    <mask
       id="mask3789"
       height="1"
       width="1"
       y="0"
       x="0"
       maskUnits="userSpaceOnUse">
      <g
         id="g3791">
        <g
           id="g3793">
          <g
             id="g3795">
            <g
               id="g3797">
              <path
                 inkscape:connector-curvature="0"
                 id="path3799"
                 style="fill:url(#linearGradient3781);stroke:none"
                 d="m -32768,32767 65535,0 0,-65535 -65535,0 0,65535 z" />
            </g>
          </g>
        </g>
      </g>
    </mask>
    <clipPath
       id="clipPath3805"
       clipPathUnits="userSpaceOnUse">
      <path
         inkscape:connector-curvature="0"
         id="path3807"
         d="m 35,37.92 272,0 0,-19.44 -272,0 0,19.44 z" />
    </clipPath>
    <linearGradient
       id="linearGradient3823"
       spreadMethod="pad"
       gradientTransform="matrix(-270,0,0,270,576,36.919998)"
       gradientUnits="userSpaceOnUse"
       y2="0"
       x2="1"
       y1="0"
       x1="0">
      <stop
         id="stop3825"
         offset="0"
         style="stop-opacity:1;stop-color:#ffffff" />
      <stop
         id="stop3827"
         offset="0.20091254"
         style="stop-opacity:0;stop-color:#ffffff" />
      <stop
         id="stop3829"
         offset="1"
         style="stop-opacity:0;stop-color:#ffffff" />
    </linearGradient>
    <mask
       id="mask3831"
       height="1"
       width="1"
       y="0"
       x="0"
       maskUnits="userSpaceOnUse">
      <g
         id="g3833">
        <g
           id="g3835">
          <g
             id="g3837">
            <g
               id="g3839">
              <path
                 inkscape:connector-curvature="0"
                 id="path3841"
                 style="fill:url(#linearGradient3823);stroke:none"
                 d="m -32768,32767 65535,0 0,-65535 -65535,0 0,65535 z" />
            </g>
          </g>
        </g>
      </g>
    </mask>
    <clipPath
       id="clipPath3847"
       clipPathUnits="userSpaceOnUse">
      <path
         inkscape:connector-curvature="0"
         id="path3849"
         d="m 305,37.92 272,0 0,-19.44 -272,0 0,19.44 z" />
    </clipPath>
    <clipPath
       id="clipPath4317"
       clipPathUnits="userSpaceOnUse">
      <path
         inkscape:connector-curvature="0"
         id="path4319"
         d="m 316.103,201.392 259.767,0 0,530.742 -259.767,0 0,-530.742 z" />
    </clipPath>
  </defs>
  <sodipodi:namedview
     id="base"
     pagecolor="#ffffff"
     bordercolor="#666666"
     borderopacity="1.0"
     inkscape:pageopacity="0.0"
     inkscape:pageshadow="2"
     inkscape:zoom="0.35"
     inkscape:cx="591.47654"
     inkscape:cy="-284.71279"
     inkscape:document-units="px"
     inkscape:current-layer="layer1"
     showgrid="false"
     fit-margin-top="0"
     fit-margin-left="0"
     fit-margin-right="0"
     fit-margin-bottom="0"
     inkscape:window-width="1366"
     inkscape:window-height="705"
     inkscape:window-x="-8"
     inkscape:window-y="-8"
     inkscape:window-maximized="1" />
  <metadata
     id="metadata7">
    <rdf:RDF>
      <cc:Work
         rdf:about="">
        <dc:format>image/svg+xml</dc:format>
        <dc:type
           rdf:resource="http://purl.org/dc/dcmitype/StillImage" />
        <dc:title></dc:title>
      </cc:Work>
    </rdf:RDF>
  </metadata>
  <g
     inkscape:label="Layer 1"
     inkscape:groupmode="layer"
     id="layer1"
     transform="translate(653.61939,495.20772)">
    <g
       id="g3649"
       transform="matrix(13.823515,0,0,-13.823515,-8432.3919,10155.371)">
      <g
         clip-path="url(#clipPath3653)"
         id="g3651">
        <g
           transform="translate(587.6495,759.738)"
           id="g3657">
          <path
             inkscape:connector-curvature="0"
             id="path3659"
             style="fill:#0a0a09;fill-opacity:1;fill-rule:nonzero;stroke:none"
             d="m 0,0 -0.803,-0.937 -3.412,0.999 -0.628,0.852 0,2.287 1.531,-1.244 0,-0.695 c 0.529,-0.167 1.697,-0.535 1.697,-0.535 l 0,1.034 C -2.658,2.677 -3.692,3.59 -4.736,4.498 l 0,2.377 0.795,0.898 c 1.076,-0.296 1.943,-0.536 3.026,-0.836 l 0.816,-1.118 0.005,-2.051 -1.531,1.243 0,0.562 C -2.089,5.709 -3.122,6.01 -3.122,6.01 l 0,-0.933 C -2.078,4.166 -1.035,3.247 0,2.329 L 0,0 Z M -5.819,1.534 -6.752,0.492 -9.925,0.731 c 0,-0.026 -0.855,1.164 -0.855,1.164 l -0.003,5.732 0.824,0.933 3.325,-0.323 0.805,-1.137 0,-1.334 -1.469,0.167 0,0.901 -1.747,0.172 0,-4.799 c 0,0 1.168,-0.079 1.727,-0.127 l 0,1.423 -1.173,0.121 1.024,1.14 1.648,-0.206 0,-3.024 z m -7.467,-0.863 -0.375,2.468 -1.397,-0.186 1.159,1.448 -0.536,3.057 c -0.153,-0.986 -1.152,-7.004 -1.152,-7.004 l -1.817,-0.293 1.337,8.082 3.299,0.317 c 0.449,-2.622 1.348,-7.856 1.348,-7.856 l -1.866,-0.033 z m -5.748,-0.835 c -1.051,-0.333 -2.101,-0.668 -3.16,-1.007 l -0.829,0.929 -0.002,0.84 1.675,2.32 0.005,-2.251 1.455,0.463 -0.011,6.302 1.675,0.415 0.025,-6.889 C -18.536,0.505 -18.7,0.285 -19.034,-0.164 m 7.759,10.286 c -4.408,0.059 -8.712,-0.816 -13.049,-2.714 l 0,-8.94 c 1.237,-6.073 4.405,-11.709 13.049,-15.999 8.643,4.29 11.811,9.926 13.049,15.999 l 0,8.94 c -4.338,1.898 -8.641,2.773 -13.049,2.714" />
        </g>
        <g
           transform="translate(576.2291,760.4418)"
           id="g3661">
          <path
             inkscape:connector-curvature="0"
             id="path3663"
             style="fill:#d29c17;fill-opacity:1;fill-rule:nonzero;stroke:none"
             d="M 0,0 -1.865,-0.032 -2.241,2.435 -3.638,2.249 -2.479,3.697 -3.014,6.754 C -3.167,5.768 -4.167,-0.25 -4.167,-0.25 l -1.817,-0.293 1.337,8.083 3.299,0.316 C -0.898,5.234 0,0 0,0" />
        </g>
        <g
           transform="translate(587.6495,762.0671)"
           id="g3665">
          <path
             inkscape:connector-curvature="0"
             id="path3667"
             style="fill:#d29c17;fill-opacity:1;fill-rule:nonzero;stroke:none"
             d="m 0,0 0,-2.329 -0.803,-0.937 -3.412,0.999 -0.628,0.852 0,2.287 1.531,-1.244 0,-0.695 c 0.529,-0.167 1.697,-0.536 1.697,-0.536 l 0,1.035 c -1.043,0.915 -2.077,1.829 -3.121,2.736 l 0,2.378 0.795,0.898 c 1.076,-0.297 1.943,-0.537 3.026,-0.837 l 0.816,-1.117 0.005,-2.051 -1.531,1.243 0,0.562 C -2.089,3.38 -3.122,3.681 -3.122,3.681 l 0,-0.934 C -2.078,1.837 -1.035,0.918 0,0" />
        </g>
        <g
           transform="translate(581.8307,764.2961)"
           id="g3669">
          <path
             inkscape:connector-curvature="0"
             id="path3671"
             style="fill:#d29c17;fill-opacity:1;fill-rule:nonzero;stroke:none"
             d="m 0,0 0,-3.025 -0.933,-1.041 -3.173,0.239 c 0,-0.026 -0.855,1.164 -0.855,1.164 l -0.003,5.732 0.824,0.933 3.325,-0.323 0.805,-1.137 0,-1.334 -1.47,0.167 0,0.901 -1.746,0.171 0,-4.798 c 0,0 1.168,-0.08 1.727,-0.128 l 0,1.424 -1.173,0.121 1.024,1.14 L 0,0 Z" />
        </g>
        <g
           transform="translate(569.4485,760.6956)"
           id="g3673">
          <path
             inkscape:connector-curvature="0"
             id="path3675"
             style="fill:#d29c17;fill-opacity:1;fill-rule:nonzero;stroke:none"
             d="m 0,0 c -0.335,-0.453 -0.499,-0.673 -0.833,-1.121 -1.051,-0.334 -2.101,-0.668 -3.16,-1.008 L -4.822,-1.2 -4.824,-0.359 -3.149,1.96 -3.144,-0.29 -1.689,0.173 -1.7,6.475 -0.025,6.889 0,0 Z" />
        </g>
        <g
           transform="translate(576.3743,742.2072)"
           id="g3677">
          <path
             inkscape:connector-curvature="0"
             id="path3679"
             style="fill:#d29c17;fill-opacity:1;fill-rule:nonzero;stroke:none"
             d="m 0,0 c -8.644,4.289 -11.812,9.926 -13.049,15.998 l -0.605,-0.051 0.012,-0.069 c 0.71,-3.48 1.971,-6.395 3.856,-8.91 2.239,-2.986 5.351,-5.443 9.517,-7.51 L 0,-0.676 0.269,-0.542 c 4.166,2.067 7.278,4.524 9.516,7.51 1.886,2.515 3.147,5.43 3.857,8.91 l 0.01,0.05 -0.603,0.07 C 11.812,9.925 8.643,4.289 0,0 m 0,27.653 c 4.408,0.059 8.711,-0.816 13.049,-2.714 l 0.605,0.396 -0.362,0.158 c -4.257,1.862 -8.464,2.768 -12.861,2.768 -0.144,0 -0.288,-10e-4 -0.43,-0.003 -0.147,0.002 -0.293,0.003 -0.44,0.003 -4.392,0 -8.596,-0.905 -12.853,-2.768 l -0.362,-0.158 0.605,-0.396 c 4.338,1.898 8.641,2.773 13.049,2.714" />
        </g>
        <g
           transform="translate(563.3255,767.1462)"
           id="g3681">
          <path
             inkscape:connector-curvature="0"
             id="path3683"
             style="fill:#98731e;fill-opacity:1;fill-rule:nonzero;stroke:none"
             d="m 0,0 0,-8.941 -0.605,-0.051 0,9.388 L 0,0 Z" />
        </g>
        <g
           transform="translate(590.0286,767.5422)"
           id="g3685">
          <path
             inkscape:connector-curvature="0"
             id="path3687"
             style="fill:#98731e;fill-opacity:1;fill-rule:nonzero;stroke:none"
             d="m 0,0 -0.002,-9.407 -0.603,0.07 0,8.941 L 0,0 Z" />
        </g>
        <g
           transform="translate(572.9846,752.2391)"
           id="g3689">
          <path
             inkscape:connector-curvature="0"
             id="path3691"
             style="fill:#ffffff;fill-opacity:1;fill-rule:nonzero;stroke:none"
             d="m 0,0 c 0.115,0.05 0.22,0.04 0.326,-0.025 0.105,-0.065 0.205,-0.266 0.205,-0.266 0.08,0.033 0.208,0.053 0.224,0.055 -0.066,-0.031 -0.184,-0.13 -0.184,-0.13 0,0 0.065,-0.13 0.07,-0.241 0.005,-0.11 -0.085,-0.145 -0.175,-0.18 -0.09,-0.035 -0.191,-0.015 -0.22,0.005 -0.031,0.02 -0.081,0.015 -0.081,0.015 0.03,0.04 0.156,0.126 0.156,0.126 C 0.2,-0.652 0.09,-0.727 0.09,-0.727 c 0,0 -0.19,-0.03 -0.291,-0.03 -0.1,0 -0.255,0.095 -0.255,0.095 -0.06,0 -0.145,-0.045 -0.145,-0.045 0.045,0.076 0.24,0.216 0.24,0.216 -0.09,-0.02 -0.205,-0.095 -0.205,-0.095 -0.035,0.035 -0.206,0.14 -0.251,0.175 -0.045,0.035 -0.075,0.085 -0.06,0.186 0.015,0.099 0.13,0.11 0.235,0.115 0.106,0.004 0.251,0.005 0.251,0.005 -0.042,-0.033 -0.071,-0.093 -0.074,-0.1 0.021,0.03 0.179,0.106 0.179,0.106 0,0 0.17,0.049 0.286,0.099 M 0.847,-1.887 C 0.784,-1.996 0.697,-2.006 0.697,-2.006 l 0.022,0.042 c -0.075,-0.021 -0.154,0.022 -0.161,0.026 0.046,-0.064 0.05,-0.147 0.05,-0.147 L 0.579,-2.14 0.68,-2.133 0.623,-2.203 C 0.64,-2.366 0.504,-2.427 0.346,-2.415 c -0.158,0.012 -0.349,0.175 -0.349,0.175 0.011,0.064 0.13,0.233 0.13,0.233 -0.085,-0.026 -0.238,-0.134 -0.238,-0.134 -0.145,0.09 -0.115,0.06 -0.527,0.117 -0.412,0.057 -0.619,0.166 -0.619,0.166 -0.002,0.075 0.054,0.166 0.054,0.166 -0.098,-0.048 -0.147,-0.125 -0.147,-0.125 -0.035,0.026 -0.155,0.142 -0.108,0.306 0.046,0.163 0.289,0.188 0.289,0.188 0.078,0.064 0.198,0.065 0.205,0.065 -0.027,-0.017 -0.073,-0.048 -0.073,-0.048 0.068,0.013 0.432,-0.025 0.589,-0.036 0.158,-0.013 0.328,-0.013 0.328,-0.013 l 0.161,0.038 c -0.068,-0.044 -0.261,-0.169 -0.284,-0.184 0.12,0.074 0.41,0.132 0.41,0.132 0,0 0.051,0.006 0.126,-0.027 0.074,-0.033 0.106,-0.154 0.106,-0.154 0.065,0.063 0.172,0.026 0.281,-0.088 0.111,-0.114 0.115,-0.235 0.115,-0.235 l 0.052,-0.014 z m 8.369,1.64 C 9.208,-0.182 9.19,-0.118 9.167,-0.056 9.119,0.07 9.044,0.193 8.935,0.275 8.933,0.277 8.932,0.278 8.929,0.28 8.877,0.33 8.819,0.376 8.758,0.417 8.48,0.605 8.169,0.748 7.862,0.882 7.834,0.894 7.806,0.906 7.778,0.918 7.41,1.076 7.035,1.224 6.656,1.352 6.718,1.319 6.779,1.285 6.84,1.25 6.851,1.244 6.862,1.237 6.872,1.23 6.887,1.222 6.902,1.212 6.917,1.203 6.97,1.172 7.024,1.141 7.076,1.108 7.215,1.02 7.363,0.925 7.482,0.808 7.461,0.808 7.438,0.805 7.417,0.8 7.395,0.794 7.374,0.788 7.354,0.783 7.503,0.678 7.637,0.555 7.758,0.42 7.773,0.403 7.907,0.229 7.911,0.229 7.83,0.192 7.747,0.157 7.662,0.128 7.62,0.114 7.578,0.101 7.536,0.089 7.385,0.048 7.234,0.033 7.078,0.024 7.074,0.023 7.069,0.024 7.061,0.025 l 0,-0.001 C 7.057,0.012 7.051,0.001 7.043,-0.01 7.002,-0.07 6.919,-0.061 6.86,-0.043 6.795,-0.01 6.667,0.055 6.479,0.141 5.767,0.476 4.133,1.144 1.656,1.586 1.27,1.655 0.917,1.711 0.584,1.755 c 0,0 -0.001,0 -0.002,0 -0.002,0 -0.006,0.001 -0.01,0.001 -0.005,0 -0.01,10e-4 -0.011,10e-4 C 0.652,1.733 0.744,1.707 0.835,1.68 0.964,1.642 1.101,1.608 1.222,1.547 1.08,1.558 0.932,1.571 0.79,1.555 0.851,1.531 0.921,1.507 0.972,1.464 0.731,1.461 0.489,1.456 0.248,1.447 -0.174,1.432 -0.598,1.416 -1.017,1.36 -0.807,1.292 -0.572,1.193 -0.404,1.038 -0.38,1.016 -0.357,0.993 -0.337,0.969 -0.504,0.959 -0.671,0.944 -0.838,0.926 L -0.837,0.925 C -0.805,0.858 -0.794,0.79 -0.794,0.79 -0.837,0.715 -0.958,0.646 -0.958,0.646 c 0.057,-0.013 0.133,0 0.133,0 C -0.857,0.538 -0.831,0.488 -0.831,0.38 -0.831,0.273 -0.964,0.228 -1.172,0.197 -1.38,0.166 -1.468,0.235 -1.468,0.235 l 0.031,0.07 c -0.07,-0.013 -0.272,-0.02 -0.272,-0.02 0.133,0.058 0.303,0.178 0.303,0.178 C -1.487,0.431 -1.657,0.39 -1.657,0.39 c 0,0 -0.051,0.037 -0.102,0.085 0,0 -0.253,-0.073 -0.372,-0.113 -0.357,-0.121 -0.704,-0.275 -1.018,-0.483 0.041,-0.008 0.081,-0.017 0.121,-0.026 0.06,-0.015 0.12,-0.03 0.179,-0.048 0.037,-0.012 0.074,-0.023 0.111,-0.037 l 10e-4,0 c 0.056,0.062 0.154,0.107 0.154,0.107 -0.051,-0.064 -0.057,-0.132 -0.058,-0.146 10e-4,-0.001 10e-4,-0.001 0.002,-0.001 0.11,0.176 0.298,0.162 0.298,0.162 -0.039,-0.01 -0.087,-0.039 -0.087,-0.039 0,0 0.082,-0.029 0.164,-0.053 0.082,-0.025 0.265,-0.039 0.371,-0.039 0.107,0 0.304,-0.038 0.304,-0.038 0.087,0.028 0.353,0.096 0.353,0.096 -0.092,-0.058 -0.256,-0.14 -0.256,-0.14 0.334,-0.183 0.049,-0.56 0.049,-0.56 0,0 -0.059,-0.015 -0.179,-0.106 -0.121,-0.092 -0.15,-0.212 -0.15,-0.212 0.062,0.057 0.15,0.11 0.15,0.11 -0.025,-0.038 -0.015,-0.058 -0.068,-0.178 -0.053,-0.121 -0.184,-0.116 -0.275,-0.125 -0.092,-0.01 -0.241,0.101 -0.241,0.101 -0.053,-0.02 -0.15,-0.111 -0.15,-0.111 0.043,0.145 0.203,0.299 0.203,0.299 -0.068,-0.029 -0.188,-0.116 -0.188,-0.116 -0.068,0.053 -0.305,0.121 -0.464,0.208 -0.16,0.087 -0.14,0.256 -0.14,0.256 0.01,0.101 0.096,0.236 0.096,0.236 -0.053,-0.029 -0.11,-0.092 -0.11,-0.092 -0.002,0.02 -10e-4,0.037 0,0.054 l 0,0.001 c 0,0 -10e-4,-0.001 -10e-4,-0.001 0,0 -0.115,-0.061 -0.165,-0.095 -0.053,-0.036 -0.105,-0.073 -0.154,-0.112 -0.029,-0.024 -0.085,-0.072 -0.092,-0.078 0.008,-0.01 0.014,-0.017 0.018,-0.02 0.264,-0.284 0.574,-0.532 0.892,-0.754 0.15,-0.104 0.304,-0.202 0.46,-0.295 0.556,-0.331 1.143,-0.611 1.734,-0.87 0.367,-0.161 0.715,-0.369 1.02,-0.63 0.195,-0.166 0.372,-0.354 0.524,-0.56 0.178,-0.241 0.308,-0.513 0.468,-0.765 0.266,-0.419 0.582,-0.808 0.958,-1.133 0.214,-0.185 0.449,-0.35 0.703,-0.474 C 3.475,-6.379 3.546,-6.41 3.618,-6.436 3.645,-6.445 3.677,-6.459 3.706,-6.462 3.698,-6.53 3.628,-6.588 3.577,-6.626 4.001,-6.71 4.441,-6.698 4.865,-6.624 4.789,-6.705 4.712,-6.787 4.635,-6.869 c 0.431,0.017 0.873,0.149 1.26,0.331 0.373,0.175 0.713,0.418 0.99,0.725 0.162,0.18 0.301,0.38 0.414,0.594 0.014,0.026 0.017,0.027 -0.008,0.038 -0.16,0.084 -0.349,0.121 -0.527,0.14 C 6.226,-4.983 5.701,-5.167 5.2,-5.339 4.987,-5.412 4.769,-5.502 4.545,-5.536 4.226,-5.584 3.901,-5.585 3.607,-5.434 3.331,-5.291 3.102,-5.063 2.902,-4.829 2.713,-4.608 2.546,-4.368 2.393,-4.119 2.084,-3.62 1.836,-3.086 1.644,-2.532 1.482,-2.065 1.355,-1.571 1.373,-1.072 1.388,-0.671 1.489,-0.247 1.702,0.096 1.808,0.266 1.947,0.417 2.119,0.522 2.211,0.578 2.31,0.62 2.414,0.648 2.468,0.662 2.523,0.672 2.578,0.68 2.073,0.794 1.517,0.904 0.911,0.998 0.514,1.06 0.147,1.107 -0.193,1.144 0.152,1.122 0.528,1.091 0.933,1.047 c 3.449,-0.38 5.33,-1.298 5.33,-1.298 0,0 0.153,-0.101 0.07,-0.227 C 6.292,-0.539 6.21,-0.532 6.151,-0.516 6.085,-0.483 5.955,-0.421 5.765,-0.34 5.549,-0.245 5.25,-0.121 4.87,0.016 4.944,-0.129 5.031,-0.266 5.131,-0.394 5.27,-0.572 5.434,-0.733 5.625,-0.858 5.877,-1.022 6.169,-1.107 6.468,-1.13 c 0.29,-0.022 0.579,0.023 0.852,0.115 0.194,0.065 0.375,0.159 0.566,0.23 0.263,0.098 0.52,0.202 0.797,0.257 0.155,0.03 0.312,0.047 0.47,0.045 0.02,-0.001 0.04,-0.001 0.06,-0.002 0.015,-0.001 0.006,0.216 0.003,0.238" />
        </g>
        <g
           transform="translate(581.0977,756.5688)"
           id="g3693">
          <path
             inkscape:connector-curvature="0"
             id="path3695"
             style="fill:#d29c17;fill-opacity:1;fill-rule:nonzero;stroke:none"
             d="m 0,0 c 0.043,0.011 0.064,0.011 0.081,0.01 0,0 0.002,0.026 -0.019,0.049 0,0 0.123,-0.074 0.18,-0.133 l -0.015,0.053 c 0,0 0.098,-0.025 0.144,-0.068 0.045,-0.044 0.068,-0.093 0.081,-0.115 0.013,-0.023 0.05,-0.099 0.034,-0.122 -0.015,-0.023 -0.037,-0.023 -0.037,-0.023 0,0 -0.137,0.082 -0.173,0.099 0,0 0.069,-0.106 0.078,-0.131 0,0 -0.117,0.018 -0.148,0.059 0,0 -0.132,0.032 -0.18,0.064 -0.047,0.033 -0.085,0.082 -0.085,0.109 0,0 0.076,-0.037 0.114,-0.054 0,0 -0.103,0.124 -0.134,0.154 0,0 0.035,0.038 0.079,0.049 m -0.116,0.17 c 0,0 -0.109,0.096 -0.148,0.13 0,0 0.054,-0.127 0.062,-0.154 0,0 -0.103,-0.003 -0.159,0.04 -0.056,0.043 -0.136,0.094 -0.115,0.094 0,0 0.025,-0.001 0.046,-0.004 0,0 -0.064,0.077 -0.174,0.083 0,0 -0.066,-0.015 -0.142,0.023 -0.077,0.04 -0.109,0.079 -0.109,0.079 0,0 -0.041,0.047 -0.049,0.107 0,0 0.074,-0.053 0.111,-0.067 0,0 -0.066,0.094 -0.066,0.15 0,0 0.047,0.009 0.106,-0.013 0.06,-0.023 0.076,-0.005 0.076,-0.005 0,0 -0.025,0.034 -0.035,0.068 0,0 0.075,-0.063 0.107,-0.077 0,0 0.093,0.028 0.164,-0.002 0.07,-0.03 0.15,-0.109 0.163,-0.123 0.012,-0.014 0.059,-0.05 0.065,-0.054 C -0.218,0.451 -0.255,0.501 -0.265,0.54 -0.259,0.536 -0.212,0.506 -0.191,0.495 -0.169,0.484 -0.126,0.439 -0.118,0.41 -0.11,0.381 -0.156,0.335 -0.156,0.335 c 0,0 0.061,-0.078 0.061,-0.111 0,-0.031 -0.021,-0.054 -0.021,-0.054 m -0.543,-0.454 c 0,0 -0.081,0.033 -0.152,0.033 0,0 -0.031,-0.048 -0.106,-0.032 -0.075,0.015 -0.148,0.072 -0.148,0.072 0,0 0.067,-0.003 0.12,-0.003 0,0 -0.023,0.027 -0.086,0.04 -0.064,0.014 -0.102,0.025 -0.147,0.06 0,0 -0.011,-0.036 0.019,-0.06 0,0 -0.1,-0.026 -0.117,0.074 -0.017,0.101 -0.074,0.094 -0.034,0.168 0.04,0.072 0.123,0.073 0.126,0.073 0,0 -0.072,0.044 -0.119,0.07 0,0 0.164,-0.043 0.291,-0.12 0,0 -0.01,0.05 -0.04,0.077 0,0 0.088,0.027 0.185,-0.04 0.096,-0.067 0.1,-0.127 0.174,-0.177 0.074,-0.051 0.03,-0.128 -0.004,-0.148 0,0 0.024,-0.06 0.038,-0.087 M -1.353,0.557 C -1.357,0.51 -1.39,0.473 -1.447,0.466 -1.504,0.46 -1.538,0.483 -1.558,0.456 c -0.02,-0.027 -0.05,-0.053 -0.08,-0.06 0,0 -0.194,0.12 -0.279,0.164 0,0 0.071,-0.09 0.088,-0.127 0,0 -0.117,-0.01 -0.198,0.023 -0.08,0.034 -0.134,0.062 -0.191,0.087 -0.057,0.024 -0.117,0.104 -0.117,0.104 0,0 0.094,-0.043 0.144,-0.057 0,0 -0.084,0.094 -0.087,0.124 0,0 0.063,0.017 0.094,0.054 0.028,0.035 0.111,0.057 0.174,0.06 l 0.014,0 c 0.063,0 0.221,-0.084 0.298,-0.141 0,0 -0.067,0.094 -0.118,0.141 0,0 0.121,0 0.151,0.01 0.031,0.011 0.101,0.017 0.151,-0.006 0.047,-0.022 0.074,-0.071 0.077,-0.077 -0.007,0.003 -0.056,0.023 -0.094,0.033 0,0 0,-0.04 0.08,-0.098 0.081,-0.056 0.101,-0.086 0.098,-0.133 m -0.56,-0.688 c 0,0 0.088,-0.08 0.111,-0.123 0,0 -0.046,-0.037 -0.06,-0.064 -0.015,-0.026 -0.054,-0.087 -0.098,-0.103 0,0 -0.046,-0.061 -0.097,-0.064 -0.05,-0.003 -0.084,0.008 -0.117,0.01 -0.033,0.001 -0.168,0 -0.268,0.1 0,0 0.144,-0.02 0.181,-0.02 0,0 -0.128,0.094 -0.154,0.134 0,0 0.037,0.024 0.033,0.057 -0.003,0.034 -0.014,0.064 0.02,0.101 0,0 0.118,-0.041 0.188,-0.051 0,0 -0.077,0.078 -0.154,0.141 0,0 0.048,0.005 0.104,-0.018 0,0 0.023,0.005 0.077,0.048 0.053,0.044 0.157,0.032 0.217,-0.007 0.061,-0.04 0.118,-0.12 0.118,-0.12 0,0 0.07,-0.037 0.117,-0.114 0,0 -0.122,0.08 -0.218,0.093 m -0.734,0.607 c 0,0 -0.069,0.017 -0.096,0.027 0.005,-0.008 0.046,-0.068 0.056,-0.1 0,0 -0.063,-0.042 -0.112,-0.053 C -2.847,0.339 -2.861,0.325 -2.888,0.296 -2.915,0.265 -2.982,0.229 -3.049,0.238 c -0.064,0.01 -0.192,0.048 -0.203,0.05 0.007,-0.006 0.064,-0.062 0.089,-0.106 0,0 -0.073,-0.037 -0.194,-0.054 0,0 -0.11,0 -0.157,0.013 -0.047,0.014 -0.091,0.037 -0.094,0.067 -0.004,0.03 0.023,0.064 0.023,0.064 0,0 0.097,-0.037 0.154,-0.047 0,0 -0.144,0.134 -0.194,0.171 0,0 0.101,-0.017 0.161,-0.037 0,0 -0.007,0.037 -0.03,0.077 -0.024,0.04 0.02,0.08 0.04,0.091 0.02,0.01 0.114,0.046 0.137,0.063 0,0 -0.06,0.05 -0.127,0.087 0,0 0.131,-0.013 0.197,-0.033 0,0 0.054,-0.004 0.111,0.02 0.057,0.023 0.077,0.023 0.124,0.017 0.047,-0.007 0.053,-0.02 0.084,-0.023 0.03,-0.004 0.06,-0.001 0.06,-0.001 0,0 -0.02,0.027 -0.07,0.047 0,0 0.107,-0.014 0.157,-0.047 0,0 0.087,-0.015 0.138,-0.064 0.05,-0.049 -0.004,-0.117 -0.004,-0.117 M -4.08,0.821 C -4.137,0.775 -4.206,0.748 -4.206,0.748 c 0,0 0.009,-0.058 0.041,-0.092 0,0 -0.063,0.006 -0.116,0.036 0,0 -0.047,-0.053 -0.052,-0.075 C -4.339,0.595 -4.408,0.507 -4.449,0.477 -4.49,0.446 -4.576,0.413 -4.576,0.413 c 0,0 0.076,-0.11 0.14,-0.154 -0.017,0.007 -0.23,0.1 -0.317,0.19 0,0 -0.008,-0.067 0.014,-0.1 0,0 -0.105,-0.047 -0.224,-0.019 -0.112,0.026 -0.224,0.106 -0.236,0.116 0.013,-0.002 0.116,-0.022 0.183,-0.022 0,0 -0.151,0.075 -0.179,0.149 -0.028,0.075 -0.019,0.16 0.064,0.199 0.083,0.039 0.154,0.033 0.154,0.033 0,0 0.199,-0.094 0.315,-0.121 0,0 -0.152,0.099 -0.19,0.163 0,0 0.107,-0.003 0.138,0.016 0.03,0.02 0.052,0.069 0.11,0.088 0.058,0.02 0.119,0.026 0.119,0.026 0,0 -0.055,0.03 -0.069,0.047 0,0 0.113,-0.031 0.149,-0.031 0,0 0.1,-0.005 0.144,-0.011 0.044,-0.005 0.127,0.022 0.196,0 C -3.996,0.96 -4.024,0.868 -4.08,0.821 M -5.966,0.973 C -5.973,0.924 -6.008,0.798 -6.074,0.77 -6.141,0.742 -6.159,0.737 -6.159,0.737 l 0,-0.146 c 0,0 -0.1,0.089 -0.12,0.117 0,0 -0.027,-0.001 -0.097,0.009 -0.07,0.011 -0.154,-0.109 -0.284,-0.098 0,0 -0.214,0.045 -0.249,0.133 -0.034,0.088 -0.021,0.161 -0.007,0.186 0,0 0.074,-0.095 0.126,-0.123 0,0 -0.048,0.112 -0.048,0.183 0,0 0.041,0.031 0.048,0.063 0.008,0.031 0.088,0.08 0.137,0.091 0.049,0.01 0.097,-0.011 0.097,-0.011 0,0 0.058,-0.13 0.1,-0.18 0,0 -0.018,0.257 0.003,0.348 0,0 0.054,-0.118 0.082,-0.156 0,0 0.058,0.006 0.143,0.02 0.084,0.014 0.157,0.007 0.206,-0.042 0.049,-0.049 0.064,-0.109 0.056,-0.158 M -7.931,0.84 C -7.941,0.75 -8.057,0.67 -8.089,0.649 -8.119,0.628 -8.177,0.587 -8.195,0.529 -8.212,0.47 -8.274,0.433 -8.312,0.429 -8.349,0.426 -8.401,0.371 -8.401,0.371 c 0.054,-0.013 0.13,0.01 0.14,0.013 C -8.269,0.377 -8.334,0.325 -8.363,0.302 -8.394,0.278 -8.497,0.254 -8.535,0.257 c -0.038,0.004 -0.076,0 -0.192,0.004 -0.117,0.003 -0.251,0.014 -0.292,0.087 -0.038,0.071 -0.054,0.073 -0.055,0.073 -0.083,-0.038 -0.255,-0.037 -0.255,-0.037 0.166,0.069 0.307,0.224 0.307,0.224 -0.089,-0.038 -0.19,-0.053 -0.19,-0.053 -0.014,0.024 -0.017,0.049 -0.014,0.101 0.004,0.051 0.052,0.079 0.052,0.079 0,0 0.003,0.027 0.038,0.072 0.034,0.045 0.151,0.106 0.216,0.11 0.066,0.004 0.148,0.038 0.193,0.069 0.044,0.03 0.202,0.096 0.281,0.089 0.079,-0.007 0.111,-0.02 0.111,-0.02 0.044,0.003 0.144,0.02 0.144,0.02 -0.131,-0.103 -0.213,-0.141 -0.213,-0.141 0.151,0.017 0.281,0.079 0.281,0.079 0.155,-0.01 0.203,-0.082 0.192,-0.173 m -2.481,-0.417 c 0,0 0.063,-0.035 0.066,-0.121 0.004,-0.086 -0.017,-0.124 0.004,-0.182 0.021,-0.059 -0.014,-0.099 -0.096,-0.148 0,0 -0.083,-0.017 -0.165,-0.01 0,0 0.062,-0.031 0.089,-0.035 0,0 -0.089,-0.075 -0.216,-0.044 0,0 -0.155,-0.093 -0.272,-0.076 -0.117,0.017 -0.144,0.066 -0.144,0.066 0,0 0.139,0.025 0.239,0.038 0,0 -0.182,0.042 -0.24,0.076 0,0 0.018,0.085 0.056,0.122 0.038,0.039 0.029,0.048 0.029,0.048 0,0 -0.149,0.035 -0.204,0.055 0,0 0.175,0.027 0.23,0.048 0,0 -0.021,0.042 0.048,0.097 0.069,0.055 0.127,0.11 0.155,0.141 0.027,0.031 0.161,0.034 0.237,0.014 0.075,-0.021 0.075,-0.021 0.116,-0.021 0.041,0 0.217,0.017 0.217,0.017 0,0 -0.034,-0.054 -0.149,-0.085 M 2.3,-2.409 c 0,0 -0.266,-0.329 -0.398,-0.227 -0.132,0.1 0.069,0.235 0.027,0.498 -0.042,0.263 -0.903,1.147 -1.99,1.799 0,0 0.503,-0.207 0.989,-0.465 0.594,-0.098 0.733,0.057 0.765,0.121 -0.018,0.031 -0.04,0.064 -0.065,0.097 -0.022,0.014 -0.054,0.033 -0.089,0.046 -0.068,0.026 -0.133,0.037 -0.179,0.06 0,0 -0.104,0.106 -0.139,0.156 0,0 -0.011,-0.046 0.018,-0.101 0,0 -0.08,0.071 -0.154,0.086 -0.074,0.015 -0.163,0.045 -0.186,0.062 -0.022,0.018 -0.068,0.057 -0.068,0.057 0,0 0.002,-0.036 0.013,-0.062 0,0 -0.076,0.005 -0.089,0.085 -0.013,0.08 0.05,0.112 0.05,0.112 0,0 -0.006,0.022 0,0.051 0,0 0.067,-0.076 0.1,-0.095 0,0 0.015,0.048 -0.013,0.131 C 0.884,0.006 0.875,0.011 0.867,0.016 0.842,0.029 0.817,0.042 0.794,0.052 c -0.019,0.009 -1.14,0.644 -1.671,0.911 -0.039,0.004 -0.093,0.012 -0.15,0.031 0,0 -0.089,0.042 -0.103,0.084 0,0 -0.006,-0.022 0.006,-0.046 0.023,-0.041 0.071,-0.084 0.085,-0.141 0,0 -0.089,0.053 -0.161,0.09 -0.064,0.033 -0.198,0.072 -0.274,0.128 -0.016,0.012 -0.027,0.023 -0.036,0.035 -0.003,0.004 -0.006,0.007 -0.008,0.011 -0.008,0.011 -0.012,0.023 -0.016,0.032 -10e-4,0.005 -0.002,0.009 -0.003,0.014 0,0.002 -0.001,0.003 -0.001,0.005 -10e-4,0.006 -10e-4,0.011 -10e-4,0.014 0,0.007 10e-4,0.01 10e-4,0.01 C -1.536,1.229 -1.536,1.228 -1.535,1.227 -1.534,1.226 -1.532,1.225 -1.53,1.224 -1.529,1.223 -1.527,1.221 -1.525,1.22 -1.494,1.193 -1.46,1.162 -1.42,1.151 -1.417,1.15 -1.413,1.149 -1.41,1.149 -1.411,1.15 -1.412,1.152 -1.414,1.154 -1.415,1.155 -1.416,1.157 -1.418,1.158 -1.421,1.161 -1.424,1.166 -1.428,1.17 -1.448,1.192 -1.477,1.228 -1.5,1.274 c -0.434,0.215 -0.952,0.443 -1.654,0.581 -1.009,0.2 -1.687,0.032 -1.687,0.032 0,0 0.199,-0.012 0.615,-0.158 0.026,0.009 0.06,0.023 0.091,0.045 0.06,0.042 0.099,0.051 0.124,0.051 0.026,0 0.136,-0.132 0.136,-0.132 0,0 -0.012,0.102 -0.033,0.188 0,0 0.109,0.009 0.15,0 0.061,-0.014 0.111,-0.034 0.132,-0.034 0.022,0 0.031,0.025 0.031,0.025 0,0 0.038,-0.025 0.038,-0.056 0,0 0.086,-0.059 0.086,-0.115 0,-0.055 -0.013,-0.128 0,-0.163 0,0 -0.022,-0.012 -0.056,0.043 0,0 -0.056,-0.047 -0.111,-0.047 -0.026,0 -0.05,-0.006 -0.068,-0.013 0.191,-0.086 0.408,-0.191 0.651,-0.321 0,0 0.028,-0.019 0.048,-0.034 0,0 0.02,0.081 0.033,0.093 0,0 0.025,-0.022 0.03,-0.035 0,0 0.005,0.035 -0.002,0.075 0,0 0.068,0.056 0.12,0.061 0.054,0.005 0.074,0.005 0.092,0.015 0,0 0.011,0.043 -0.006,0.088 0,0 0.089,-0.052 0.106,-0.118 0,0 0.008,0.04 0.006,0.081 0,0 0.093,0.015 0.161,-0.003 0.068,-0.017 0.114,-0.04 0.129,-0.066 C -2.323,1.332 -2.28,1.248 -2.304,1.229 -2.328,1.211 -2.371,1.204 -2.384,1.183 -2.396,1.163 -2.401,1.146 -2.419,1.133 -2.436,1.121 -2.459,1.117 -2.459,1.117 c 0,0 -0.005,-0.07 0.013,-0.105 0,0 -0.036,0.004 -0.054,0.047 0,0 0.008,-0.04 -0.017,-0.068 -0.025,-0.027 -0.043,-0.045 -0.068,-0.052 0,0 -0.062,0.059 -0.067,0.082 0,0 0.006,-0.14 -0.018,-0.113 0,0 -0.131,0.116 -0.157,0.13 0,0 -0.057,-0.008 -0.079,-0.006 -0.023,0.002 -0.101,0.033 -0.116,0.058 0,0 -0.003,-0.03 0.04,-0.06 0,0 -0.039,0.006 -0.053,0.013 0,0 -0.023,-0.026 -0.063,-0.037 0,0 0.04,-0.045 0.058,-0.062 0,0 -0.079,0.014 -0.116,0.052 0,0 -0.046,-0.002 -0.096,0.013 -0.05,0.015 -0.081,0.01 -0.126,0.003 -0.046,-0.008 -0.053,-0.003 -0.086,0.005 -0.033,0.007 -0.124,0.058 -0.124,0.058 0,0 0.016,-0.04 0.031,-0.053 0,0 -0.008,-0.033 -0.081,-0.013 -0.074,0.021 -0.076,0.043 -0.114,0.066 -0.038,0.023 -0.063,0.055 -0.055,0.083 0.007,0.028 0.03,0.048 0.03,0.048 0,0 0.023,-0.02 0.063,-0.038 0,0 -0.068,0.086 -0.076,0.116 0,0 0.036,-0.007 0.053,-0.01 0,0 0.013,0.048 0.119,0.071 0.036,0.008 0.065,0.012 0.09,0.016 -0.293,0.091 -0.701,0.205 -1.173,0.3 C -4.709,1.652 -4.715,1.643 -4.72,1.634 -4.727,1.623 -4.733,1.611 -4.739,1.599 -4.756,1.563 -4.769,1.528 -4.797,1.504 c 0,0 -0.219,0.068 -0.29,0.103 0,0 0.111,-0.091 0.188,-0.132 0,0 -0.066,-0.11 -0.297,-0.084 0,0 -0.108,-0.047 -0.192,-0.038 -0.084,0.009 -0.211,0.064 -0.237,0.107 -0.026,0.044 -0.023,0.134 0.067,0.186 0,0 0.122,-0.075 0.183,-0.109 0,0 -0.108,0.135 -0.1,0.178 0,0 0.039,0.032 0.085,0.06 -0.054,0.007 -0.108,0.014 -0.163,0.02 -0.496,0.056 -0.935,0.064 -1.333,0.041 0.031,-0.045 0.025,-0.087 0.05,-0.133 C -6.806,1.648 -6.85,1.623 -6.85,1.623 -6.883,1.65 -7.021,1.708 -7.021,1.708 -6.969,1.659 -6.924,1.59 -6.924,1.59 -6.957,1.57 -7.045,1.553 -7.14,1.548 -7.234,1.544 -7.369,1.466 -7.369,1.466 -7.425,1.482 -7.473,1.54 -7.521,1.584 -7.53,1.592 -7.538,1.599 -7.544,1.604 -7.547,1.606 -7.549,1.608 -7.551,1.61 c -10e-4,10e-4 -0.002,0.002 -0.003,0.003 -0.002,0 -0.003,0.002 -0.005,0.003 0.002,-0.002 0.004,-0.01 0.006,-0.015 0,-10e-4 0,-10e-4 0,-0.002 0,0 0,-10e-4 0.001,-10e-4 0.003,-0.009 0.006,-0.017 0.009,-0.025 0.007,-0.015 0.014,-0.031 0.022,-0.047 0.025,-0.046 0.053,-0.089 0.082,-0.132 0.001,-10e-4 0.001,-0.002 0.002,-0.002 0.012,-0.019 0.023,-0.037 0.032,-0.052 0.004,-0.006 0.008,-0.011 0.011,-0.017 0.001,-10e-4 0.002,-0.002 0.002,-0.003 0.002,-0.002 0.003,-0.004 0.004,-0.006 0.002,-0.003 0.003,-0.005 0.004,-0.006 0,-0.001 0.002,-0.003 0.002,-0.004 0.002,-0.001 0.002,-0.003 0.003,-0.004 -0.012,0.015 -0.05,0.022 -0.068,0.029 -0.001,0 -0.002,0 -0.003,0.001 -0.032,0.012 -0.061,0.028 -0.09,0.047 0,0 -0.001,10e-4 -0.001,10e-4 -0.013,0.009 -0.052,0.044 -0.067,0.038 0,0 -0.004,-10e-4 -0.01,-0.003 C -7.619,1.412 -7.622,1.412 -7.624,1.411 -7.628,1.41 -7.632,1.409 -7.636,1.408 -7.641,1.407 -7.646,1.405 -7.651,1.404 -7.656,1.402 -7.661,1.401 -7.667,1.4 -7.674,1.399 -7.682,1.398 -7.689,1.396 -7.703,1.393 -7.716,1.392 -7.73,1.391 l -0.002,0 c -0.017,-0.001 -0.035,-0.001 -0.054,0 -0.097,0.006 -0.216,0.088 -0.298,0.172 -0.03,0.029 -0.04,0.061 -0.04,0.091 C -8.21,1.634 -8.295,1.612 -8.378,1.59 -8.501,1.561 -9.172,1.411 -9.858,1.257 -9.854,1.209 -9.874,1.158 -9.874,1.131 c 0,-0.047 0.039,-0.083 0.039,-0.083 -0.079,-0.006 -0.218,0.046 -0.218,0.046 0.04,-0.056 0.153,-0.121 0.153,-0.121 0,0 -0.017,-0.062 -0.069,-0.083 -0.051,-0.022 -0.09,-0.013 -0.155,-0.009 -0.065,0.005 -0.12,-0.026 -0.203,-0.03 -0.082,-0.004 -0.182,0.047 -0.182,0.047 0.09,-0.009 0.158,0.052 0.158,0.052 -0.116,0.014 -0.152,0.056 -0.165,0.082 -0.01,0.019 -0.039,0.045 -0.065,0.063 -0.504,-0.112 -0.893,-0.199 -0.893,-0.199 -0.319,-0.043 -0.577,-0.076 -0.577,-0.076 -0.016,-0.019 -0.037,-0.051 -0.01,-0.06 0,0 0.053,-0.018 0.119,-0.022 0.062,-0.005 0.132,0 0.132,0 0,0 -0.255,-0.119 -0.286,-0.128 -0.03,-0.008 -0.07,-0.048 -0.07,-0.048 0,0 -10e-4,-0.001 -0.002,-0.002 -0.001,-0.001 -0.003,-0.002 -0.005,-0.004 0,0 -10e-4,-0.001 -0.003,-0.002 L -12.18,0.549 c 0.017,0.008 0.04,0.016 0.061,0.018 0.038,0.005 0.084,-0.03 0.084,-0.03 0,0 0.04,-0.008 0.08,0.008 0.041,0.014 0.126,0.012 0.121,0.011 -0.026,-0.004 -0.052,-0.022 -0.077,-0.022 0.02,0 0.048,-0.014 0.064,-0.026 0.075,-0.05 -0.019,-0.116 -0.068,-0.14 -0.074,0.009 -0.12,-0.021 -0.12,-0.021 0,0 0.095,0 0.091,-0.027 -0.006,-0.028 -0.048,-0.046 -0.094,-0.056 -0.045,-0.01 -0.081,-0.055 -0.081,-0.055 0.02,-0.003 0.038,-0.023 0.038,-0.023 0,0 -0.048,-0.005 -0.055,-0.01 -0.008,-0.005 -0.033,-0.061 -0.054,-0.086 -0.02,-0.025 -0.09,-0.043 -0.09,-0.043 0.032,-0.018 0.136,-0.03 0.136,-0.03 -0.057,-0.021 -0.124,-0.024 -0.147,-0.025 0.016,-0.01 0.174,-0.111 0.18,-0.114 0,0 0,-0.001 0.001,-0.001 0.033,-0.008 0.067,-0.016 0.1,-0.023 0.38,-0.088 0.769,-0.177 1.159,-0.199 0.235,-0.014 0.473,0.022 0.704,0.063 0.142,0.024 0.283,0.053 0.422,0.088 -0.063,-0.07 -0.132,-0.14 -0.211,-0.189 0.003,0.001 0.008,0.002 0.011,0.003 0.47,0.115 0.94,0.233 1.411,0.344 0.296,0.069 0.595,0.097 0.896,0.103 0.033,0.021 0.075,0.04 0.134,0.042 0.108,0.004 0.211,-0.022 0.284,-0.047 0.121,-0.005 0.242,-0.012 0.363,-0.021 -0.045,0.076 -0.113,0.149 -0.195,0.185 0.108,0 0.216,-0.003 0.324,-0.007 0.607,-0.023 1.218,-0.067 1.815,-0.183 0.147,-0.029 0.294,-0.061 0.441,-0.096 0.001,0.001 0.011,0.003 0.018,0.018 0.007,0.017 0.004,0.054 0.038,0.061 0.034,0.008 0.094,-0.023 0.11,-0.03 0.015,-0.008 0.101,-0.062 0.128,-0.075 0.015,-0.007 0.022,-0.033 0.025,-0.056 0.08,-0.022 0.16,-0.045 0.24,-0.07 0,0 0,0.001 -0.001,0.001 -10e-4,0.001 -0.003,0.002 -0.004,0.004 -0.002,0.001 -0.004,0.003 -0.007,0.004 -0.002,0.002 -0.004,0.003 -0.005,0.004 -0.004,0.004 -0.009,0.007 -0.014,0.01 l -0.002,0.001 c -0.005,0.004 -0.011,0.008 -0.018,0.012 -10e-4,0.002 -0.003,0.002 -0.005,0.004 -0.004,0.003 -0.009,0.006 -0.014,0.009 -0.002,0.002 -0.004,0.004 -0.007,0.005 -0.005,0.003 -0.009,0.006 -0.014,0.009 -0.002,0.002 -0.005,0.003 -0.007,0.004 l -0.02,0.013 c 0.247,0.179 0.595,0.139 0.595,0.139 0,0 0.079,-0.01 0.138,-0.03 0,0 0.08,0.039 0.139,0.033 0.059,-0.006 0.166,-0.062 0.176,-0.096 0.009,-0.034 -0.021,-0.139 -0.04,-0.181 -0.02,-0.042 -0.126,-0.107 -0.186,-0.128 0,0 -0.003,0.006 -0.007,0.013 -0.002,0.003 -0.004,0.005 -0.006,0.009 -0.012,0.018 -0.034,0.044 -0.064,0.065 10e-4,-0.001 0.002,-0.005 0.003,-0.01 10e-4,-0.003 0.002,-0.006 0.003,-0.01 0,-0.003 10e-4,-0.006 0.002,-0.009 10e-4,-0.002 0.002,-0.005 0.002,-0.008 0.003,-0.011 0.006,-0.024 0.008,-0.036 0.002,-0.011 0.004,-0.021 0.005,-0.031 0,0 -0.012,-0.007 -0.031,-0.019 0.356,-0.149 0.676,-0.356 0.982,-0.59 0.178,-0.137 0.361,-0.283 0.562,-0.384 0.013,-0.007 0.025,-0.012 0.038,-0.018 0.033,-0.014 0.067,-0.026 0.101,-0.037 0.201,-0.069 0.41,-0.046 0.606,0.026 l 0.001,0 c 0.006,0.006 0.011,0.01 0.011,0.01 0.013,0.012 0.025,0.025 0.036,0.039 0.01,0.014 0.02,0.027 0.03,0.041 l 0,0.001 c 0.005,0.008 0.01,0.017 0.014,0.026 0.064,0.119 0.068,0.259 0.047,0.387 0,0.005 -0.001,0.011 -0.002,0.017 -0.003,0.017 -0.006,0.032 -0.01,0.048 -0.011,0.047 -0.024,0.091 -0.038,0.132 -0.014,0.041 -0.029,0.078 -0.042,0.108 -0.005,0.01 -0.009,0.019 -0.012,0.028 -0.002,0.005 -0.005,0.009 -0.007,0.013 -0.003,0.008 -0.007,0.016 -0.01,0.022 -0.002,0.004 -0.004,0.008 -0.006,0.011 -0.001,0.003 -0.003,0.006 -0.004,0.009 -0.002,0.003 -0.004,0.007 -0.005,0.009 -0.002,0.003 -0.003,0.005 -0.004,0.007 0.053,-0.045 0.099,-0.088 0.141,-0.131 0.125,-0.116 0.332,-0.329 0.46,-0.584 0.191,-0.383 0.262,-0.636 0.262,-0.706 0,-0.071 -0.162,-0.051 -0.283,-0.04 -0.121,0.009 -0.737,-0.051 -0.949,-0.152 l 10e-4,0 c 0.14,0.033 0.282,0.055 0.412,0.056 0.378,0.005 0.905,-0.104 1.063,-0.245 L 0.128,-2.33 c 0,0 0.114,-0.084 0.088,-0.186 -0.021,-0.086 -0.106,-0.153 -0.251,-0.161 0,0 -0.005,-0.096 0.052,-0.186 0.058,-0.089 0.179,-0.199 0.179,-0.199 0.176,-0.027 0.352,-0.061 0.526,-0.099 0.001,-10e-4 0.003,-10e-4 0.005,-0.002 0.096,-0.032 0.201,-0.046 0.299,-0.071 0.055,-0.015 0.11,-0.029 0.165,-0.044 0.12,-0.033 0.24,-0.068 0.359,-0.106 0.076,-0.025 0.151,-0.05 0.227,-0.077 0.02,-0.007 0.114,-0.055 0.127,-0.045 0.038,0.026 0.249,0.173 0.414,0.205 0.182,0.035 0.353,0.104 0.353,0.308 -0.018,0.214 -0.187,0.436 -0.371,0.584" />
        </g>
        <g
           transform="translate(581.0626,753.8914)"
           id="g3697">
          <path
             inkscape:connector-curvature="0"
             id="path3699"
             style="fill:#98731e;fill-opacity:1;fill-rule:nonzero;stroke:none"
             d="m 0,0 c 0,0 -0.005,-0.095 0.052,-0.185 0.058,-0.089 0.179,-0.199 0.179,-0.199 -0.034,0.005 -0.069,0.01 -0.103,0.015 -0.139,0.02 -0.279,0.036 -0.418,0.048 -0.065,0.006 -0.129,0.01 -0.194,0.015 -0.012,0.001 -0.233,0.01 -0.258,0.011 -0.224,0.006 -0.449,-0.004 -0.672,-0.004 l 0,0 -0.007,0 -0.004,0 c -0.075,0.101 -0.355,0.502 -0.741,0.488 0,0 0.714,0.205 1.243,0.158 C -0.392,0.299 0.102,0.041 0.195,0.233 0.214,0.274 0.198,0.313 0.156,0.35 L 0.163,0.347 c 0,0 0.114,-0.083 0.088,-0.186 C 0.23,0.076 0.145,0.009 0,0" />
        </g>
        <g
           transform="translate(580.8958,752.4684)"
           id="g3701">
          <path
             inkscape:connector-curvature="0"
             id="path3703"
             style="fill:#d29c17;fill-opacity:1;fill-rule:nonzero;stroke:none"
             d="m 0,0 c -0.081,-0.037 -0.164,-0.072 -0.249,-0.101 -0.042,-0.014 -0.084,-0.027 -0.126,-0.039 -0.151,-0.041 -0.302,-0.056 -0.458,-0.066 -0.004,0 -0.009,0 -0.017,0.001 0.002,0.004 0.003,0.008 0.004,0.012 0.001,0.007 0.003,0.014 0.004,0.02 0.009,0.093 -0.091,0.162 -0.091,0.162 0,0 -0.001,10e-4 -0.003,0.002 -0.003,10e-4 -0.005,0.002 -0.009,0.004 0,0.001 -0.002,0.001 -0.003,0.001 -0.064,0.031 -0.129,0.06 -0.194,0.089 -0.113,0.051 -0.226,0.1 -0.341,0.146 -0.021,0.009 -0.043,0.017 -0.066,0.027 -0.016,0.007 -0.032,0.013 -0.048,0.02 -0.263,0.104 -0.53,0.198 -0.8,0.285 -0.162,0.052 -0.325,0.102 -0.489,0.148 -0.026,0.007 -0.052,0.015 -0.078,0.022 -0.276,0.08 -0.578,0.16 -0.906,0.239 -0.216,0.202 -0.428,0.405 -0.656,0.591 1.514,-0.403 2.551,-0.848 3.078,-1.102 0.188,-0.088 0.315,-0.154 0.38,-0.188 0.059,-0.018 0.141,-0.028 0.183,0.031 0.087,0.124 -0.062,0.23 -0.062,0.23 0,0 -1.328,0.702 -3.822,1.215 -0.245,0.174 -0.505,0.32 -0.761,0.478 -0.089,0.054 -0.18,0.112 -0.255,0.183 -0.039,0.036 -0.08,0.081 -0.085,0.137 -0.002,0.01 -0.002,0.021 0,0.032 0,0 0,10e-4 0,0.002 0.001,0.007 0.002,0.013 0.003,0.02 0.001,0.002 0.001,0.005 0.002,0.007 0,10e-4 0.001,0.003 0.001,0.004 0.002,0.005 0.005,0.012 0.006,0.018 10e-4,0.003 0.003,0.006 0.004,0.009 0.023,0.053 0.063,0.1 0.103,0.134 0.006,0.004 0.011,0.01 0.018,0.016 0.004,0.003 0.009,0.006 0.013,0.01 0.005,0.005 0.01,0.009 0.016,0.014 0.006,0.004 0.012,0.01 0.017,0.014 l 0.001,10e-4 c 0.002,0.001 0.004,0.003 0.006,0.005 10e-4,10e-4 0.003,0.002 0.004,0.003 0.001,0 0.001,0.001 0.001,0.001 0.002,0.002 0.004,0.003 0.005,0.004 0.001,10e-4 0.002,0.002 0.002,0.002 0,0 0.001,0 0.003,0 l 0.001,0 c 0,10e-4 0,10e-4 0,10e-4 0.003,0.001 0.009,0.002 0.016,0.003 0.006,0.002 0.022,0.006 0.022,0.006 0.107,0.027 0.22,0.054 0.334,0.072 0.039,0.007 0.077,0.011 0.115,0.016 C -5.135,2.807 -4.952,2.609 -4.952,2.609 -5.039,2.602 -5.151,2.633 -5.151,2.633 -4.99,2.417 -4.544,2.145 -4.197,2.076 -3.85,2.009 -3.535,2.021 -3.535,2.021 -3.584,1.996 -3.664,1.965 -3.664,1.965 c 0,0 0.135,0.006 0.321,-0.031 0.024,-0.004 0.05,-0.011 0.078,-0.018 0.124,-0.032 0.276,-0.083 0.365,-0.115 0.011,-0.003 0.021,-0.006 0.029,-0.009 10e-4,0 10e-4,-0.001 0.002,-0.001 L -2.868,1.79 c 0.027,-0.018 0.054,-0.036 0.08,-0.054 0.155,-0.103 0.302,-0.217 0.443,-0.339 0.041,-0.035 0.081,-0.07 0.12,-0.106 0.064,-0.059 0.122,-0.122 0.184,-0.181 -0.005,0.005 -0.006,0.029 -0.008,0.036 -0.004,0.013 -0.009,0.027 -0.014,0.041 -0.012,0.028 -0.022,0.057 -0.034,0.084 -0.024,0.056 -0.05,0.111 -0.079,0.165 -0.058,0.107 -0.124,0.209 -0.197,0.308 -0.041,0.054 -0.084,0.109 -0.128,0.162 -0.033,0.037 -0.067,0.074 -0.101,0.111 -0.027,0.03 -0.06,0.084 -0.1,0.097 0,0 0,0 -10e-4,0 -0.001,0.001 -0.002,0.001 -0.002,0.001 0.033,-0.001 0.064,-0.003 0.093,-0.007 0.01,-10e-4 0.02,-0.002 0.029,-0.004 0.013,-10e-4 0.025,-0.003 0.038,-0.006 0.033,-0.006 0.063,-0.014 0.092,-0.022 0.011,-0.004 0.021,-0.007 0.032,-0.011 0.01,-0.004 0.02,-0.007 0.03,-0.011 0.02,-0.008 0.039,-0.017 0.056,-0.026 C -2.326,2.024 -2.317,2.019 -2.308,2.014 -2.3,2.009 -2.292,2.004 -2.284,2 -2.276,1.994 -2.268,1.99 -2.26,1.984 -2.253,1.979 -2.246,1.974 -2.238,1.969 -2.234,1.966 -2.23,1.963 -2.226,1.959 -2.217,1.953 -2.209,1.946 -2.201,1.939 -2.192,1.932 -2.184,1.924 -2.175,1.916 -2.17,1.911 -2.165,1.907 -2.161,1.902 -2.123,1.864 -2.094,1.824 -2.072,1.787 -2.068,1.78 -2.063,1.773 -2.06,1.765 -2.031,1.715 -2.016,1.671 -2.007,1.644 -2.006,1.64 -2.005,1.636 -2.004,1.633 -2,1.62 -1.999,1.612 -1.999,1.612 -1.613,1.626 -1.332,1.225 -1.258,1.125 l 0.004,0 c -10e-4,0 -0.002,0 -0.003,-10e-4 10e-4,-0.001 10e-4,-0.001 0.002,-0.001 0.062,-0.033 0.123,-0.068 0.183,-0.103 0.011,-0.006 0.022,-0.013 0.033,-0.019 0.015,-0.009 0.03,-0.018 0.045,-0.027 0.053,-0.031 0.106,-0.062 0.158,-0.096 0.14,-0.087 0.288,-0.182 0.407,-0.3 C -0.451,0.579 -0.473,0.576 -0.494,0.57 -0.516,0.565 -0.537,0.559 -0.557,0.553 -0.409,0.449 -0.274,0.326 -0.154,0.191 -0.138,0.174 -0.004,0 0,0" />
        </g>
        <g
           transform="translate(579.2147,747.9333)"
           id="g3705">
          <path
             inkscape:connector-curvature="0"
             id="path3707"
             style="fill:#007d9a;fill-opacity:1;fill-rule:nonzero;stroke:none"
             d="M 0,0 -0.244,0.159 -0.276,0.51 C -0.276,0.51 0.07,0.283 0,0" />
        </g>
        <g
           transform="translate(578.3893,748.7039)"
           id="g3709">
          <path
             inkscape:connector-curvature="0"
             id="path3711"
             style="fill:#007d9a;fill-opacity:1;fill-rule:nonzero;stroke:none"
             d="m 0,0 c 0,0 -0.195,-0.757 -1.102,-1.245 0,0 -0.691,0.235 -1.069,1.103 -0.306,0.703 -0.014,2.018 -0.424,2.762 -0.271,0.494 -0.752,0.609 -0.752,0.609 0,0 0.299,0.172 0.923,-0.03 1.026,-0.332 1.138,-1.674 1.155,-1.95 0.032,-0.541 0.125,-1.241 0.481,-1.431 0,0 -0.21,0.29 -0.216,0.976 -0.019,2.039 -0.724,2.327 -0.724,2.327 0,0 0.861,-0.142 1.093,-0.871 C -0.403,1.521 -0.776,0.402 0,0" />
        </g>
        <g
           transform="translate(582.8986,752.8087)"
           id="g3713">
          <path
             inkscape:connector-curvature="0"
             id="path3715"
             style="fill:#007d9a;fill-opacity:1;fill-rule:nonzero;stroke:none"
             d="m 0,0 c -0.03,-0.273 -0.455,-0.666 -0.455,-0.666 -0.06,0.151 -0.287,0.514 -0.287,0.514 0,0 0.06,0.152 -0.167,0.349 -0.227,0.197 -0.849,0.197 -0.849,0.197 0,0 0.168,0.095 0.379,0.076 C -0.823,0.419 0,0 0,0" />
        </g>
        <g
           transform="translate(569.0005,757.0089)"
           id="g3717">
          <path
             inkscape:connector-curvature="0"
             id="path3719"
             style="fill:#ffffff;fill-opacity:1;fill-rule:nonzero;stroke:none"
             d="m 0,0 c 0.007,-0.012 0.002,-0.025 -0.006,-0.031 -0.001,0 -0.001,-0.001 -0.003,-0.001 -0.005,-0.004 -0.02,-0.005 -0.039,-0.007 -0.028,0.003 -0.094,0.017 -0.123,0.012 0,0 0.018,-0.014 0.032,-0.027 0,0 -0.072,-0.028 -0.088,-0.057 0,0 -0.06,0.006 -0.103,-0.009 -0.025,-0.009 -0.036,-0.02 -0.049,-0.029 -0.008,-0.003 -0.018,-0.006 -0.029,-0.011 -0.003,0 -0.005,-0.001 -0.008,-0.001 -0.04,-0.002 -0.073,0.018 -0.073,0.018 l 0.015,-0.03 c 0,0 -0.115,0 -0.141,-0.039 -0.094,0.047 -0.189,0.091 -0.285,0.134 -0.091,0.039 -0.182,0.076 -0.274,0.112 -0.186,0.072 -0.375,0.136 -0.565,0.193 -0.057,0.017 -0.113,0.033 -0.17,0.049 -0.042,0.011 -0.084,0.023 -0.127,0.032 l 0.003,0 c 0.078,0 0.154,0.002 0.232,0.007 0.52,0.032 1.042,0.02 1.562,0.048 0.095,0.005 0.19,0.01 0.285,0.017 C 0.03,0.361 0.009,0.329 0.036,0.32 c 0,0 0.053,-0.018 0.119,-0.022 0.063,-0.005 0.132,0 0.132,0 0,0 -0.255,-0.119 -0.286,-0.128 -0.03,-0.008 -0.07,-0.048 -0.07,-0.048 0,0 -0.001,-0.001 -0.002,-0.002 -0.001,-0.001 -0.003,-0.002 -0.005,-0.004 0,0 -0.001,-0.001 -0.002,-0.002 L -0.083,0.109 C -0.098,0.104 -0.109,0.098 -0.115,0.095 -0.128,0.087 -0.176,0.084 -0.176,0.084 c 0,0 0.058,-0.024 0.083,-0.02 0,0 0,-0.001 0.001,-0.002 0.001,-0.004 0.003,-0.02 0.027,-0.031 C -0.044,0.022 -0.014,0.013 0,0" />
        </g>
        <g
           transform="translate(571.2034,755.7018)"
           id="g3721">
          <path
             inkscape:connector-curvature="0"
             id="path3723"
             style="fill:#ffffff;fill-opacity:1;fill-rule:nonzero;stroke:none"
             d="m 0,0 c -0.013,-0.007 -0.027,-0.014 -0.041,-0.021 -0.09,-0.057 -0.182,-0.109 -0.278,-0.154 -0.002,0 -0.003,-0.001 -0.005,-0.002 -0.032,-0.015 -0.063,-0.03 -0.096,-0.044 0,0 -0.001,0 -0.002,-0.001 -0.001,0 -0.001,0 -0.003,-0.001 -0.087,-0.038 -0.176,-0.073 -0.265,-0.104 -0.07,-0.025 -0.141,-0.048 -0.214,-0.068 -0.511,-0.15 -0.822,-0.146 -0.822,-0.146 0.034,-0.015 0.081,-0.03 0.124,-0.039 0.153,-0.035 0.522,-0.067 0.539,-0.072 -0.002,-0.001 -0.006,-0.003 -0.012,-0.007 -0.003,-0.001 -0.005,-0.003 -0.009,-0.004 -0.383,-0.163 -0.796,-0.235 -1.211,-0.218 -0.757,0.031 -1.163,0.242 -1.177,0.257 0,0 0.213,0.034 0.336,0.076 0,0 -0.562,0.185 -0.775,0.322 0,0 0.23,-0.005 0.302,-0.007 -0.082,0.066 -0.157,0.131 -0.227,0.192 C -4.237,0.307 -4.502,0.762 -4.453,0.967 -4.609,1.175 -4.83,1.23 -4.83,1.23 -4.156,1.292 -3.532,1.033 -2.872,0.621 -2.596,0.449 -2.384,0.251 -2.138,0.094 -2.3,0.067 -2.657,0.046 -3.334,0.165 c 0,0 0.392,-0.249 1.132,-0.342 0.45,-0.056 0.89,-0.044 1.192,-0.022 C -0.658,-0.174 -0.326,-0.13 0,0" />
        </g>
        <g
           transform="translate(584.5807,752.4892)"
           id="g3725">
          <path
             inkscape:connector-curvature="0"
             id="path3727"
             style="fill:#ffffff;fill-opacity:1;fill-rule:nonzero;stroke:none"
             d="m 0,0 c -0.008,-0.086 -0.025,-0.178 -0.054,-0.275 -0.03,-0.101 -0.053,-0.21 -0.174,-0.217 -0.088,-0.005 -0.175,0.005 -0.263,0.01 -0.051,0.003 -0.153,0.018 -0.182,-0.039 -0.087,-0.172 0.255,-0.163 0.344,-0.166 0.014,-10e-4 0.027,-10e-4 0.04,0 -0.362,-0.399 -0.948,-0.505 -0.984,-0.511 -0.002,-0.001 -0.002,-0.001 -0.002,-0.001 -0.005,0.007 -0.01,0.014 -0.016,0.023 -0.095,0.119 -0.381,0.366 -0.965,0.431 l -0.004,0 c 0.028,0.042 0.06,0.083 0.095,0.123 0.242,0.277 0.621,0.51 1.034,0.711 0.576,0.279 0.795,0.828 0.795,0.828 0,0 0.079,-0.067 0.161,-0.194 C -0.2,0.65 -0.262,0.538 -0.414,0.427 c 0,0 -0.104,-0.062 -0.066,-0.133 0.037,-0.072 0.118,-0.048 0.16,-0.024 0.029,0.016 0.108,0.066 0.171,0.175 0.029,0.043 0.05,0.082 0.062,0.111 C -0.049,0.469 -0.018,0.367 -0.004,0.249 -0.003,0.235 -0.05,0.197 -0.059,0.189 -0.092,0.157 -0.127,0.13 -0.165,0.105 -0.269,0.034 -0.382,-0.009 -0.498,-0.057 -0.539,-0.073 -0.604,-0.113 -0.612,-0.16 c -0.014,-0.077 0.091,-0.093 0.145,-0.084 0.004,0 0.008,0.001 0.014,0.002 C -0.374,-0.228 -0.134,-0.17 0,0" />
        </g>
        <g
           transform="translate(579.8638,747.3759)"
           id="g3729">
          <path
             inkscape:connector-curvature="0"
             id="path3731"
             style="fill:#ffffff;fill-opacity:1;fill-rule:nonzero;stroke:none"
             d="M 0,0 C -0.184,-0.013 -0.312,0.127 -0.312,0.127 -0.777,0.19 -1.305,0.092 -1.305,0.092 c 0,0 -0.272,-0.288 -0.658,-0.337 -0.387,-0.05 -0.382,0.124 -0.362,0.171 0.021,0.049 0.201,0.136 0.53,0.478 0.329,0.342 0.615,1.042 0.615,1.042 C -1.103,1.219 -1.072,0.975 -1.097,0.735 -1.104,0.666 -1.116,0.597 -1.132,0.529 -1.16,0.419 -1.198,0.314 -1.249,0.212 c 0.063,0.127 0.202,0.23 0.323,0.302 0.041,-0.051 0.076,-0.106 0.11,-0.162 0.006,-0.01 0.067,-0.094 0.061,-0.106 0.06,0.112 0.362,0.316 0.362,0.316 C -0.321,0.491 -0.261,0.347 -0.261,0.347 -0.014,0.529 0.537,1.41 0.537,1.41 0.565,0.731 0.184,0.013 0,0" />
        </g>
        <g
           transform="translate(583.0487,750.9508)"
           id="g3733">
          <path
             inkscape:connector-curvature="0"
             id="path3735"
             style="fill:#ffffff;fill-opacity:1;fill-rule:nonzero;stroke:none"
             d="m 0,0 c -0.045,-0.198 -0.729,-0.927 -1.088,-1.062 0,0 0.307,0.492 0.402,0.998 -0.086,-0.073 -0.22,-0.169 -0.37,-0.218 0,0 0.011,0.248 -0.054,0.366 0,0 -0.189,-0.191 -0.402,-0.323 0,0 -0.132,0.212 -0.165,0.369 -0.153,-0.233 -0.405,-0.557 -0.709,-0.714 0,0 0.017,0.214 -0.037,0.519 0.286,0.069 0.545,0.152 0.741,0.221 0.133,0.074 0.357,0.145 0.41,0.149 0.007,0.002 0.188,0.039 0.169,-0.093 0,0 0.224,0.173 0.405,0.112 0.06,-0.021 0.092,-0.052 0.108,-0.087 0.089,0.057 0.248,0.142 0.378,0.112 C -0.022,0.306 0.043,0.198 0,0" />
        </g>
        <g
           transform="translate(580.6112,750.8823)"
           id="g3737">
          <path
             inkscape:connector-curvature="0"
             id="path3739"
             style="fill:#ffffff;fill-opacity:1;fill-rule:nonzero;stroke:none"
             d="m 0,0 c -0.007,-0.02 -0.018,-0.052 -0.033,-0.09 -0.144,-0.258 -0.613,-0.976 -1.507,-1.227 0,0 0.551,0.56 0.49,1.181 C -0.701,-0.14 -0.333,-0.079 0,0" />
        </g>
        <g
           transform="translate(573.2646,753.9482)"
           id="g3741">
          <path
             inkscape:connector-curvature="0"
             id="path3743"
             style="fill:#98731e;fill-opacity:1;fill-rule:nonzero;stroke:none"
             d="m 0,0 c -0.044,-0.067 -0.221,-0.09 -0.316,-0.078 0,0 -0.178,-0.08 -0.279,-0.067 -0.101,0.014 -0.285,0.083 -0.285,0.083 0,0 0.056,0.029 0.112,0.038 0,0 -0.034,0.068 -0.117,0.146 -0.083,0.079 -0.189,0.175 -0.208,0.239 0,0 0.109,0.046 0.187,0.065 0,0 -0.131,-0.004 -0.204,0.028 0,0 -0.005,0.137 0.022,0.193 0.028,0.055 0.046,0.101 0.046,0.129 0,0.027 -0.005,0.025 0.036,0.039 0.042,0.013 0.241,0.048 0.241,0.048 0,0 -0.019,0.045 -0.144,0.064 0,0 0.111,0.041 0.236,0.023 0.124,-0.018 0.206,-0.165 0.248,-0.244 0.041,-0.077 0.119,-0.165 0.17,-0.202 0.049,-0.035 0.224,0.005 0.24,0.009 C -0.028,0.501 -0.139,0.395 -0.211,0.4 c 0,0 0.039,-0.14 0.103,-0.195 C -0.044,0.15 0.044,0.067 0,0 M -1.149,1.272 C -1.21,1.201 -1.351,1.225 -1.351,1.225 c 0,0 -0.142,-0.105 -0.297,-0.082 -0.155,0.023 -0.279,0.082 -0.279,0.082 0,0 -0.142,0.032 -0.219,0.074 0,0 0.191,-0.019 0.343,-0.01 0,0 -0.163,0.049 -0.21,0.107 0,0 0.055,0.035 0.046,0.085 -0.011,0.051 -0.026,0.121 -0.003,0.162 0,0 0.141,-0.068 0.212,-0.086 0,0 -0.091,0.076 -0.124,0.144 0,0 0.061,0 0.117,0.045 0.055,0.046 0.114,0.127 0.217,0.126 0,0 0.048,0.048 0.096,0.059 0.047,0.01 0.088,0.01 0.088,0.01 0,0 0.056,-0.025 0.151,-0.043 0,0 -0.128,0.086 -0.159,0.123 0,0 0.058,-0.02 0.106,-0.017 0,0 0.053,0.015 0.139,-0.008 0.086,-0.022 0.144,-0.088 0.144,-0.144 0,-0.055 -0.078,-0.128 -0.05,-0.176 0.025,-0.044 0.203,-0.089 0.229,-0.096 -0.02,0.002 -0.135,0.011 -0.204,0.003 0,0 -0.043,-0.043 -0.091,-0.046 C -1.147,1.534 -1.157,1.499 -1.147,1.471 -1.137,1.444 -1.089,1.342 -1.149,1.272 M -2.163,0.515 C -2.203,0.488 -2.207,0.46 -2.238,0.419 -2.27,0.379 -2.464,0.37 -2.464,0.37 c -0.117,0.041 -0.269,0.041 -0.269,0.041 0.076,-0.023 0.179,-0.055 0.179,-0.055 0,0 -0.108,-0.018 -0.198,-0.009 -0.09,0.009 -0.14,0.109 -0.189,0.176 -0.05,0.068 0.009,0.171 0.009,0.171 -0.027,0.019 -0.059,0.028 -0.059,0.028 0.099,0.009 0.284,-0.005 0.284,-0.005 -0.085,0.027 -0.182,0.046 -0.182,0.046 0,0 0.011,0.048 0.033,0.098 0.023,0.049 0.131,0.036 0.176,0.032 0.045,-0.005 0.104,0.049 0.136,0.06 0.033,0.011 0.135,-0.024 0.188,-0.043 0.054,-0.017 0.059,-0.058 0.059,-0.058 -0.049,0.005 -0.122,-0.009 -0.122,-0.009 l 0.176,-0.049 c 0,0 0.117,-0.059 0.135,-0.117 C -2.09,0.618 -2.121,0.541 -2.163,0.515 m -0.716,-1.379 c -0.057,-0.045 -0.202,-0.165 -0.278,-0.253 -0.076,-0.088 -0.157,-0.183 -0.328,-0.139 -0.17,0.044 -0.196,0.291 -0.196,0.291 0.044,0.062 0.247,0.157 0.247,0.157 -0.108,0 -0.244,-0.024 -0.244,-0.024 0.003,0.051 0.01,0.201 0.01,0.322 0,0.119 -0.063,0.233 -0.063,0.233 0.044,0.044 0.152,0.101 0.152,0.101 -0.209,-0.032 -0.317,-0.007 -0.317,-0.007 0.057,0 0.14,0.045 0.14,0.045 -0.013,0.062 0.012,0.151 0.043,0.183 0.032,0.031 0.127,0.151 0.171,0.183 C -3.498,0.259 -3.384,0.24 -3.27,0.221 -3.157,0.203 -3.138,0.133 -3.138,0.133 -3.081,0.12 -3.024,0.127 -3.024,0.127 -3.094,0.076 -3.27,0.019 -3.27,0.019 c 0.082,-0.013 0.151,-0.013 0.151,-0.013 0,0 0.051,-0.182 0.076,-0.277 0.011,-0.041 0.032,-0.075 0.059,-0.107 -0.049,-0.03 -0.134,-0.076 -0.204,-0.101 0,0 0.122,0.004 0.252,0.048 0.025,-0.025 0.053,-0.051 0.082,-0.079 0.089,-0.089 0.032,-0.31 -0.025,-0.354 m 3.327,2.067 c 0.01,0.023 0.023,0.04 0.056,0.04 0.032,0 0.101,-0.01 0.123,0.008 C 0.65,1.268 0.655,1.314 0.696,1.339 0.736,1.365 0.809,1.344 0.875,1.327 0.941,1.309 1.021,1.279 1.021,1.279 0.946,1.274 0.867,1.274 0.867,1.274 0.961,1.251 1.052,1.205 1.138,1.152 1.225,1.098 1.191,1.046 1.264,1.018 1.337,0.991 1.309,0.965 1.309,0.965 1.223,0.983 1.075,0.996 1.075,0.996 1.186,0.953 1.269,0.92 1.269,0.92 1.269,0.92 1.254,0.907 1.234,0.905 1.213,0.902 1.178,0.925 1.148,0.92 1.118,0.915 1.094,0.864 1.062,0.836 1.029,0.809 0.986,0.817 0.986,0.817 c 0,0 -0.01,-0.041 -0.042,-0.066 C 0.911,0.726 0.857,0.738 0.789,0.748 0.721,0.759 0.698,0.902 0.698,0.902 0.627,0.965 0.519,1.023 0.519,1.023 0.565,1.021 0.623,1.011 0.623,1.011 0.6,1.049 0.466,1.112 0.466,1.112 0.443,1.122 0.375,1.16 0.375,1.16 0.443,1.154 0.652,1.107 0.652,1.107 0.584,1.15 0.448,1.203 0.448,1.203 m 0.886,1.086 c 0.043,0.023 0.091,0.026 0.108,0.057 0.018,0.032 0.021,0.071 0.021,0.071 0,0 0.14,-0.027 0.201,-0.041 0,0 -0.055,0.082 -0.09,0.096 0,0 0.012,0.032 0.058,0.053 0.046,0.021 0.125,0.042 0.173,0.08 0.048,0.037 0.102,0.026 0.137,0.019 0.035,-0.007 0.104,-0.05 0.186,-0.074 0,0 -0.043,0.035 -0.057,0.065 0,0 0.088,-0.005 0.133,-0.025 C 2.248,2.571 2.271,2.525 2.25,2.491 2.229,2.458 2.202,2.454 2.2,2.431 2.198,2.408 2.26,2.367 2.287,2.344 c 0,0 -0.039,0.013 -0.085,0.023 0,0 0.05,-0.055 0.041,-0.112 C 2.234,2.199 2.215,2.188 2.198,2.151 2.183,2.114 2.135,2.082 2.085,2.059 c 0,0 0.065,-0.028 0.132,-0.067 -0.016,0.002 -0.142,0.018 -0.178,0.022 0,0 -0.071,-0.042 -0.103,-0.09 C 1.904,1.876 1.848,1.834 1.766,1.83 c 0,0 -0.103,0.031 -0.143,0.04 0,0 0.053,-0.046 0.074,-0.069 0,0 -0.058,-0.023 -0.115,-0.011 -0.057,0.012 -0.186,0.066 -0.225,0.077 0,0 0.094,-0.006 0.122,-0.01 0,0 -0.187,0.151 -0.215,0.184 0,0 0.08,-0.014 0.117,-0.022 C 1.368,2.026 1.262,2.091 1.258,2.176 1.256,2.228 1.292,2.266 1.334,2.289 M 3.761,-0.508 C 3.545,-0.306 3.333,-0.103 3.105,0.083 2.584,0.222 2.008,0.356 1.376,0.475 0.981,0.55 0.615,0.61 0.276,0.657 0.622,0.624 0.995,0.581 1.399,0.523 1.925,0.448 2.412,0.361 2.863,0.269 2.617,0.443 2.357,0.589 2.101,0.747 2.013,0.802 1.922,0.859 1.846,0.93 1.807,0.966 1.766,1.012 1.761,1.067 c -10e-4,0.011 -10e-4,0.022 0,0.032 0,0 0,0.002 0,0.002 0.001,0.007 0.002,0.014 0.003,0.02 10e-4,0.003 10e-4,0.005 0.002,0.007 0,0.001 10e-4,0.003 10e-4,0.004 C 1.77,1.138 1.772,1.145 1.773,1.15 1.774,1.153 1.776,1.156 1.777,1.16 1.8,1.212 1.84,1.259 1.88,1.293 c 0.006,0.005 0.011,0.01 0.018,0.016 0.004,0.003 0.009,0.006 0.013,0.01 0.006,0.005 0.011,0.009 0.016,0.014 0.006,0.004 0.012,0.01 0.017,0.014 l 0.001,0.001 c 0.002,10e-4 0.004,0.003 0.007,0.005 0,0.001 0.002,0.002 0.003,0.003 C 1.956,1.357 1.956,1.357 1.956,1.357 1.958,1.359 1.96,1.36 1.961,1.361 L 1.975,1.39 C 2.323,2.014 3.193,2.173 3.193,2.173 3.103,2.299 2.996,2.368 2.996,2.368 3.114,2.409 3.26,2.383 3.317,2.371 3.316,2.373 3.316,2.376 3.315,2.379 c -0.018,0.075 -0.01,0.12 0.009,0.135 0,0 0.127,-0.005 0.165,-0.018 C 3.475,2.502 3.418,2.531 3.381,2.561 3.234,2.596 3.087,2.628 2.94,2.656 2.343,2.772 1.732,2.817 1.126,2.839 1.017,2.844 0.909,2.846 0.8,2.846 0.883,2.811 0.95,2.738 0.996,2.661 0.875,2.67 0.754,2.677 0.633,2.683 0.689,2.663 0.728,2.644 0.738,2.64 c 0,0 -0.101,0.015 -0.169,0.016 0,0 0.034,-0.018 0.053,-0.039 0,0 0.004,-0.04 -0.002,-0.063 C 0.615,2.531 0.603,2.497 0.616,2.46 0.629,2.422 0.668,2.337 0.673,2.307 c 0,0 -0.116,0.009 -0.184,0.011 0,0 0.188,-0.091 0.245,-0.126 0,0 -0.038,0.002 -0.063,0 0,0 -0.064,-0.038 -0.077,-0.062 C 0.58,2.105 0.594,1.994 0.531,1.945 0.469,1.895 0.385,1.907 0.359,1.876 0.332,1.846 0.374,1.804 0.374,1.804 c 0,0 -0.136,0.031 -0.177,0.035 0,0 0.064,-0.066 0.106,-0.096 0,0 -0.054,0.012 -0.109,0.005 C 0.14,1.74 -0.031,1.727 -0.122,1.799 -0.213,1.871 -0.166,1.928 -0.145,1.95 c 0.021,0.023 0.026,0.051 -0.034,0.121 -0.06,0.07 -0.051,0.07 -0.039,0.108 0,0 0.211,-10e-4 0.287,-0.021 0,0 -0.206,0.116 -0.287,0.134 0,0 0.003,0.026 0.049,0.06 0.045,0.034 0.106,0.061 0.126,0.147 0,0 0.153,-0.03 0.24,-0.043 -0.095,0.036 -0.139,0.089 -0.294,0.133 0,0 0.108,0.005 0.149,0.009 0,0 0.074,0.013 0.109,0.045 0.014,0.013 0.031,0.03 0.054,0.045 C -0.086,2.682 -0.385,2.654 -0.68,2.584 -1.152,2.473 -1.622,2.356 -2.092,2.241 -2.096,2.24 -2.1,2.239 -2.104,2.238 -2.024,2.287 -1.955,2.357 -1.892,2.426 -2.031,2.392 -2.172,2.363 -2.314,2.339 -2.545,2.298 -2.783,2.262 -3.018,2.276 c -0.39,0.022 -0.779,0.111 -1.159,0.198 -0.033,0.008 -0.067,0.016 -0.1,0.024 0.008,-0.006 0.137,-0.086 0.181,-0.112 0.187,-0.111 0.38,-0.211 0.584,-0.287 0.062,-0.02 0.123,-0.044 0.185,-0.063 0.069,-0.022 0.139,-0.04 0.209,-0.056 0.065,-0.015 0.13,-0.026 0.195,-0.036 0.116,-0.017 0.234,-0.024 0.351,-0.021 0.118,0.003 0.236,0.019 0.352,0.04 0.135,0.025 0.269,0.054 0.401,0.093 0.022,0.005 0.043,0.012 0.065,0.019 0.182,0.055 0.358,0.136 0.528,0.223 0.044,0.022 0.088,0.044 0.132,0.068 0.001,0 0.003,10e-4 0.003,0.002 10e-4,0 0.002,0 0.003,0.001 C -1.09,2.366 -1.404,2.106 -1.557,2.012 -1.591,1.991 -1.625,1.971 -1.659,1.951 -1.715,1.919 -1.773,1.889 -1.83,1.86 -1.879,1.834 -1.928,1.811 -1.978,1.789 -2.004,1.777 -2.03,1.766 -2.057,1.756 -2.059,1.755 -2.06,1.754 -2.061,1.754 -2.075,1.747 -2.088,1.739 -2.102,1.732 -2.192,1.676 -2.284,1.624 -2.381,1.579 -2.382,1.578 -2.383,1.578 -2.385,1.577 -2.417,1.562 -2.448,1.547 -2.481,1.533 -2.481,1.532 -2.482,1.532 -2.483,1.532 -2.484,1.531 -2.485,1.531 -2.486,1.531 -2.573,1.493 -2.663,1.458 -2.751,1.426 -2.822,1.402 -2.893,1.378 -2.965,1.358 -3.476,1.209 -3.787,1.212 -3.787,1.212 -3.753,1.197 -3.706,1.183 -3.663,1.173 -3.51,1.139 -3.142,1.106 -3.124,1.101 -3.123,1.102 -3.122,1.102 -3.121,1.102 -3.122,1.101 -3.132,1.091 -3.152,1.073 -3.382,0.862 -3.675,0.735 -3.974,0.653 -4.135,0.609 -4.3,0.577 -4.466,0.556 -4.491,0.553 -4.517,0.551 -4.543,0.548 -4.553,0.544 -4.56,0.54 -4.563,0.534 -4.645,0.279 -4.647,0.004 -4.633,-0.26 c 0.008,-0.142 0.025,-0.284 0.051,-0.425 0,0 0,-0.001 0,-0.002 0.018,0.019 0.04,0.038 0.065,0.059 0,0 0.076,0.063 0.208,0.082 0,0 -10e-4,0.002 -0.005,0.005 -0.002,0.002 -0.004,0.004 -0.006,0.005 -0.028,0.025 -0.072,0.036 -0.11,0.042 -0.01,0.003 -0.02,0.004 -0.029,0.005 0.003,0 0.011,0.002 0.025,0.004 0.083,0.017 0.181,0.032 0.26,0.015 0.002,0 0.004,0 0.006,-0.001 0.049,-0.011 0.092,-0.043 0.118,-0.085 0.002,-0.005 0.005,-0.009 0.007,-0.013 0.003,-0.006 0.005,-0.012 0.007,-0.017 10e-4,-0.002 10e-4,-0.003 0.002,-0.005 0.002,-0.005 0.004,-0.011 0.005,-0.017 0.002,-0.006 0.003,-0.012 0.004,-0.018 0,-0.001 0,-0.002 0,-0.003 0.001,-0.006 0.002,-0.012 0.002,-0.018 0,-0.021 -0.005,-0.043 -0.014,-0.063 -0.032,-0.07 -0.089,-0.203 -0.089,-0.253 0,-0.023 -0.118,-0.105 -0.15,-0.138 -0.002,-0.002 -0.004,-0.004 -0.005,-0.005 0.003,0 0.007,0 0.01,0 0.002,0.001 0.005,0.001 0.007,0.001 0.036,0.003 0.07,0.01 0.105,0.013 0.019,0.002 0.037,0.003 0.051,0.003 l 0.002,0 c 0,0 0.081,-0.151 0.145,-0.202 0.063,-0.05 0.119,-0.157 0.139,-0.239 0,0 10e-4,-10e-4 0.002,-10e-4 0.007,0 0.017,0.002 0.026,0.006 10e-4,0 0.002,10e-4 0.003,10e-4 0.003,0.001 0.007,0.003 0.011,0.005 0.011,0.004 0.02,0.009 0.024,0.011 0.011,0.004 0.023,0.01 0.035,0.015 0.01,0.004 0.022,0.011 0.034,0.017 10e-4,0 0.002,10e-4 0.003,0.002 0,0 -0.119,-0.176 -0.258,-0.259 0.009,-10e-4 0.12,-0.018 0.175,0.006 0,0 10e-4,0.001 10e-4,0.001 0,0 0.01,-0.21 -0.195,-0.436 -0.014,-0.016 0.152,-0.213 0.254,-0.328 0.004,-0.005 0.008,-0.009 0.012,-0.014 0.003,-0.003 0.007,-0.007 0.009,-0.01 0.007,-0.009 0.015,-0.017 0.021,-0.024 0.006,-0.008 0.011,-0.013 0.014,-0.015 0.007,0.006 0.063,0.054 0.092,0.078 0.049,0.039 0.101,0.076 0.154,0.112 0.05,0.034 0.164,0.095 0.164,0.095 10e-4,0 0.002,0 0.002,10e-4 0.006,0.052 0.023,0.082 0.038,0.1 0.019,0.024 0.048,0.029 0.072,0.043 0.01,0.006 0.021,0.012 0.032,0.024 0.003,0.003 0.007,0.008 0.011,0.013 0.002,0.003 0.004,0.006 0.006,0.01 0.003,0.004 0.005,0.009 0.007,0.014 0.002,0.004 0.004,0.008 0.005,0.012 0.006,0.014 0.011,0.029 0.016,0.048 0.009,0.032 0.035,0.062 0.035,0.062 l -10e-4,0 c -0.037,0.014 -0.074,0.025 -0.111,0.037 -0.059,0.018 -0.119,0.033 -0.179,0.047 -0.04,0.01 -0.081,0.019 -0.121,0.027 0.314,0.208 0.661,0.362 1.018,0.483 0.119,0.04 0.372,0.112 0.372,0.112 -0.036,0.033 -0.071,0.072 -0.088,0.108 -0.045,0.088 0.031,0.221 0.062,0.272 0.032,0.05 -0.025,0.081 -0.025,0.081 0.051,0.039 0.088,0.102 0.088,0.102 -0.001,0 -0.001,-0.001 -0.002,-0.001 -0.113,-0.025 -0.218,-0.031 -0.218,-0.031 l -10e-4,0.001 c -0.063,0.05 -0.087,0.157 -0.075,0.214 0.012,0.057 0.038,0.145 0.038,0.145 l -0.002,0 c -0.021,-0.002 -0.044,0 -0.066,0.003 -0.036,0.004 -0.068,0.013 -0.077,0.015 l 0,0.001 c 0.239,0.031 0.359,0.12 0.359,0.12 -0.001,0 -0.002,-0.001 -0.003,-0.001 -0.063,-0.012 -0.173,-0.018 -0.173,-0.018 l 0,0 c 10e-4,0.007 0.009,0.071 0.056,0.103 0.018,0.012 0.055,0.012 0.1,0.006 0.025,-0.004 0.052,-0.009 0.08,-0.016 0.013,-0.003 0.026,-0.006 0.039,-0.01 0.048,-0.013 0.094,-0.027 0.127,-0.038 0.001,0 0.001,-0.001 0.002,-0.001 0.095,-0.031 0.139,-0.157 0.139,-0.157 0.026,-0.082 0.066,-0.141 0.113,-0.186 0.001,0 0.002,-0.001 0.002,-0.001 0.022,-0.019 0.045,-0.036 0.07,-0.05 0.009,-0.006 0.019,-0.011 0.03,-0.015 0.01,-0.005 0.02,-0.01 0.03,-0.014 0.03,-0.013 0.061,-0.023 0.091,-0.03 0.019,-0.006 0.039,-0.01 0.057,-0.014 0.01,-0.002 0.019,-0.004 0.028,-0.006 0.017,-0.004 0.032,-0.01 0.046,-0.019 0.042,-0.024 0.073,-0.068 0.094,-0.111 0.167,0.018 0.334,0.033 0.501,0.043 -0.021,0.024 -0.043,0.047 -0.067,0.069 -0.168,0.155 -0.403,0.254 -0.614,0.322 0.42,0.055 0.844,0.072 1.266,0.087 0.241,0.009 0.483,0.014 0.724,0.017 C 0.641,-0.203 0.571,-0.178 0.51,-0.154 0.652,-0.138 0.8,-0.151 0.942,-0.162 0.821,-0.101 0.684,-0.067 0.555,-0.029 0.464,-0.002 0.372,0.024 0.281,0.048 0.282,0.048 0.287,0.047 0.292,0.047 0.29,0.048 0.289,0.048 0.287,0.048 0.349,0.043 0.412,0.037 0.475,0.031 0.486,0.031 0.496,0.029 0.505,0.028 0.867,-0.01 1.227,-0.051 1.586,-0.1 2.039,-0.163 2.49,-0.239 2.938,-0.328 3.347,-0.409 3.754,-0.51 4.157,-0.611 c 0.171,-0.043 0.34,-0.088 0.51,-0.135 -0.276,0.079 -0.578,0.159 -0.906,0.238" />
        </g>
        <g
           transform="translate(580.9747,754.6216)"
           id="g3745">
          <path
             inkscape:connector-curvature="0"
             id="path3747"
             style="fill:#98731e;fill-opacity:1;fill-rule:nonzero;stroke:none"
             d="m 0,0 c 0,-0.071 -0.162,-0.051 -0.283,-0.04 -0.121,0.01 -0.737,-0.051 -0.949,-0.152 -0.179,-0.042 -0.355,-0.1 -0.524,-0.173 -0.048,-0.021 -0.095,-0.043 -0.142,-0.067 -0.057,-0.028 -0.112,-0.058 -0.163,-0.096 -0.006,-0.004 -0.012,-0.009 -0.017,-0.013 0,0 -0.028,0.152 -0.162,0.289 -0.007,0.008 -0.015,0.016 -0.024,0.023 -0.016,0.016 -0.034,0.03 -0.053,0.044 -0.057,0.043 -0.128,0.08 -0.215,0.107 -0.029,0.009 -0.06,0.016 -0.092,0.023 -0.049,0.009 -0.102,0.015 -0.16,0.017 l -0.001,0 c -0.002,0 -0.005,0 -0.008,0.001 0.271,0.128 0.604,0.256 0.885,0.272 0.59,0.033 1.367,-0.128 1.367,-0.128 0,0 0.436,0.545 -0.181,1.183 C -0.597,1.175 -0.39,0.961 -0.263,0.707 -0.071,0.323 0,0.07 0,0" />
        </g>
        <g
           transform="translate(582.7385,755.3082)"
           id="g3749">
          <path
             inkscape:connector-curvature="0"
             id="path3751"
             style="fill:#98731e;fill-opacity:1;fill-rule:nonzero;stroke:none"
             d="M 0,0 C -0.098,0.086 -0.229,0.176 -0.375,0.265 -0.481,0.331 -0.594,0.396 -0.701,0.451 -0.705,0.453 -0.709,0.454 -0.713,0.456 -0.119,0.359 0.02,0.513 0.052,0.577 0.053,0.575 0.055,0.573 0.056,0.571 0.065,0.555 0.073,0.538 0.079,0.523 0.198,0.241 0,0 0,0" />
        </g>
        <g
           transform="translate(578.5451,754.9722)"
           id="g3753">
          <path
             inkscape:connector-curvature="0"
             id="path3755"
             style="fill:#007d9a;fill-opacity:1;fill-rule:nonzero;stroke:none"
             d="m 0,0 c 0,0 -0.538,-0.338 -0.927,-0.238 -0.389,0.1 -1.057,0.629 -1.057,0.629 0,0 0.255,0.033 0.678,-0.037 0.004,-0.001 0.007,-0.002 0.011,-0.002 0.077,-0.018 0.159,-0.08 0.221,-0.124 0.037,-0.026 0.071,-0.058 0.108,-0.086 0.007,-0.006 0.101,-0.063 0.105,-0.063 0,-0.007 -0.001,-0.014 -0.001,-0.021 0,-0.099 0.08,-0.179 0.179,-0.179 0.099,0 0.18,0.08 0.18,0.179 0,0.039 -0.013,0.075 -0.034,0.105 C -0.182,0.062 0,0 0,0" />
        </g>
        <g
           transform="translate(577.8082,755.1264)"
           id="g3757">
          <path
             inkscape:connector-curvature="0"
             id="path3759"
             style="fill:#ffffff;fill-opacity:1;fill-rule:nonzero;stroke:none"
             d="m 0,0 c -0.003,-0.052 -0.038,-0.083 -0.084,-0.083 -0.013,0 -0.027,0.003 -0.04,0.008 -0.004,0 -0.098,0.057 -0.106,0.063 -0.036,0.028 -0.07,0.06 -0.107,0.086 -0.062,0.044 -0.144,0.105 -0.221,0.123 0.048,-0.009 0.232,-0.045 0.34,-0.074 0.054,-0.014 0.105,-0.028 0.155,-0.042 0,0 0.066,-0.029 0.063,-0.081" />
        </g>
        <g
           transform="translate(579.7864,754.97)"
           id="g3761">
          <path
             inkscape:connector-curvature="0"
             id="path3763"
             style="fill:#98731e;fill-opacity:1;fill-rule:nonzero;stroke:none"
             d="m 0,0 c 0.113,0.028 0.237,0.084 0.325,0.164 l 0,0 c 0,0 0.001,0 0.001,0.001 C 0.131,0.093 -0.079,0.07 -0.28,0.139 -0.313,0.15 -0.348,0.162 -0.381,0.176 -0.394,0.182 -0.406,0.187 -0.419,0.194 -0.62,0.294 -0.802,0.441 -0.981,0.577 -1.287,0.812 -1.607,1.018 -1.963,1.167 -1.987,1.15 -2.024,1.123 -2.057,1.09 l 0,-0.008 c 0,-0.096 0.069,-0.297 0.217,-0.418 C -1.648,0.507 -1.291,0.35 -1.291,0.35 -1.308,0.411 -1.299,0.489 -1.299,0.489 -1.247,0.402 -1.133,0.271 -0.959,0.175 -0.948,0.169 -0.936,0.163 -0.924,0.158 -0.87,0.132 -0.799,0.102 -0.729,0.074 -0.677,0.054 -0.619,0.035 -0.574,0.023 -0.387,-0.016 -0.188,-0.047 0,0" />
        </g>
        <g
           transform="translate(577.5624,754.5369)"
           id="g3765">
          <path
             inkscape:connector-curvature="0"
             id="path3767"
             style="fill:#ffffff;fill-opacity:1;fill-rule:nonzero;stroke:none"
             d="M 0,0 C -0.175,0.093 -0.355,0.179 -0.54,0.252 -0.655,0.311 -0.768,0.372 -0.879,0.437 -1.03,0.524 -1.18,0.616 -1.322,0.717 -1.389,0.765 -1.468,0.805 -1.526,0.863 -1.53,0.867 -1.535,0.871 -1.538,0.871 -1.575,0.877 -1.612,0.88 -1.646,0.881 -1.693,0.882 -1.74,0.881 -1.786,0.878 -1.79,0.877 -1.843,0.871 -1.843,0.872 -1.802,0.738 -1.619,0.54 -1.619,0.54 -1.706,0.534 -1.817,0.565 -1.817,0.565 -1.656,0.348 -1.21,0.076 -0.864,0.008 c 0.347,-0.068 0.663,-0.056 0.663,-0.056 -0.05,-0.025 -0.13,-0.056 -0.13,-0.056 0,0 0.136,0.007 0.322,-0.03 0.024,-0.005 0.05,-0.012 0.078,-0.019 C 0.192,-0.185 0.344,-0.235 0.433,-0.267 0.444,-0.27 0.454,-0.274 0.462,-0.277 0.419,-0.248 0.376,-0.22 0.331,-0.193 0.241,-0.136 0.116,-0.061 0,0" />
        </g>
        <g
           transform="translate(575.8567,755.638)"
           id="g3769">
          <path
             inkscape:connector-curvature="0"
             id="path3771"
             style="fill:#ffffff;fill-opacity:1;fill-rule:nonzero;stroke:none"
             d="M 0,0 C 0.138,0.041 0.3,0.074 0.443,0.087 0.928,0.133 1.409,0.052 1.859,-0.101 2.297,-0.249 2.7,-0.477 3.15,-0.597 3.207,-0.612 3.265,-0.626 3.323,-0.638 3.333,-0.641 3.344,-0.643 3.355,-0.645 3.31,-0.633 3.252,-0.614 3.201,-0.594 3.13,-0.566 3.06,-0.536 3.006,-0.51 2.993,-0.505 2.981,-0.499 2.97,-0.493 c -0.174,0.096 -0.287,0.227 -0.34,0.314 0,0 -0.008,-0.079 0.009,-0.139 0,0 -0.357,0.157 -0.549,0.314 C 1.942,0.117 1.873,0.318 1.873,0.414 l 0,0.008 C 1.847,0.397 1.822,0.369 1.806,0.338 1.753,0.241 1.757,0.167 1.757,0.167 c 0,0 -0.045,0.02 -0.086,0.052 0,0 0.021,-0.088 0.095,-0.125 0,0 0.042,-0.056 0.024,-0.099 0,0 -0.13,0.011 -0.161,0.035 -0.03,0.025 -0.127,0.06 -0.127,0.06 0,0 0.033,0.006 0.067,0.004 0,0 -0.035,0.085 -0.068,0.114 -0.034,0.028 -0.101,0.08 -0.086,0.146 0,0 0.079,-0.006 0.117,-0.021 0,0 -0.125,0.108 -0.202,0.126 l 0.105,0.005 c 0,0 -0.014,0.075 0.12,0.14 0.133,0.065 0.175,0.106 0.203,0.148 0.028,0.041 0.039,0.084 0.074,0.109 0,0 0.066,-0.037 0.117,-0.076 0,0 -0.029,0.088 -0.124,0.153 0,0 -0.348,0.039 -0.595,-0.139 L 1.25,0.786 C 1.252,0.785 1.255,0.783 1.257,0.782 1.262,0.779 1.266,0.776 1.271,0.772 1.274,0.771 1.276,0.77 1.278,0.768 1.283,0.765 1.288,0.762 1.292,0.758 1.294,0.757 1.296,0.756 1.297,0.755 1.304,0.751 1.31,0.747 1.315,0.743 L 1.317,0.742 C 1.322,0.739 1.326,0.735 1.331,0.732 1.332,0.731 1.334,0.73 1.336,0.728 1.339,0.726 1.341,0.725 1.343,0.723 1.344,0.722 1.346,0.721 1.347,0.72 1.348,0.72 1.348,0.719 1.348,0.719 1.351,0.718 1.352,0.717 1.353,0.715 c 0,0 0.001,0 0.001,0 C 1.356,0.714 1.357,0.713 1.357,0.713 1.309,0.724 1.211,0.738 1.165,0.744 1.151,0.731 1.121,0.7 1.108,0.685 1.108,0.685 1.081,0.648 1.064,0.556 1.059,0.526 1.076,0.458 1.106,0.431 1.136,0.405 1.231,0.317 1.246,0.276 1.262,0.234 1.234,0.169 1.24,0.141 c 0,0 -0.073,0.047 -0.114,0.059 0.008,-0.009 0.092,-0.095 0.045,-0.105 0,0 -0.042,0.048 -0.118,0.082 C 0.977,0.211 0.837,0.28 0.796,0.317 0.756,0.353 0.731,0.428 0.728,0.438 0.733,0.431 0.756,0.401 0.777,0.397 0.798,0.393 0.859,0.354 0.867,0.348 0.865,0.354 0.843,0.406 0.818,0.427 0.792,0.45 0.728,0.481 0.694,0.522 l 0.037,0.012 c 0,0 0.011,0.074 -0.006,0.147 -0.057,0.013 -0.204,0.038 -0.321,-0.003 0,0 0.106,-0.069 0.196,-0.194 0,0 -0.869,-0.16 -1.217,-0.783 l -0.014,-0.029 c 0,0 -0.002,-0.002 -0.005,-0.005 0.005,0.004 0.007,0.006 0.007,0.006 0,0 0.001,0 0.003,0.001 l 0.001,0 c 0,0 0,0 0,0 0.013,0.012 0.15,0.129 0.234,0.176 C -0.269,-0.082 -0.133,-0.04 0,0" />
        </g>
      </g>
    </g>
  </g>
</svg>
