<?xml version="1.0" encoding="UTF-8" standalone="no"?>
<!-- Created with Inkscape (http://www.inkscape.org/) -->

<svg
   xmlns:dc="http://purl.org/dc/elements/1.1/"
   xmlns:cc="http://creativecommons.org/ns#"
   xmlns:rdf="http://www.w3.org/1999/02/22-rdf-syntax-ns#"
   xmlns:svg="http://www.w3.org/2000/svg"
   xmlns="http://www.w3.org/2000/svg"
   xmlns:sodipodi="http://sodipodi.sourceforge.net/DTD/sodipodi-0.dtd"
   xmlns:inkscape="http://www.inkscape.org/namespaces/inkscape"
   width="1000"
   height="1000"
   viewBox="0 0 1000 1000"
   id="svg2"
   version="1.1"
   inkscape:version="0.91 r13725"
   sodipodi:docname="500.svg">
  <defs
     id="defs4" />
  <sodipodi:namedview
     id="base"
     pagecolor="#ffffff"
     bordercolor="#666666"
     borderopacity="1.0"
     inkscape:pageopacity="0.0"
     inkscape:pageshadow="2"
     inkscape:zoom="0.35"
     inkscape:cx="-578.17885"
     inkscape:cy="622.85714"
     inkscape:document-units="px"
     inkscape:current-layer="text6537"
     showgrid="false"
     units="px"
     inkscape:window-width="1920"
     inkscape:window-height="1053"
     inkscape:window-x="0"
     inkscape:window-y="0"
     inkscape:window-maximized="1" />
  <metadata
     id="metadata7">
    <rdf:RDF>
      <cc:Work
         rdf:about="">
        <dc:format>image/svg+xml</dc:format>
        <dc:type
           rdf:resource="http://purl.org/dc/dcmitype/StillImage" />
        <dc:title></dc:title>
      </cc:Work>
    </rdf:RDF>
  </metadata>
  <g
     inkscape:label="Capa 1"
     inkscape:groupmode="layer"
     id="layer1"
     transform="translate(0,-52.362161)">
    <path
       d="m 793.1056,687.63278 -45.12926,0 c -12.44418,0 -22.52558,10.16005 -22.52558,22.60423 0,12.36535 10.0814,22.5254 22.52558,22.5254 l 45.12926,0 c 12.44417,0 22.52539,-10.16005 22.52539,-22.5254 0,-12.44418 -10.08122,-22.60423 -22.52539,-22.60423 z M 928.41581,371.96211 c -12.44418,0 -22.60423,-10.16006 -22.60423,-22.5254 0,-12.44418 10.16005,-22.5254 22.60423,-22.5254 12.44382,0 22.52522,10.08122 22.52522,22.5254 0,12.36534 -10.08122,22.5254 -22.52522,22.5254 z m 22.52522,319.76612 c -7.08834,-2.52026 -14.57064,-4.09545 -22.52522,-4.09545 -37.33253,0 -67.65502,30.24384 -67.65502,67.65502 0,7.87592 1.6542,15.59437 4.1741,22.60405 l -729.94897,0 c 2.59909,-7.00968 4.17427,-14.72813 4.17427,-22.60405 0,-37.41118 -30.32266,-67.65502 -67.576182,-67.65502 -8.033587,0 -15.515714,1.57483 -22.604226,4.09545 l 0,-278.73213 c 7.088512,2.52044 14.570639,4.09563 22.604226,4.09563 37.253522,0 67.576182,-30.24402 67.576182,-67.65502 0,-7.87592 -1.57482,-15.59455 -4.17427,-22.5254 l 729.94897,0 c -2.52026,6.93085 -4.1741,14.64948 -4.1741,22.5254 0,37.411 30.32249,67.65502 67.65502,67.65502 7.95458,0 15.43688,-1.57483 22.52522,-4.09563 z m -22.52522,86.16362 c -12.44418,0 -22.60423,-10.16005 -22.60423,-22.60405 0,-12.36534 10.16005,-22.52539 22.60423,-22.52539 12.44382,0 22.52522,10.16005 22.52522,22.52539 0,12.444 -10.08122,22.60405 -22.52522,22.60405 z m -856.831802,0 c -12.522827,0 -22.604226,-10.16005 -22.604226,-22.60405 0,-12.36534 10.081399,-22.52539 22.604226,-22.52539 12.444177,0 22.525395,10.16005 22.525395,22.52539 0,12.444 -10.081218,22.60405 -22.525395,22.60405 z m 0,-450.98054 c 12.444177,0 22.525395,10.08122 22.525395,22.5254 0,12.36534 -10.081218,22.5254 -22.525395,22.5254 -12.522827,0 -22.604226,-10.16006 -22.604226,-22.5254 0,-12.44418 10.081399,-22.5254 22.604226,-22.5254 z m 879.357022,-45.12962 -901.961068,0 c -24.888172,0 -45.0509708,20.3201 -45.0509708,45.12962 l 0,450.98054 c 0,24.967 20.1626178,45.05079 45.0509708,45.05079 l 901.961068,0 c 24.88817,0 45.12998,-20.08379 45.12998,-45.05079 l 0,-450.98054 c 0,-24.80952 -20.24181,-45.12962 -45.12998,-45.12962 z m -698.9962,90.18042 -45.12944,0 c -12.44418,0 -22.52539,10.16005 -22.52539,22.60422 0,12.36535 10.08121,22.5254 22.52539,22.5254 l 45.12944,0 c 12.44418,0 22.5254,-10.16005 22.5254,-22.5254 0,-12.44417 -10.08122,-22.60422 -22.5254,-22.60422"
       style="fill:#d23737;fill-opacity:1;fill-rule:nonzero;stroke:none"
       id="path4546"
       inkscape:connector-curvature="0"
       sodipodi:nodetypes="sssssssssssscssccssccssccssccsssssssssssssssssssssssscsssssc" />
    <g
       style="font-style:normal;font-weight:normal;font-size:303.78015137px;line-height:125%;font-family:sans-serif;letter-spacing:0px;word-spacing:0px;fill:#d23737;fill-opacity:1;stroke:none;stroke-width:1px;stroke-linecap:butt;stroke-linejoin:miter;stroke-opacity:1"
       id="text6537">
      <path
         d="m 299.05894,678.39247 q -4.25292,0 -4.25292,-3.94914 l 0,-179.83785 -22.47973,19.44193 q -1.5189,1.21512 -3.64537,1.5189 -1.82268,0.30378 -3.0378,-0.91134 l -13.6701,-16.40413 q -0.91134,-1.21512 -0.91134,-2.73402 0.30378,-1.82268 1.82268,-3.34158 l 46.47836,-42.833 q 0.60756,-0.60756 2.12646,-1.21512 1.5189,-0.60756 2.43024,-0.60756 l 16.10035,0 q 5.16426,0 6.0756,1.21512 1.21512,0.91134 1.21512,6.98694 l 0,218.72171 q 0,3.94914 -3.94914,3.94914 l -24.30241,0 z"
         style="font-style:normal;font-variant:normal;font-weight:bold;font-stretch:normal;font-family:NanumGothic;-inkscape-font-specification:'NanumGothic Bold';text-align:center;text-anchor:middle;fill:#d23737;fill-opacity:1"
         id="path4350" />
      <path
         d="m 489.36771,679.91137 q -38.88386,0 -57.71823,-30.68179 -18.53059,-30.98558 -18.53059,-86.57735 0,-18.83437 2.73402,-39.49142 3.0378,-20.65705 11.23986,-37.97252 8.50585,-17.31546 23.39108,-28.55533 14.88522,-11.23987 38.88386,-11.23987 15.79656,0 27.64399,5.16427 11.84743,5.16426 20.04949,14.27766 8.50584,8.80963 13.97389,20.65705 5.46804,11.54365 8.50584,24.6062 3.0378,13.06254 4.25292,26.73265 1.21512,13.36633 1.21512,25.82131 0,27.644 -4.5567,49.51617 -4.5567,21.87217 -13.97389,37.06118 -9.41718,14.88522 -23.69485,22.78351 -13.97388,7.89828 -33.41581,7.89828 z m 0,-201.40624 q -9.72097,0 -17.31547,4.5567 -7.59451,4.25293 -13.06255,14.27767 -5.46804,10.02475 -8.50584,26.12509 -2.73403,16.10035 -2.73403,39.18764 0,23.39107 2.73403,39.49142 3.0378,16.10035 8.50584,26.1251 5.46804,10.02474 13.06255,14.58144 7.5945,4.25292 17.31547,4.25292 9.41718,0 17.01168,-4.25292 7.89829,-4.5567 13.36633,-14.58144 5.46804,-10.02475 8.20206,-26.1251 3.03781,-16.10035 3.03781,-39.49142 0,-23.08729 -3.03781,-39.18764 -2.73402,-16.10034 -8.20206,-26.12509 -5.46804,-10.02474 -13.36633,-14.27767 -7.5945,-4.5567 -17.01168,-4.5567 z"
         style="font-style:normal;font-variant:normal;font-weight:bold;font-stretch:normal;font-family:NanumGothic;-inkscape-font-specification:'NanumGothic Bold';text-align:center;text-anchor:middle;fill:#d23737;fill-opacity:1"
         id="path4352" />
      <path
         d="m 673.29709,679.91137 q -38.88386,0 -57.71823,-30.68179 -18.53059,-30.98558 -18.53059,-86.57735 0,-18.83437 2.73402,-39.49142 3.0378,-20.65705 11.23987,-37.97252 8.50584,-17.31546 23.39107,-28.55533 14.88523,-11.23987 38.88386,-11.23987 15.79657,0 27.64399,5.16427 11.84743,5.16426 20.04949,14.27766 8.50585,8.80963 13.97389,20.65705 5.46804,11.54365 8.50584,24.6062 3.0378,13.06254 4.25292,26.73265 1.21513,13.36633 1.21513,25.82131 0,27.644 -4.55671,49.51617 -4.5567,21.87217 -13.97388,37.06118 -9.41719,14.88522 -23.69486,22.78351 -13.97388,7.89828 -33.41581,7.89828 z m 0,-201.40624 q -9.72097,0 -17.31547,4.5567 -7.5945,4.25293 -13.06255,14.27767 -5.46804,10.02475 -8.50584,26.12509 -2.73402,16.10035 -2.73402,39.18764 0,23.39107 2.73402,39.49142 3.0378,16.10035 8.50584,26.1251 5.46805,10.02474 13.06255,14.58144 7.5945,4.25292 17.31547,4.25292 9.41718,0 17.01169,-4.25292 7.89828,-4.5567 13.36632,-14.58144 5.46805,-10.02475 8.20207,-26.1251 3.0378,-16.10035 3.0378,-39.49142 0,-23.08729 -3.0378,-39.18764 -2.73402,-16.10034 -8.20207,-26.12509 -5.46804,-10.02474 -13.36632,-14.27767 -7.59451,-4.5567 -17.01169,-4.5567 z"
         style="font-style:normal;font-variant:normal;font-weight:bold;font-stretch:normal;font-family:NanumGothic;-inkscape-font-specification:'NanumGothic Bold';text-align:center;text-anchor:middle;fill:#d23737;fill-opacity:1"
         id="path4354" />
    </g>
  </g>
</svg>
