<?xml version="1.0" encoding="UTF-8" standalone="no"?>
<!-- Created with Inkscape (http://www.inkscape.org/) -->

<svg
   xmlns:dc="http://purl.org/dc/elements/1.1/"
   xmlns:cc="http://creativecommons.org/ns#"
   xmlns:rdf="http://www.w3.org/1999/02/22-rdf-syntax-ns#"
   xmlns:svg="http://www.w3.org/2000/svg"
   xmlns="http://www.w3.org/2000/svg"
   xmlns:sodipodi="http://sodipodi.sourceforge.net/DTD/sodipodi-0.dtd"
   xmlns:inkscape="http://www.inkscape.org/namespaces/inkscape"
   width="1000"
   height="1000"
   viewBox="0 0 1000 1000"
   id="svg2"
   version="1.1"
   inkscape:version="0.91 r13725"
   sodipodi:docname="500.svg">
  <defs
     id="defs4" />
  <sodipodi:namedview
     id="base"
     pagecolor="#ffffff"
     bordercolor="#666666"
     borderopacity="1.0"
     inkscape:pageopacity="0.0"
     inkscape:pageshadow="2"
     inkscape:zoom="0.35"
     inkscape:cx="-578.17885"
     inkscape:cy="622.85714"
     inkscape:document-units="px"
     inkscape:current-layer="layer1"
     showgrid="false"
     units="px"
     inkscape:window-width="1920"
     inkscape:window-height="1053"
     inkscape:window-x="0"
     inkscape:window-y="0"
     inkscape:window-maximized="1" />
  <metadata
     id="metadata7">
    <rdf:RDF>
      <cc:Work
         rdf:about="">
        <dc:format>image/svg+xml</dc:format>
        <dc:type
           rdf:resource="http://purl.org/dc/dcmitype/StillImage" />
        <dc:title></dc:title>
      </cc:Work>
    </rdf:RDF>
  </metadata>
  <g
     inkscape:label="Capa 1"
     inkscape:groupmode="layer"
     id="layer1"
     transform="translate(0,-52.362161)">
    <path
       d="m 793.1056,687.63278 -45.12926,0 c -12.44418,0 -22.52558,10.16005 -22.52558,22.60423 0,12.36535 10.0814,22.5254 22.52558,22.5254 l 45.12926,0 c 12.44417,0 22.52539,-10.16005 22.52539,-22.5254 0,-12.44418 -10.08122,-22.60423 -22.52539,-22.60423 z M 928.41581,371.96211 c -12.44418,0 -22.60423,-10.16006 -22.60423,-22.5254 0,-12.44418 10.16005,-22.5254 22.60423,-22.5254 12.44382,0 22.52522,10.08122 22.52522,22.5254 0,12.36534 -10.08122,22.5254 -22.52522,22.5254 z m 22.52522,319.76612 c -7.08834,-2.52026 -14.57064,-4.09545 -22.52522,-4.09545 -37.33253,0 -67.65502,30.24384 -67.65502,67.65502 0,7.87592 1.6542,15.59437 4.1741,22.60405 l -729.94897,0 c 2.59909,-7.00968 4.17427,-14.72813 4.17427,-22.60405 0,-37.41118 -30.32266,-67.65502 -67.576182,-67.65502 -8.033587,0 -15.515714,1.57483 -22.604226,4.09545 l 0,-278.73213 c 7.088512,2.52044 14.570639,4.09563 22.604226,4.09563 37.253522,0 67.576182,-30.24402 67.576182,-67.65502 0,-7.87592 -1.57482,-15.59455 -4.17427,-22.5254 l 729.94897,0 c -2.52026,6.93085 -4.1741,14.64948 -4.1741,22.5254 0,37.411 30.32249,67.65502 67.65502,67.65502 7.95458,0 15.43688,-1.57483 22.52522,-4.09563 z m -22.52522,86.16362 c -12.44418,0 -22.60423,-10.16005 -22.60423,-22.60405 0,-12.36534 10.16005,-22.52539 22.60423,-22.52539 12.44382,0 22.52522,10.16005 22.52522,22.52539 0,12.444 -10.08122,22.60405 -22.52522,22.60405 z m -856.831802,0 c -12.522827,0 -22.604226,-10.16005 -22.604226,-22.60405 0,-12.36534 10.081399,-22.52539 22.604226,-22.52539 12.444177,0 22.525395,10.16005 22.525395,22.52539 0,12.444 -10.081218,22.60405 -22.525395,22.60405 z m 0,-450.98054 c 12.444177,0 22.525395,10.08122 22.525395,22.5254 0,12.36534 -10.081218,22.5254 -22.525395,22.5254 -12.522827,0 -22.604226,-10.16006 -22.604226,-22.5254 0,-12.44418 10.081399,-22.5254 22.604226,-22.5254 z m 879.357022,-45.12962 -901.961068,0 c -24.888172,0 -45.0509708,20.3201 -45.0509708,45.12962 l 0,450.98054 c 0,24.967 20.1626178,45.05079 45.0509708,45.05079 l 901.961068,0 c 24.88817,0 45.12998,-20.08379 45.12998,-45.05079 l 0,-450.98054 c 0,-24.80952 -20.24181,-45.12962 -45.12998,-45.12962 z m -698.9962,90.18042 -45.12944,0 c -12.44418,0 -22.52539,10.16005 -22.52539,22.60422 0,12.36535 10.08121,22.5254 22.52539,22.5254 l 45.12944,0 c 12.44418,0 22.5254,-10.16005 22.5254,-22.5254 0,-12.44417 -10.08122,-22.60422 -22.5254,-22.60422"
       style="fill:#ac2484;fill-opacity:1;fill-rule:nonzero;stroke:none"
       id="path4546"
       inkscape:connector-curvature="0"
       sodipodi:nodetypes="sssssssssssscssccssccssccssccsssssssssssssssssssssssscsssssc" />
    <g
       style="font-style:normal;font-weight:normal;font-size:303.78015137px;line-height:125%;font-family:sans-serif;letter-spacing:0px;word-spacing:0px;fill:#ac2484;fill-opacity:1;stroke:none;stroke-width:1px;stroke-linecap:butt;stroke-linejoin:miter;stroke-opacity:1"
       id="text6537">
      <path
         d="m 449.50131,660.77322 q -10.93609,10.02475 -26.73265,14.88523 -15.79657,4.86048 -33.11204,4.86048 -3.0378,0 -9.41719,-0.60756 -6.0756,-0.30378 -13.36632,-1.5189 -6.98695,-0.91134 -14.27767,-2.73402 -6.98694,-1.5189 -11.84743,-3.94914 -2.12646,-1.21512 -2.43024,-2.43024 0,-0.91134 0,-3.03781 l 0,-24.60619 q 0,-5.46804 6.37939,-2.43024 4.5567,2.43024 10.6323,4.25292 6.0756,1.5189 12.45499,2.73402 6.37938,1.21513 12.45498,1.82269 6.37939,0.60756 11.84743,0.60756 20.35327,0 33.41582,-11.54365 13.36632,-11.54365 13.36632,-31.89692 0,-19.74571 -10.93608,-31.28935 -10.63231,-11.84743 -35.54228,-11.84743 -10.02474,0 -20.65705,2.12646 -10.32853,2.12646 -20.04949,5.77183 -11.84743,4.86048 -11.84743,-5.46805 l 1.5189,-112.09487 q 0.30378,-3.34158 1.21513,-4.25292 0.91134,-0.91134 5.46804,-0.91134 l 111.18353,0 q 1.82268,0 2.73402,1.21512 1.21513,1.21512 1.21513,2.73402 l 0,23.39107 q 0,1.5189 -1.21513,3.0378 -0.91134,1.21512 -2.73402,1.21512 l -84.45088,0 -1.21512,56.50311 q 11.84743,-2.73402 26.73265,-2.73402 15.18901,0 28.55534,4.86048 13.36632,4.5567 23.08729,13.67011 10.02474,8.80962 15.49279,21.56839 5.77182,12.75876 5.77182,28.55533 0,38.2763 -23.69485,59.54091 z"
         style="font-style:normal;font-variant:normal;font-weight:bold;font-stretch:normal;font-family:NanumGothic;-inkscape-font-specification:'NanumGothic Bold';text-align:center;text-anchor:middle;fill:#ac2484;fill-opacity:1"
         id="path4395" />
      <path
         d="m 586.04099,679.91137 q -38.88386,0 -57.71823,-30.68179 -18.53059,-30.98558 -18.53059,-86.57735 0,-18.83437 2.73402,-39.49142 3.0378,-20.65705 11.23987,-37.97252 8.50584,-17.31546 23.39107,-28.55533 14.88523,-11.23987 38.88386,-11.23987 15.79657,0 27.64399,5.16427 11.84743,5.16426 20.04949,14.27766 8.50585,8.80963 13.97389,20.65705 5.46804,11.54365 8.50584,24.6062 3.0378,13.06254 4.25292,26.73265 1.21513,13.36633 1.21513,25.82131 0,27.644 -4.55671,49.51617 -4.5567,21.87217 -13.97388,37.06118 -9.41719,14.88522 -23.69486,22.78351 -13.97388,7.89828 -33.41581,7.89828 z m 0,-201.40624 q -9.72097,0 -17.31547,4.5567 -7.59451,4.25293 -13.06255,14.27767 -5.46804,10.02475 -8.50584,26.12509 -2.73402,16.10035 -2.73402,39.18764 0,23.39107 2.73402,39.49142 3.0378,16.10035 8.50584,26.1251 5.46804,10.02474 13.06255,14.58144 7.5945,4.25292 17.31547,4.25292 9.41718,0 17.01169,-4.25292 7.89828,-4.5567 13.36632,-14.58144 5.46805,-10.02475 8.20207,-26.1251 3.0378,-16.10035 3.0378,-39.49142 0,-23.08729 -3.0378,-39.18764 -2.73402,-16.10034 -8.20207,-26.12509 -5.46804,-10.02474 -13.36632,-14.27767 -7.59451,-4.5567 -17.01169,-4.5567 z"
         style="font-style:normal;font-variant:normal;font-weight:bold;font-stretch:normal;font-family:NanumGothic;-inkscape-font-specification:'NanumGothic Bold';text-align:center;text-anchor:middle;fill:#ac2484;fill-opacity:1"
         id="path4397" />
    </g>
  </g>
</svg>
