<?xml version="1.0" encoding="UTF-8" standalone="no"?>
<!-- Created with Inkscape (http://www.inkscape.org/) -->

<svg
   xmlns:dc="http://purl.org/dc/elements/1.1/"
   xmlns:cc="http://creativecommons.org/ns#"
   xmlns:rdf="http://www.w3.org/1999/02/22-rdf-syntax-ns#"
   xmlns:svg="http://www.w3.org/2000/svg"
   xmlns="http://www.w3.org/2000/svg"
   xmlns:sodipodi="http://sodipodi.sourceforge.net/DTD/sodipodi-0.dtd"
   xmlns:inkscape="http://www.inkscape.org/namespaces/inkscape"
   width="1000"
   height="1000"
   viewBox="0 0 1000 1000"
   id="svg2"
   version="1.1"
   inkscape:version="0.91 r13725"
   sodipodi:docname="borde.svg">
  <defs
     id="defs4" />
  <sodipodi:namedview
     id="base"
     pagecolor="#ffffff"
     bordercolor="#666666"
     borderopacity="1.0"
     inkscape:pageopacity="0.0"
     inkscape:pageshadow="2"
     inkscape:zoom="0.7"
     inkscape:cx="634.2493"
     inkscape:cy="488.58586"
     inkscape:document-units="px"
     inkscape:current-layer="layer1"
     showgrid="false"
     units="px"
     inkscape:snap-page="true"
     inkscape:window-width="1920"
     inkscape:window-height="1053"
     inkscape:window-x="0"
     inkscape:window-y="0"
     inkscape:window-maximized="1" />
  <metadata
     id="metadata7">
    <rdf:RDF>
      <cc:Work
         rdf:about="">
        <dc:format>image/svg+xml</dc:format>
        <dc:type
           rdf:resource="http://purl.org/dc/dcmitype/StillImage" />
        <dc:title></dc:title>
      </cc:Work>
    </rdf:RDF>
  </metadata>
  <g
     inkscape:label="Capa 1"
     inkscape:groupmode="layer"
     id="layer1"
     transform="translate(0,-52.362139)">
    <g
       id="g4186"
       transform="matrix(2.488693,0,0,2.488693,-429.69942,-686.31052)">
      <path
         inkscape:connector-curvature="0"
         id="path4162"
         style="fill:#000000;fill-rule:evenodd;stroke:#1b1918;stroke-width:0.21600001;stroke-linecap:butt;stroke-linejoin:miter;stroke-dasharray:none"
         d="m 336.7251,398.5636 67.2631,-26.509 -31.1403,60.8991 24.9122,-2.8658 -56.0525,68.7802 19.9298,-2.1494 -82.2105,126.8135 31.1403,-90.9905 -24.9122,5.7317 29.2719,-58.0333 -21.1755,0 42.9737,-81.6765 z" />
      <path
         inkscape:connector-curvature="0"
         id="path4164"
         style="fill:#ffff00;fill-rule:evenodd;stroke:#1b1918;stroke-width:0.21600001;stroke-linecap:butt;stroke-linejoin:miter;stroke-dasharray:none"
         d="m 341.3374,401.6578 51.1744,-19.352 -28.2619,57.9222 20.2765,-3.1568 -53.7482,65.6923 21.3037,-0.6761 -59.9333,95.7154 22.4669,-70.302 -17.0484,3.4006 27.3351,-56.2537 -21.6128,0.6608 38.048,-73.6507 z" />
      <path
         inkscape:connector-curvature="0"
         id="path4166"
         style="fill:#1b1918;fill-rule:evenodd;stroke:#008a56;stroke-width:7.99989986;stroke-linecap:butt;stroke-linejoin:miter;stroke-dasharray:none"
         d="m 313.4687,535.6213 -34.9622,0 12.543,-66.9999 34.8976,0 -1.5443,8.7624 -24.8479,0 -3.962,19.6951 25.0874,0 -1.6531,9.0902 -25.0875,0 -4.0617,19.9794 25.215,0 -1.6243,9.4728 z" />
      <path
         inkscape:connector-curvature="0"
         id="path4168"
         style="fill:#1b1918;fill-rule:evenodd;stroke:#008a56;stroke-width:7.99989986;stroke-linecap:butt;stroke-linejoin:miter;stroke-dasharray:none"
         d="m 245.8205,535.5459 -9.5743,0 12.2048,-66.9279 35.2619,0 -1.6691,8.7528 -25.2569,0 -3.2766,19.7203 24.5115,0 -1.3408,9.0482 -25.0983,0 -5.7622,29.4066 z" />
      <path
         inkscape:connector-curvature="0"
         id="path4170"
         style="fill:#1b1918;fill-rule:evenodd;stroke:#008a56;stroke-width:7.99989986;stroke-linecap:butt;stroke-linejoin:miter;stroke-dasharray:none"
         d="m 222.6518,515.3393 9.4019,0.0478 c -5.1064,15.4754 -29.9007,28.3289 -45.9503,13.8136 -3.3855,-3.1094 -5.3508,-7.0575 -7.1341,-12.2038 -1.0753,-5.13 -1.5196,-10.7989 -0.1401,-16.9909 1.6242,-10.5186 6.5952,-18.6071 13.1971,-25.1476 6.6018,-5.9411 11.7693,-8.0801 20.8942,-8.0801 7.1411,0.2397 13.6805,3.7718 17.6563,8.2941 3.0804,4.0715 4.8064,7.7119 6.1634,14.6359 l -9.0306,0.1035 c -1.1963,-8.5641 -9.3966,-14.8976 -18.0945,-13.9685 -14.8343,1.1688 -20.8787,17.1967 -22.0292,22.9478 -0.8398,7.0517 -1.9895,15.8489 3.463,21.7356 2.8558,3.0831 5.7616,6.1127 14.8754,5.912 6.6932,-0.7145 13.8181,-6.3291 16.7275,-11.0994 z" />
      <path
         inkscape:connector-curvature="0"
         id="path4172"
         style="fill:#008a56;fill-rule:evenodd;stroke:#ffffff;stroke-width:4;stroke-linecap:butt;stroke-linejoin:miter;stroke-dasharray:none"
         d="m 313.4687,535.6213 -34.9622,0 12.543,-66.9999 34.9039,-0.0363 -1.5506,8.7987 -24.8479,0 -3.962,19.6951 25.0874,0 -1.6531,9.0902 -25.0875,0 -4.0617,19.9794 25.215,0 -1.6243,9.4728 z" />
      <path
         inkscape:connector-curvature="0"
         id="path4174"
         style="fill:#008a56;fill-rule:evenodd;stroke:#ffffff;stroke-width:4;stroke-linecap:butt;stroke-linejoin:miter;stroke-dasharray:none"
         d="m 245.8205,535.5459 -9.5743,0 12.2048,-66.9279 35.2619,0 -1.6691,8.7528 -25.2572,0 -3.2763,19.7203 24.5115,0 -1.3408,9.0482 -25.0983,0 -5.7622,29.4066 z" />
      <path
         inkscape:connector-curvature="0"
         id="path4176"
         style="fill:#008a56;fill-rule:evenodd;stroke:#ffffff;stroke-width:4;stroke-linecap:butt;stroke-linejoin:miter;stroke-dasharray:none"
         d="m 222.6518,515.3393 9.4019,0.0478 c -5.1064,15.4754 -29.9007,28.3289 -45.9503,13.8136 -3.3855,-3.1094 -5.3508,-7.0575 -7.1341,-12.2038 -1.0753,-5.13 -1.5196,-10.7989 -0.1401,-16.9909 1.6242,-10.5186 6.5952,-18.6071 13.1971,-25.1476 6.6018,-5.9411 11.7693,-8.0801 20.8942,-8.0801 7.1411,0.2397 13.6805,3.7718 17.6563,8.2941 3.0804,4.0715 4.8064,7.7646 6.1634,14.6886 l -9.0306,-0.002 c -1.1963,-8.5641 -9.3966,-14.8446 -18.0945,-13.9155 -14.8343,1.1688 -20.8787,17.1967 -22.0292,22.9478 -0.8398,7.0517 -1.9895,15.8489 3.463,21.7356 2.8558,3.0831 5.7616,6.1127 14.8754,5.912 6.6932,-0.7145 13.8181,-6.329 16.7275,-11.0994 z" />
      <path
         inkscape:connector-curvature="0"
         id="path4178"
         style="fill:#1b1918;fill-rule:evenodd;stroke:#ffffff;stroke-width:4;stroke-linecap:butt;stroke-linejoin:round;stroke-dasharray:none"
         d="m 360.4103,464.4507 c 0.0335,-0.5025 0.3181,-1.0553 0.8541,-1.6747 0.5356,-0.6198 1.2896,-1.2896 2.2275,-2.01 0.7536,-0.6194 1.4903,-1.1555 2.2108,-1.5741 0.72,-0.4187 1.4065,-0.7704 2.0598,-1.0218 0.8877,-0.3013 1.407,-0.5528 1.5742,-0.7368 0.1676,-0.2012 0.352,-0.3013 0.536,-0.3013 0.536,0 0.938,0.2678 1.2058,0.787 0.285,0.5193 0.4191,1.3064 0.4191,2.3613 0,0.5528 -0.1341,1.3231 -0.4191,2.2945 -0.2846,0.9883 -0.4187,1.7083 -0.4187,2.1605 0,0.2012 0.0335,0.9547 0.0838,2.2611 0.0503,1.3063 0.1174,3.1822 0.2179,5.644 0.0336,1.7589 0.2846,3.6512 0.7536,5.6444 0.4857,1.9928 1.0888,4.0699 1.8423,6.2304 1.0218,2.8134 2.1102,4.9072 3.2825,6.297 1.1894,1.3901 2.4789,2.0938 3.8858,2.0938 1.1052,0 2.5792,-0.7204 4.4216,-2.1605 1.8256,-1.4404 3.986,-3.6009 6.4646,-6.4818 1.9094,-2.2275 3.6009,-4.3042 5.0916,-6.2303 1.4736,-1.9258 2.6798,-3.7011 3.6005,-5.2924 0.8546,-1.4401 1.8424,-2.7301 2.9983,-3.8855 1.1387,-1.1387 2.445,-2.194 3.919,-3.132 0.4522,-0.2678 0.8373,-0.4857 1.1219,-0.6362 0.3018,-0.1676 0.536,-0.2514 0.7037,-0.2514 0.5859,0 1.0381,0.4354 1.3398,1.3231 0.3181,0.8876 0.469,2.194 0.469,3.919 -0.2011,1.6081 -0.352,3.199 -0.4857,4.7731 -0.3018,2.4455 -0.7372,5.0079 -1.3064,7.6541 -0.5695,2.6462 -1.3231,5.393 -2.2275,8.2403 -0.4689,1.4401 -0.8541,2.6961 -1.1894,3.7849 -0.3181,1.0721 -0.5524,1.9933 -0.6865,2.7468 -0.067,0.4187 -0.1508,0.9547 -0.2678,1.5909 -0.1173,0.6366 -0.2347,1.3734 -0.3688,2.2275 -0.3181,0.8206 -0.6737,1.6476 -1.0716,2.4622 -0.3217,0.6594 -8.4774,45.6752 -8.685,46.5816 -0.2107,0.9188 -0.4251,1.9908 -0.5528,3.199 -0.0227,0.2163 -0.0163,0.5196 -0.0503,0.8876 -0.0327,0.3516 -0.0175,0.7276 -0.1005,1.1223 -0.7045,3.3431 -1.5319,6.5804 -2.3114,9.714 -0.0742,0.2993 -0.2175,0.6697 -0.4354,1.1219 -0.4355,0.1341 -0.9116,0.4095 -1.4568,0.8374 -0.5432,0.4258 -1.0809,1.0421 -1.6915,1.7753 -0.5616,0.6741 -1.0793,1.1299 -1.474,1.4404 -0.3923,0.3089 -0.6869,0.469 -0.8709,0.469 -0.2682,0 -0.4857,-0.0838 -0.6534,-0.2515 -0.15,-0.15 -0.2538,-0.4362 -0.2342,-0.8206 0.0135,-0.2694 0.083,-0.4865 0.1508,-0.6529 0.451,-1.106 0.8462,-2.7149 1.189,-4.8067 0.3433,-2.095 0.6921,-4.6714 0.9547,-7.7546 0.0555,-0.6514 0.2934,-2.4131 0.7871,-5.2924 0.4941,-2.8817 9.1009,-51.1012 10.0248,-56.212 0.1477,-0.8182 0.3014,-1.8256 0.5193,-3.0146 0.2175,-1.189 0.4857,-2.5624 0.8038,-4.1034 0.2347,-0.7871 0.4187,-1.4568 0.5696,-2.0264 0.1505,-0.5695 0.2175,-0.9882 0.2175,-1.256 0,-0.3353 -0.0503,-0.5696 -0.1672,-0.7037 -0.1174,-0.1505 -0.285,-0.2343 -0.5193,-0.2343 -0.2011,0 -0.5528,0.2678 -1.072,0.7703 -0.5193,0.5025 -1.189,1.2561 -1.9593,2.2778 -0.469,0.5528 -0.938,1.1387 -1.407,1.7586 -0.4689,0.6362 -0.9714,1.2393 -1.4907,1.8256 -0.8876,0.9212 -1.7082,1.7753 -2.4618,2.5959 l -3.6344,3.6344 c -0.3181,0.2008 -0.7201,0.4355 -1.189,0.7368 -0.4858,0.2846 -1.0386,0.6366 -1.6919,1.0218 -0.6362,0.9882 -1.6245,1.8256 -2.9811,2.5288 -1.3566,0.7033 -2.5959,1.0553 -3.7514,1.0553 -1.3734,0 -2.6797,-0.4354 -3.9525,-1.2895 -1.2565,-0.8709 -2.479,-2.2108 -3.6512,-4.0029 -0.5193,-0.8876 -1.0385,-1.7753 -1.541,-2.6462 -0.5025,-0.8876 -1.0549,-1.7753 -1.6412,-2.6629 l -0.2511,0.0498 c -0.1676,0.2012 -0.469,1.5243 -0.9044,3.9861 -0.4522,2.4455 -1.005,6.0464 -1.6919,10.786 -0.7535,4.8737 -1.3231,8.7089 -1.725,11.4892 -0.3852,2.7803 -0.5859,4.5724 -0.5859,5.393 -0.0671,1.1219 -0.2682,1.9765 -0.6199,2.5791 -0.3348,0.6031 -0.8709,0.9547 -1.5909,1.0553 -0.3516,0.0335 -0.8541,0.1337 -1.5242,0.2678 -0.653,0.1509 -1.4237,0.3349 -2.3449,0.5696 -0.1672,-0.0335 -0.3181,-0.0838 -0.4522,-0.1676 -0.117,-0.0839 -0.184,-0.2008 -0.184,-0.3684 l 0.2846,-1.8256 -0.4858,-1.8592 c 0.2012,-1.0213 0.3852,-1.9928 0.5863,-2.9475 1.2764,-18.6595 2.7153,-37.8311 5.0582,-55.7379 z m 87.4922,13.2981 c 0,0.4019 -0.0503,0.7871 -0.1676,1.1555 -0.1173,0.3851 -0.2678,0.7371 -0.469,1.0552 -0.2007,0.3684 -0.4857,0.7368 -0.8541,1.1052 -0.3852,0.3856 -0.8206,0.7204 -1.3063,1.005 -0.2846,0.2012 -0.6031,0.3852 -0.938,0.5696 -0.3181,0.184 -0.6697,0.3348 -1.0217,0.4689 -0.2343,0.0839 -0.5021,0.3182 -0.8039,0.6865 -0.3181,0.3517 -0.5691,0.5864 -0.7703,0.6869 -0.3851,0.2176 -0.7535,0.3684 -1.1052,0.4187 -0.3352,0.0335 -0.7036,0.2008 -1.1055,0.4522 -0.3852,0.2678 -0.7201,0.5361 -1.005,0.8206 -0.2679,0.2678 -0.6027,0.5361 -1.0046,0.8039 -0.1509,0.1341 -0.4522,0.2514 -0.9045,0.3684 -0.4354,0.1173 -0.7371,0.2179 -0.9044,0.3185 -0.3017,0.2007 -0.536,0.4685 -0.7036,0.8373 -0.184,0.3517 -0.3684,0.5859 -0.5692,0.6865 -0.4023,0.2179 -0.9212,0.4019 -1.5745,0.5361 -0.3181,0 -0.6195,-0.1677 -0.8877,-0.4858 -0.251,-0.3349 -0.3851,-0.7368 -0.3851,-1.2393 0,-0.2179 -0.0336,-0.4689 -0.1006,-0.7204 -0.0671,-0.2678 -0.0168,-0.5524 0.1508,-0.8374 0.1006,-0.2342 0.3349,-0.5025 0.7368,-0.787 0.3852,-0.3014 0.7372,-0.5863 1.0218,-0.8877 0.2007,-0.2007 0.469,-0.5192 0.7871,-0.9547 0.3348,-0.4354 0.603,-0.7535 0.8373,-0.9547 0.4522,-0.3852 0.8709,-0.7536 1.2225,-1.1052 0.3688,-0.3348 0.7037,-0.6533 1.0386,-0.9547 0.5863,-0.5193 1.1056,-0.9212 1.541,-1.2057 0.4354,-0.2683 0.7535,-0.5193 0.9543,-0.7037 0.3017,-0.3013 0.5863,-0.6027 0.8545,-0.9044 0.2846,-0.3181 0.5189,-0.6195 0.7201,-0.9212 0.3181,-0.4853 0.536,-0.9878 0.603,-1.4903 0.0835,-0.5025 0.2176,-0.938 0.3684,-1.3064 0.3014,-0.5863 0.6698,-1.0217 1.1387,-1.3231 0.4522,-0.285 0.938,-0.4354 1.474,-0.4354 0.3181,0 0.6194,0.0838 0.8709,0.2678 0.2678,0.1844 0.5193,0.4187 0.7368,0.7204 0.1676,0.2175 0.3348,0.4686 0.5025,0.7368 0.1508,0.251 0.2846,0.5025 0.3851,0.72 0.2012,0.5025 0.3517,0.9883 0.469,1.474 0.1173,0.5025 0.1676,0.9379 0.1676,1.3231 z m -36.595,34.0825 4.4551,-2.9308 c 0.1676,-0.1676 0.3688,-0.3855 0.5863,-0.6701 0.2343,-0.2678 0.5025,-0.6697 0.7871,-1.189 0.2346,-0.4354 0.536,-0.7871 0.9211,-1.0888 0.3684,-0.2846 0.8039,-0.5528 1.2896,-0.7871 0.2682,-0.3181 0.6366,-0.7368 1.1391,-1.2225 0.4858,-0.4857 1.1052,-1.0553 1.8587,-1.7083 0.3521,-0.2011 0.821,-0.4857 1.3734,-0.8709 0.5528,-0.3687 1.1559,-0.8708 1.8089,-1.4907 2.9814,-2.8138 5.5941,-4.924 7.8384,-6.3309 2.2275,-1.4069 4.1198,-2.1102 5.6608,-2.1102 0.8541,0 1.4736,0.1844 1.8926,0.536 0.402,0.3684 0.6027,0.8709 0.6027,1.5239 0,0.6869 -0.1173,1.2896 -0.3684,1.8088 -0.2343,0.5361 -0.6198,0.9715 -1.1387,1.3399 -0.821,0.5863 -1.7086,1.2393 -2.6629,1.9597 -0.5193,0.6865 -1.1559,1.4069 -1.9095,2.1772 -0.7535,0.7703 -1.6412,1.5239 -2.6462,2.2778 -0.3348,0.4355 -0.603,0.8039 -0.8373,1.1387 -0.1677,0.1509 -0.469,0.4523 -0.938,0.8709 -0.4522,0.4355 -1.0553,0.9212 -1.8088,1.474 -0.3349,0.72 -1.0385,1.658 -2.1269,2.7971 -1.1056,1.1554 -2.5624,2.5288 -4.4048,4.1197 -0.2179,0.2347 -0.6366,0.754 -1.2229,1.5746 -0.5859,0.8206 -1.3562,1.8923 -2.3109,3.2489 l 0.3516,0.4354 c 0.72,-0.2343 1.474,-0.6194 2.261,-1.1722 0.7703,-0.5696 1.6412,-1.3063 2.5959,-2.2108 1.1052,-1.0217 2.0096,-1.8423 2.7133,-2.4785 0.7033,-0.6366 1.2058,-1.0553 1.5071,-1.2565 0.2179,-0.1337 0.4522,-0.2678 0.6869,-0.3851 0.2175,-0.1337 0.4857,-0.3014 0.7703,-0.5025 1.5075,-1.7917 2.9144,-3.1316 4.2375,-3.9861 1.3063,-0.8709 2.5121,-1.3063 3.6173,-1.3063 0.7036,0 1.2229,0.2682 1.5745,0.8042 0.3684,0.5524 0.5696,1.3566 0.6362,2.4283 -0.0666,1.6412 -0.0834,3.2157 -0.0834,4.7228 -0.0335,1.0386 0.2511,1.9765 0.8542,2.8139 0.6026,0.8373 1.3897,1.256 2.3779,1.256 0.3018,0 0.5864,-0.0838 0.8542,-0.251 0.2849,-0.1677 0.5695,-0.3684 0.8709,-0.6366 0.2179,-0.3014 0.4354,-0.5692 0.6533,-0.8374 0.2176,-0.2678 0.4355,-0.5193 0.6698,-0.7871 0.1341,-0.067 0.3185,-0.1844 0.5528,-0.3516 0.2514,-0.1676 0.4857,-0.3516 0.7204,-0.5863 0.4518,0.9882 0.8373,1.8423 1.1554,2.5791 0.3014,0.7372 0.5361,1.3902 0.7033,1.943 -0.7535,0.6865 -1.4903,1.4069 -2.2275,2.1269 -0.7368,0.7368 -1.5239,1.4404 -2.3277,2.0934 -0.9883,0.754 -1.943,1.3231 -2.8474,1.6915 -0.9212,0.3856 -1.8423,0.5696 -2.7468,0.5696 -2.1269,0 -3.7681,-0.6027 -4.9072,-1.8089 -1.1555,-1.2225 -1.8256,-3.0481 -2.0096,-5.5099 0,-0.285 -0.0503,-0.5863 -0.1341,-0.9044 -0.0838,-0.3018 -0.2511,-0.6199 -0.5193,-0.9547 -0.1504,0.1676 -0.3348,0.3348 -0.5356,0.5192 -0.2012,0.184 -0.4191,0.4187 -0.6869,0.7033 -0.4187,0.3349 -0.9547,0.7372 -1.5909,1.2393 -0.6366,0.4857 -1.3902,1.072 -2.2275,1.7585 -1.1559,1.1727 -2.1106,2.1441 -2.8977,2.8977 -0.7871,0.7535 -1.3398,1.2895 -1.6747,1.6244 -0.653,0.5528 -1.4069,1.1056 -2.2778,1.658 -0.8709,0.5528 -1.8424,1.1391 -2.9308,1.7254 -0.6869,0.3516 -1.2728,0.6362 -1.7585,0.8541 -0.4858,0.2176 -0.8542,0.3181 -1.0889,0.3181 -1.5573,0 -2.73,-0.3851 -3.4835,-1.1554 -0.7536,-0.7707 -1.122,-1.9597 -1.122,-3.5507 0,-0.8876 0.184,-1.7254 0.5692,-2.5292 0.3688,-0.8039 0.9379,-1.5909 1.6919,-2.3277 0.0666,-0.4359 0.1002,-0.7707 0.1002,-1.0385 0,-0.1677 -0.0336,-0.3349 -0.117,-0.5193 -0.0838,-0.1676 -0.2011,-0.3684 -0.3185,-0.6031 -0.2007,-0.4522 -0.4187,-0.971 -0.6697,-1.5574 -0.2347,-0.5695 -0.5025,-1.189 -0.8039,-1.8423 0.1338,-0.1341 0.3182,-0.3852 0.5692,-0.7536 0.2347,-0.3851 0.5193,-0.8541 0.8541,-1.4069 z m 36.1596,2.1605 0.2012,-0.3852 c 0.1839,-0.2678 0.4354,-0.6031 0.7535,-0.9882 0.3013,-0.3852 0.6697,-0.8541 1.1052,-1.3734 2.3113,-2.1605 4.5724,-4.7396 6.7831,-7.7207 2.2108,-2.9982 4.388,-6.4315 6.5485,-10.317 0.2682,-0.3684 0.5695,-0.8373 0.8876,-1.4237 0.3349,-0.5859 0.6869,-1.3231 1.0888,-2.2107 0,-0.2008 -0.0503,-0.3516 -0.1508,-0.4355 -0.1006,-0.1005 -0.2678,-0.1504 -0.5025,-0.1504 -0.184,0 -0.5025,0.0499 -0.9547,0.1672 -0.4355,0.1173 -0.7704,0.1676 -1.0046,0.1676 l -6.1302,0 c -0.2678,0 -0.6865,-0.0167 -1.3063,-0.0503 -0.6027,-0.0335 -1.0382,-0.0502 -1.2896,-0.0502 -0.3349,-0.1509 -0.6362,-0.3014 -0.9044,-0.4187 -0.2846,-0.1006 -0.5524,-0.2347 -0.8206,-0.3517 -0.3852,-0.1341 -0.6865,-0.3185 -0.9045,-0.5192 -0.2175,-0.2179 -0.3181,-0.469 -0.3181,-0.7703 0,-2.0938 0.218,-3.6848 0.6698,-4.8067 0.4358,-1.1056 1.1056,-1.6584 2.0267,-1.6584 0.9212,0 1.7753,0.0336 2.5792,0.1174 0.8038,0.0838 1.5075,0.1844 2.1437,0.3181 0.4857,-0.1002 0.9379,-0.2008 1.3734,-0.3014 0.8709,0 1.6244,0.0336 2.2443,0.1006 0.6198,0.0671 1.1055,0.1505 1.4236,0.2511 0.4355,-0.1006 0.8542,-0.184 1.2561,-0.2678 0.4019,-0.0839 0.8541,-0.1677 1.3566,-0.2683 l 1.6077,0.4858 c 1.1559,-0.1337 2.3784,-1.725 3.6679,-4.8067 1.2896,-3.0649 2.6798,-4.6055 4.1537,-4.6055 0.7704,0 1.3902,0.2511 1.8089,0.7368 0.4187,0.4857 0.6362,1.2057 0.6362,2.1605 0,0.7535 -0.2175,1.7417 -0.6697,2.9643 -0.4355,1.2229 -0.6869,2.1437 -0.754,2.7635 0.0671,0.1341 0.1509,0.2678 0.2682,0.4187 0.117,0.1509 0.2846,0.3181 0.5193,0.5192 0.2007,0.1174 0.3349,0.3517 0.4187,0.653 0.0834,0.3185 0.1169,0.7037 0.1169,1.1559 0,1.9593 -0.0834,3.4836 -0.2678,4.5388 -0.1844,1.0717 -0.469,1.6077 -0.8541,1.6412 l -3.3499,0.6865 c -0.0666,0.3353 -0.1505,0.7372 -0.2343,1.2062 -0.1006,0.469 -0.2343,1.0214 -0.4019,1.6412 -0.5528,1.6412 -1.1722,3.7183 -1.8591,6.2303 -0.6865,2.5121 -1.4572,5.4932 -2.3114,8.9269 -0.5192,2.7464 -0.9211,4.9739 -1.2057,6.6658 -0.2846,1.7082 -0.4187,2.8469 -0.4187,3.4333 0,0.5192 0.0838,0.9211 0.2511,1.1722 0.1676,0.2682 0.4023,0.4019 0.7371,0.4019 0.184,0 0.9045,-0.469 2.127,-1.4233 1.2393,-0.9547 2.9475,-2.3616 5.1415,-4.2207 l 1.9094,4.5221 c -0.3348,0.3516 -0.7871,0.787 -1.3734,1.2728 -0.5863,0.4857 -1.2895,1.0217 -2.1101,1.5741 -0.3349,0.3521 -0.7368,0.754 -1.2226,1.2062 -0.5025,0.4354 -1.0385,0.9547 -1.6248,1.5406 -0.5859,0.6534 -1.1722,1.3063 -1.7418,1.9597 -0.5691,0.653 -1.1555,1.2896 -1.7418,1.909 -0.787,0.8546 -1.5574,1.474 -2.3113,1.8424 -0.7536,0.3851 -1.4568,0.5695 -2.1102,0.5695 -1.4404,0 -2.5121,-0.4186 -3.2157,-1.2728 -0.7033,-0.8541 -1.0549,-2.1437 -1.0549,-3.8855 0,-1.8926 0.067,-3.5338 0.2007,-4.924 0.1341,-1.3901 0.3353,-2.5125 0.6366,-3.3666 0.1341,-0.251 0.2343,-0.4853 0.2846,-0.6865 0,-0.3181 0.0503,-0.7703 0.1509,-1.3231 0.1006,-0.5528 0.2175,-1.2057 0.3516,-1.9597 0.1844,-1.2728 0.4019,-2.5456 0.6366,-3.8352 0.3517,-0.7703 0.7368,-1.6077 1.122,-2.4953 0,-0.1676 -0.1341,-0.3185 -0.3852,-0.4355 l -0.4857,0.2846 c -0.5025,0.7871 -1.1387,1.6077 -1.9258,2.4786 -0.7875,0.8709 -1.7087,1.7753 -2.7971,2.73 -1.6579,1.5913 -3.3666,3.2158 -5.0916,4.857 -0.1002,0.1676 -0.2846,0.4019 -0.5356,0.7371 -0.2683,0.3181 -0.5528,0.7368 -0.8877,1.2226 -0.1676,-0.3852 -0.3688,-0.8877 -0.6198,-1.5075 -0.2347,-0.6027 -0.4858,-1.2896 -0.7536,-2.0767 -0.067,-0.2011 -0.1509,-0.3851 -0.2514,-0.5528 -0.0839,-0.1504 -0.2008,-0.2845 -0.3349,-0.3851 z m 27.1824,0 0.3014,-0.3349 0.1341,-0.5025 c 0.8876,-1.2057 2.445,-2.7803 4.6725,-4.7228 2.2108,-1.943 3.7518,-3.5171 4.6059,-4.7233 0.3349,-0.5193 0.7033,-0.9044 1.122,-1.1387 0.4358,-0.2179 0.8545,-0.3349 1.29,-0.3349 1.1387,0 2.1101,0.2846 2.8804,0.8542 0.7871,0.5691 1.3231,1.44 1.5746,2.5791 0.2343,1.0218 0.4518,2.0431 0.6362,3.0649 0.2012,1.0385 0.3684,2.0599 0.5025,3.1152 0.2175,0.6529 0.5025,1.6412 0.8206,2.9643 0.3349,1.3231 0.5863,2.077 0.7368,2.2778 0.1676,0.3181 0.4187,0.5528 0.7372,0.7032 0.3348,0.1509 0.7368,0.218 1.2393,0.218 0.5863,0 1.189,-0.1006 1.8088,-0.3181 0.6194,-0.218 1.256,-0.5696 1.9094,-1.1056 0.5021,-0.4187 1.0046,-0.8541 1.5574,-1.2896 0.536,-0.4522 1.072,-0.8876 1.5909,-1.3063 l 1.9597,4.5221 c -0.5192,0.5192 -1.2225,1.1219 -2.0934,1.792 -0.8541,0.6698 -1.8926,1.4405 -3.1152,2.3281 -1.3398,0.9879 -2.4789,1.7083 -3.4332,2.194 -0.938,0.469 -1.6584,0.7033 -2.1609,0.7033 -2.9643,0 -4.9069,-0.3516 -5.7782,-1.0385 -0.8876,-0.6865 -1.8754,-2.5959 -2.9475,-5.7279 -0.1341,-0.2678 -0.3349,-0.5859 -0.5863,-0.9379 -0.2678,-0.3684 -0.5692,-0.7871 -0.8877,-1.2728 -0.4019,-0.7536 -0.7367,-1.3231 -1.0381,-1.6915 -0.285,-0.3852 -0.536,-0.5696 -0.7372,-0.5696 -0.5188,0 -1.2225,0.352 -2.1101,1.0553 -0.8709,0.7033 -1.9594,1.7585 -3.2322,3.1655 -0.1676,-0.4187 -0.3688,-0.938 -0.6198,-1.5243 -0.2347,-0.5859 -0.4857,-1.2728 -0.7536,-2.0599 -0.067,-0.2011 -0.1508,-0.3851 -0.2514,-0.5528 -0.0838,-0.1504 -0.2008,-0.2845 -0.3349,-0.3851 z m 20.4999,-38.7048 c 0.8206,0 1.4233,0.1672 1.7921,0.4853 0.3851,0.3353 0.5691,0.8043 0.5691,1.4237 -0.2007,0.9212 -0.3516,1.6915 -0.4857,2.3113 -0.3349,1.1723 -0.6194,2.1437 -0.8709,2.8973 -0.2343,0.7539 -0.4187,1.29 -0.5524,1.6081 -0.3017,0.72 -0.7036,1.3566 -1.2061,1.8926 -0.5021,0.5524 -1.122,1.0214 -1.842,1.4568 -0.754,0.5193 -1.3734,0.8877 -1.8927,1.1056 -0.5025,0.2008 -0.8541,0.3013 -1.0552,0.2678 -0.5528,-0.067 -1.0885,-0.1341 -1.591,-0.184 -0.5025,-0.0335 -1.005,-0.067 -1.4907,-0.067 -0.4354,-0.2347 -0.7703,-0.6702 -1.005,-1.3231 -0.251,-0.6534 -0.3684,-1.5411 -0.3684,-2.6462 0,-0.9883 0.5863,-2.2276 1.7921,-3.7015 1.1894,-1.4908 2.2443,-2.2946 3.1655,-2.3952 0.5527,-0.6865 1.2057,-1.4568 1.9597,-2.3444 0.3181,-0.2347 0.7535,-0.4187 1.2728,-0.5696 0.5192,-0.1509 1.1219,-0.2175 1.8088,-0.2175 z m 7.5702,38.7048 0.4355,-0.3852 c 0.0335,-0.3684 0.2678,-0.7871 0.6865,-1.2728 0.4354,-0.5025 1.0385,-1.072 1.8256,-1.725 0.4857,-0.3516 1.005,-0.6869 1.541,-1.0218 0.536,-0.3181 1.0549,-0.6865 1.5406,-1.072 2.0603,-1.7753 4.0531,-3.4668 5.9961,-5.108 1.1051,-0.9715 2.2275,-1.8256 3.3327,-2.5289 1.1055,-0.7036 2.1604,-1.256 3.1487,-1.6915 0.6869,-0.8876 1.9597,-1.7753 3.8519,-2.6965 1.8759,-0.9212 3.4002,-1.3734 4.5892,-1.3734 0.4522,0 0.8206,0.1337 1.1055,0.3852 0.2679,0.2678 0.4355,0.6027 0.5021,0.9882 l 0,2.6965 c 0,0.9543 -0.2678,1.7917 -0.8038,2.5289 -0.536,0.7368 -1.3566,1.4237 -2.4283,2.0431 -0.7204,0.3181 -1.4404,0.6869 -2.1604,1.072 -0.7205,0.402 -1.4405,0.7536 -2.1605,1.0885 -0.2682,0.3185 -0.9547,0.9379 -2.0938,1.8256 -1.122,0.9044 -2.6462,2.1101 -4.5888,3.6176 -0.8709,0.6865 -1.608,1.2896 -2.194,1.8424 -0.603,0.536 -1.0049,0.9715 -1.2396,1.2896 -0.3181,0.6198 -0.5692,1.3231 -0.7536,2.0599 -0.1844,0.7539 -0.2678,1.6248 -0.2678,2.6126 0,0.754 0.1169,1.3902 0.3349,1.9262 0.2343,0.5528 0.5863,0.9882 1.0385,1.3063 0.3181,0.2347 0.7703,0.4523 1.3399,0.6869 0.5859,0.2343 1.2895,0.4523 2.1437,0.6865 0.4857,-0.2011 1.1387,-0.3851 1.9425,-0.5695 0.8042,-0.1672 1.6919,-0.4187 2.663,-0.7033 1.1223,-0.6533 2.261,-1.3398 3.4169,-2.0599 1.1722,-0.7371 2.3109,-1.4739 3.4668,-2.2275 0.1672,-0.0838 0.3684,-0.2011 0.6027,-0.3185 0.2514,-0.1006 0.5025,-0.2846 0.7707,-0.5025 0.3181,-0.4354 0.7703,-0.9212 1.3398,-1.4903 0.586,-0.5528 1.2728,-1.1894 2.0935,-1.9094 1.3063,2.8473 1.9593,4.3544 1.9593,4.5221 -1.2058,0.9882 -2.4451,1.9928 -3.6844,3.0146 -1.2393,1.0385 -2.6629,1.8758 -4.271,2.5288 -0.5189,0.4355 -0.9543,0.8206 -1.3231,1.1894 -1.6412,1.6412 -3.5339,2.8637 -5.7111,3.7011 -2.1772,0.8374 -4.6558,1.256 -7.4361,1.256 -0.6194,0 -1.189,-0.0498 -1.6747,-0.1504 -0.4858,-0.1006 -0.9044,-0.2179 -1.2226,-0.3852 -0.9882,-0.6533 -1.8088,-1.2397 -2.5124,-1.725 -0.7033,-0.5193 -1.3231,-1.0218 -1.8089,-1.4907 -0.4853,-0.4858 -0.8541,-0.938 -1.0716,-1.3567 -0.3014,-0.4522 -0.5025,-1.0217 -0.6199,-1.6747 -0.1169,-0.6534 -0.1672,-1.4572 -0.1672,-2.3951 0,-0.2679 0.0834,-0.6865 0.2343,-1.2896 0.1676,-0.5863 0.2514,-0.9882 0.2514,-1.2225 -0.2347,-0.7205 -0.5025,-1.4572 -0.8377,-2.2108 -0.3181,-0.7535 -0.7033,-1.5243 -1.122,-2.3113 z m 30.9674,0 c 0.2342,-0.2343 0.4689,-0.5361 0.7032,-0.9044 0.2515,-0.3852 0.536,-0.7871 0.8709,-1.2561 l 3.7686,-2.5959 c 0.4689,-0.5528 1.1722,-1.2561 2.1101,-2.1269 0.9547,-0.8542 2.127,-1.9095 3.5339,-3.1487 0.1676,-0.3684 0.4354,-0.7871 0.8038,-1.2561 0.3852,-0.469 0.8374,-0.9379 1.3567,-1.4069 0.4522,-0.4187 0.9211,-0.8206 1.3733,-1.1894 0.4523,-0.3852 0.8877,-0.7536 1.2729,-1.1052 0.4857,-0.5025 0.9547,-0.9882 1.4069,-1.474 0.4354,-0.4857 0.8876,-0.9714 1.3398,-1.4236 0.5193,-0.4522 1.0721,-0.8206 1.6245,-1.0884 0.5528,-0.2511 1.1558,-0.3852 1.8088,-0.3852 0.7204,0 1.2728,0.0838 1.6416,0.2678 0.3852,0.1844 0.5859,0.4355 0.6195,0.7703 -0.3349,0.7372 -0.6698,1.4908 -1.0214,2.2443 l 0.2846,0.4522 c 1.4404,-0.5691 2.5624,-0.9711 3.383,-1.2393 0.8206,-0.251 1.3398,-0.3851 1.5745,-0.3851 2.3948,0 4.1701,0.72 5.3762,2.1772 1.189,1.4572 1.7917,3.668 1.7917,6.5987 0,0.5696 -0.0667,1.2226 -0.2008,1.9765 -0.1341,0.7368 -0.3516,1.5574 -0.6366,2.4451 -0.3348,0.9882 -0.6865,1.792 -1.0549,2.4454 -0.3851,0.6697 -0.7371,1.1387 -1.0552,1.4233 0.1341,0.4191 0.2849,0.7204 0.4354,0.8876 0.1676,0.1844 0.3852,0.285 0.6366,0.285 0.2678,0 0.536,-0.0838 0.8206,-0.2514 0.2678,-0.1673 0.6195,-0.402 1.005,-0.7368 0.3181,0.72 0.6362,1.4739 0.9543,2.2443 0.3185,0.7703 0.6366,1.5242 0.9547,2.2778 -0.5859,0.5192 -1.1554,1.0385 -1.725,1.5238 -0.5528,0.4858 -1.1387,0.9715 -1.7585,1.4237 -0.7536,0.6198 -1.4572,1.0721 -2.127,1.3566 -0.6701,0.2682 -1.3398,0.4187 -1.9932,0.4187 -0.7536,0 -1.373,-0.184 -1.8587,-0.5528 -0.5025,-0.3516 -0.8877,-0.8709 -1.1894,-1.5238 -0.8206,1.0884 -1.8089,2.0766 -2.9643,2.981 -1.1555,0.9045 -2.4451,1.6412 -3.852,2.2276 -0.8206,0.4019 -1.5578,0.7036 -2.2275,0.9044 -0.6701,0.2179 -1.2896,0.3348 -1.8424,0.3348 -0.1676,0 -0.4857,0.0503 -0.9547,0.1844 -0.4857,0.1341 -0.8541,0.2008 -1.1555,0.2008 -1.8591,0 -3.5506,-0.7871 -5.0581,-2.3612 -1.5071,-1.5746 -2.261,-3.3164 -2.261,-5.2589 0,-0.7707 0.1844,-1.8256 0.5528,-3.1152 0.3516,-1.2896 0.536,-2.0435 0.536,-2.2778 0,-0.2347 -0.0671,-0.4187 -0.2179,-0.5695 -0.1505,-0.1342 -0.3517,-0.2176 -0.6195,-0.2176 -0.1676,0 -0.5528,0.2511 -1.1726,0.7368 -0.6194,0.4858 -1.5071,1.189 -2.6462,2.1102 -0.1002,0.1341 -0.2175,0.3349 -0.3516,0.5863 -0.1341,0.2678 -0.3349,0.5528 -0.6362,0.8877 -0.2682,-0.7536 -0.5528,-1.5075 -0.8877,-2.2778 -0.3185,-0.7704 -0.6869,-1.5243 -1.072,-2.2443 z m 23.5983,-8.9604 c -0.1677,0.0335 -0.402,0.2012 -0.7205,0.5193 -0.3013,0.3013 -0.6026,0.6869 -0.9044,1.1558 -0.4522,0.7536 -0.9711,1.5574 -1.5574,2.4451 -0.3684,0.4019 -0.7535,0.7032 -1.1558,0.9044 -0.4187,0.2175 -0.8877,0.3684 -1.4066,0.469 -0.3185,0.0335 -0.6701,0.3516 -1.0217,0.9547 -0.3684,0.6027 -0.72,1.4903 -1.0888,2.6294 -0.3517,1.0214 -0.6195,1.8759 -0.7871,2.5959 -0.1505,0.72 -0.2343,1.3231 -0.2343,1.8256 0,0.9044 0.2175,1.5909 0.6865,2.0599 0.4522,0.4522 1.1559,0.6869 2.1102,0.6869 1.5075,0 2.8809,-0.4187 4.1369,-1.2564 1.2561,-0.8374 2.4455,-2.0935 3.5674,-3.7514 0.5193,-0.6199 1.005,-1.2058 1.474,-1.7753 0.251,-0.1844 0.4689,-0.5025 0.6362,-0.9547 0.1508,-0.4355 0.3185,-0.9883 0.4857,-1.6412 l 0.8877,-2.7971 c -0.3014,-0.9715 -0.5864,-1.7586 -0.8374,-2.3281 -0.2678,-0.5692 -0.5193,-0.9212 -0.7871,-1.0549 -0.1676,-0.1006 -0.5192,-0.2012 -1.0888,-0.3185 -0.5524,-0.1169 -1.3566,-0.2343 -2.3947,-0.3684 z" />
    </g>
  </g>
</svg>
