<?xml version="1.0" encoding="UTF-8" standalone="no"?>
<!-- Created with Inkscape (http://www.inkscape.org/) -->

<svg
   xmlns:dc="http://purl.org/dc/elements/1.1/"
   xmlns:cc="http://creativecommons.org/ns#"
   xmlns:rdf="http://www.w3.org/1999/02/22-rdf-syntax-ns#"
   xmlns:svg="http://www.w3.org/2000/svg"
   xmlns="http://www.w3.org/2000/svg"
   xmlns:sodipodi="http://sodipodi.sourceforge.net/DTD/sodipodi-0.dtd"
   xmlns:inkscape="http://www.inkscape.org/namespaces/inkscape"
   width="1000"
   height="1000"
   viewBox="0 0 1000 1000"
   id="svg2"
   version="1.1"
   inkscape:version="0.91 r13725"
   sodipodi:docname="borde.svg">
  <defs
     id="defs4" />
  <sodipodi:namedview
     id="base"
     pagecolor="#ffffff"
     bordercolor="#666666"
     borderopacity="1.0"
     inkscape:pageopacity="0.0"
     inkscape:pageshadow="2"
     inkscape:zoom="0.7"
     inkscape:cx="634.2493"
     inkscape:cy="488.58586"
     inkscape:document-units="px"
     inkscape:current-layer="g4225"
     showgrid="false"
     units="px"
     inkscape:snap-page="true"
     inkscape:window-width="1920"
     inkscape:window-height="1053"
     inkscape:window-x="0"
     inkscape:window-y="0"
     inkscape:window-maximized="1" />
  <metadata
     id="metadata7">
    <rdf:RDF>
      <cc:Work
         rdf:about="">
        <dc:format>image/svg+xml</dc:format>
        <dc:type
           rdf:resource="http://purl.org/dc/dcmitype/StillImage" />
        <dc:title></dc:title>
      </cc:Work>
    </rdf:RDF>
  </metadata>
  <g
     inkscape:label="Capa 1"
     inkscape:groupmode="layer"
     id="layer1"
     transform="translate(0,-52.362139)">
    <g
       id="g4225">
      <g
         id="g4233"
         transform="matrix(2.5527631,0,0,2.5527631,-6.2163212,-879.79391)">
        <path
           d="m 350.42794,646.68646 -87.01018,0 31.21567,-166.74218 86.84942,0 -3.84329,21.80692 -61.8388,0 -9.8602,49.01506 62.43484,0 -4.11406,22.62272 -62.43509,0 -10.10832,49.72259 62.75239,0 -4.04238,23.57489 z"
           style="fill:#1b1918;fill-rule:evenodd;stroke:#008a56;stroke-width:19.90929413;stroke-linecap:butt;stroke-linejoin:miter;stroke-dasharray:none"
           id="path4166"
           inkscape:connector-curvature="0" />
        <path
           d="m 182.07234,646.49881 -23.8275,0 30.374,-166.56299 87.75605,0 -4.15388,21.78303 -62.85667,0 -8.15445,49.07777 61.0016,0 -3.33684,22.51819 -62.46197,0 -14.34034,73.184 z"
           style="fill:#1b1918;fill-rule:evenodd;stroke:#008a56;stroke-width:19.90929413;stroke-linecap:butt;stroke-linejoin:miter;stroke-dasharray:none"
           id="path4168"
           inkscape:connector-curvature="0" />
        <path
           d="m 124.41256,596.21079 23.39844,0.11896 c -12.70826,38.51352 -74.413664,70.50193 -114.356191,34.37781 -8.42547,-7.73834 -13.316499,-17.56395 -17.754585,-30.37151 -2.676091,-12.767 -3.781818,-26.87515 -0.348666,-42.28514 4.042135,-26.17756 16.413428,-46.30736 32.843531,-62.58465 16.429853,-14.78558 29.290174,-20.10889 51.999251,-20.10889 17.772,0.59654 34.04656,9.38685 43.94111,20.64147 7.66617,10.13271 11.96165,19.19255 15.33881,36.42426 l -22.47439,0.25758 c -2.97723,-21.31342 -23.38526,-37.07555 -45.031658,-34.76331 -36.918019,2.90878 -51.960674,42.79731 -54.823916,57.11003 -2.090004,17.54952 -4.951254,39.44305 8.618344,54.09323 7.10721,7.67289 14.338854,15.21264 37.020304,14.71316 16.65732,-1.77817 34.389006,-15.75119 41.629616,-27.623 z"
           style="fill:#1b1918;fill-rule:evenodd;stroke:#008a56;stroke-width:19.90929413;stroke-linecap:butt;stroke-linejoin:miter;stroke-dasharray:none"
           id="path4170"
           inkscape:connector-curvature="0" />
        <path
           d="m 350.42794,646.68646 -87.01018,0 31.21567,-166.74218 86.86509,-0.0903 -3.85896,21.89726 -61.8388,0 -9.8602,49.01506 62.43484,0 -4.11406,22.62272 -62.43509,0 -10.10832,49.72259 62.75239,0 -4.04238,23.57489 z"
           style="fill:#008a56;fill-rule:evenodd;stroke:#ffffff;stroke-width:9.954772;stroke-linecap:butt;stroke-linejoin:miter;stroke-dasharray:none"
           id="path4172"
           inkscape:connector-curvature="0" />
        <path
           d="m 182.07234,646.49881 -23.8275,0 30.374,-166.56299 87.75605,0 -4.15388,21.78303 -62.85742,0 -8.1537,49.07777 61.0016,0 -3.33684,22.51819 -62.46197,0 -14.34034,73.184 z"
           style="fill:#008a56;fill-rule:evenodd;stroke:#ffffff;stroke-width:9.954772;stroke-linecap:butt;stroke-linejoin:miter;stroke-dasharray:none"
           id="path4174"
           inkscape:connector-curvature="0" />
        <path
           d="m 124.41256,596.21079 23.39844,0.11896 c -12.70826,38.51352 -74.413664,70.50193 -114.356191,34.37781 -8.42547,-7.73834 -13.316499,-17.56395 -17.754585,-30.37151 -2.676091,-12.767 -3.781818,-26.87515 -0.348666,-42.28514 4.042135,-26.17756 16.413428,-46.30736 32.843531,-62.58465 16.429853,-14.78558 29.290174,-20.10889 51.999251,-20.10889 17.772,0.59654 34.04656,9.38685 43.94111,20.64147 7.66617,10.13271 11.96165,19.3237 15.33881,36.55541 l -22.47439,-0.005 c -2.97723,-21.31341 -23.38526,-36.94365 -45.031658,-34.6314 -36.918019,2.90878 -51.960674,42.7973 -54.823916,57.11003 -2.090004,17.54951 -4.951254,39.44304 8.618344,54.09323 7.10721,7.67289 14.338854,15.21264 37.020304,14.71316 16.65732,-1.77818 34.389006,-15.75094 41.629616,-27.623 z"
           style="fill:#008a56;fill-rule:evenodd;stroke:#ffffff;stroke-width:9.954772;stroke-linecap:butt;stroke-linejoin:miter;stroke-dasharray:none"
           id="path4176"
           inkscape:connector-curvature="0" />
      </g>
    </g>
  </g>
</svg>
