<?xml version="1.0" encoding="UTF-8" standalone="no"?>
<!-- Created with Inkscape (http://www.inkscape.org/) -->

<svg
   xmlns:dc="http://purl.org/dc/elements/1.1/"
   xmlns:cc="http://creativecommons.org/ns#"
   xmlns:rdf="http://www.w3.org/1999/02/22-rdf-syntax-ns#"
   xmlns:svg="http://www.w3.org/2000/svg"
   xmlns="http://www.w3.org/2000/svg"
   xmlns:sodipodi="http://sodipodi.sourceforge.net/DTD/sodipodi-0.dtd"
   xmlns:inkscape="http://www.inkscape.org/namespaces/inkscape"
   width="1000"
   height="1000"
   viewBox="0 0 1000 1000"
   id="svg6495"
   version="1.1"
   inkscape:version="0.91 r13725"
   sodipodi:docname="codBarras.svg">
  <defs
     id="defs6497" />
  <sodipodi:namedview
     id="base"
     pagecolor="#ffffff"
     bordercolor="#666666"
     borderopacity="1.0"
     inkscape:pageopacity="0.0"
     inkscape:pageshadow="2"
     inkscape:zoom="0.35"
     inkscape:cx="386.72046"
     inkscape:cy="177.9106"
     inkscape:document-units="px"
     inkscape:current-layer="layer1"
     showgrid="false"
     units="px"
     inkscape:snap-page="true"
     inkscape:window-width="1920"
     inkscape:window-height="1053"
     inkscape:window-x="0"
     inkscape:window-y="0"
     inkscape:window-maximized="1" />
  <metadata
     id="metadata6500">
    <rdf:RDF>
      <cc:Work
         rdf:about="">
        <dc:format>image/svg+xml</dc:format>
        <dc:type
           rdf:resource="http://purl.org/dc/dcmitype/StillImage" />
        <dc:title></dc:title>
      </cc:Work>
    </rdf:RDF>
  </metadata>
  <g
     inkscape:label="Capa 1"
     inkscape:groupmode="layer"
     id="layer1"
     transform="translate(0,-52.362139)">
    <path
       inkscape:connector-curvature="0"
       id="path4170"
       style="fill:#4578c5;fill-opacity:1;fill-rule:nonzero;stroke:none"
       d="m 69.681046,-339.06309 c 0.6907,0 1.2504,-0.5676 1.2504,-1.2225 0,-0.6985 -0.5597,-1.2661 -1.2504,-1.2661 -0.6907,0 -1.25,0.5676 -1.25,1.2661 0,0.6549 0.5593,1.2225 1.25,1.2225 z m 16.25,2.4887 -9.9991,0 0,-16.2417 c 0,-0.6986 -0.5611,-1.2225 -1.25,-1.2225 l -12.5013,0 c -0.689,0 -1.2505,0.5239 -1.2505,1.2225 l 0,16.2417 -9.9991,0 0,-26.9822 17.5,-17.4642 17.5,17.4642 0,26.9822 z m 0,5.0209 -9.9991,0 0,-2.4886 9.9991,0 0,2.4886 z m -12.4996,0 -10.0008,0 0,-19.9965 10.0008,0 0,19.9965 z m -12.5013,0 -9.9991,0 0,-2.4886 9.9991,0 0,2.4886 z m 17.5,-47.5026 5.0009,0 0,9.4743 -5.0009,-4.9773 0,-4.497 z m 17.1355,21.612 -9.6346,-9.649 0,-13.2291 c 0,-0.6549 -0.5593,-1.2225 -1.25,-1.2225 l -7.5009,0 c -0.6889,0 -1.2482,0.5676 -1.2482,1.2225 l 0,3.2308 -6.6172,-6.5927 c -0.2253,-0.2183 -0.5375,-0.3929 -0.8837,-0.3929 -0.3445,0 -0.6567,0.1746 -0.8833,0.3929 l -26.251,26.24 c -0.2268,0.2183 -0.365,0.5239 -0.365,0.8732 0,0.6985 0.5595,1.2661 1.2485,1.2661 0.3462,0 0.6583,-0.131 0.8851,-0.3493 l 5.3655,-5.3702 0,30.737 c 0,0.6549 0.5594,1.2225 1.2501,1.2225 l 37.5001,0 c 0.6907,0 1.2504,-0.5676 1.2504,-1.2225 l 0,-30.737 5.3655,5.3702 c 0.2266,0.2183 0.5387,0.3493 0.8832,0.3493 0.6907,0 1.25,-0.5676 1.25,-1.2661 0,-0.3493 -0.1397,-0.6549 -0.3645,-0.8732" />
    <path
       inkscape:connector-curvature="0"
       id="path4172"
       style="fill:#4578c5;fill-opacity:1;fill-rule:nonzero;stroke:none"
       d="m 268.28824,-331.55349 c -13.8077,0 -25.0005,-11.177 -25.0005,-25.0174 0,-13.7967 11.1928,-24.9738 25.0005,-24.9738 13.8076,0 24.9991,11.1771 24.9991,24.9738 0,13.8404 -11.1915,25.0174 -24.9991,25.0174 z m 0,-52.5235 c -15.1873,0 -27.5009,12.3559 -27.5009,27.5061 0,15.1938 12.3136,27.5061 27.5009,27.5061 15.1873,0 27.4995,-12.3123 27.4995,-27.5061 0,-15.1502 -12.3122,-27.5061 -27.4995,-27.5061 z m 8.7491,42.6563 c -0.5986,0.3493 -0.8016,1.1351 -0.4571,1.7464 0.3449,0.5676 1.1103,0.7859 1.7075,0.4366 0.5986,-0.3493 0.8029,-1.0915 0.4585,-1.7028 -0.3463,-0.6112 -1.1103,-0.7859 -1.7089,-0.4802 z m -8.7491,-12.6179 c -1.3797,0 -2.5,-1.1352 -2.5,-2.5323 0,-1.3535 1.1203,-2.4887 2.5,-2.4887 1.3796,0 2.5004,1.1352 2.5004,2.4887 0,1.3971 -1.1208,2.5323 -2.5004,2.5323 z m 11.2495,-3.7548 -6.4281,0 c -0.4536,-1.7464 -1.8215,-3.1436 -3.571,-3.5802 l 0,-13.9277 c 0,-0.6985 -0.5615,-1.2661 -1.2504,-1.2661 -0.6907,0 -1.25,0.5676 -1.25,1.2661 l 0,13.9277 c -2.1525,0.5676 -3.7505,2.4887 -3.7505,4.8027 0,2.7942 2.2394,5.0209 5.0005,5.0209 2.3279,0 4.2656,-1.6154 4.8214,-3.7548 l 6.4281,0 c 0.6907,0 1.25,-0.5676 1.25,-1.2661 0,-0.6549 -0.5593,-1.2225 -1.25,-1.2225 z m 4.3626,-9.2124 c -0.5969,0.3493 -0.8016,1.0915 -0.4554,1.7028 0.3427,0.6112 1.1085,0.7859 1.7054,0.4366 0.5986,-0.3056 0.8033,-1.0915 0.4571,-1.7028 -0.3445,-0.5676 -1.1085,-0.7859 -1.7071,-0.4366 z m -15.6121,27.9427 c -0.6907,0 -1.25,0.5676 -1.25,1.2662 0,0.6986 0.5593,1.2225 1.25,1.2225 0.6889,0 1.2504,-0.5239 1.2504,-1.2225 0,-0.6986 -0.5615,-1.2662 -1.2504,-1.2662 z m 16.8621,-9.2123 c -0.5969,-0.3493 -1.3627,-0.131 -1.7054,0.4802 -0.3462,0.5676 -0.1415,1.3535 0.4554,1.7028 0.5986,0.3493 1.3626,0.131 1.7071,-0.4803 0.3462,-0.5676 0.1415,-1.3534 -0.4571,-1.7027 z m -32.4743,-18.7304 c -0.5985,-0.3493 -1.3626,-0.131 -1.7088,0.4366 -0.3445,0.6113 -0.1397,1.3972 0.4588,1.7028 0.5969,0.3493 1.3627,0.1746 1.7054,-0.4366 0.3463,-0.6113 0.1419,-1.3535 -0.4554,-1.7028 z m 24.3613,-4.7153 c 0.5986,0.3493 1.3626,0.131 1.7089,-0.4366 0.3444,-0.6113 0.1401,-1.3535 -0.4585,-1.7028 -0.5972,-0.3493 -1.3626,-0.1746 -1.7075,0.4366 -0.3445,0.6113 -0.1415,1.3535 0.4571,1.7028 z m -27.4991,13.9277 c -0.6907,0 -1.25,0.5676 -1.25,1.2225 0,0.6985 0.5593,1.2661 1.25,1.2661 0.6907,0 1.25,-0.5676 1.25,-1.2661 0,-0.6549 -0.5593,-1.2225 -1.25,-1.2225 z m 8.7491,-16.0671 c -0.5968,0.3493 -0.8016,1.0915 -0.4571,1.7028 0.3444,0.5676 1.1103,0.7859 1.7071,0.4366 0.5986,-0.3493 0.8033,-1.0915 0.4589,-1.7028 -0.3463,-0.6112 -1.1086,-0.7859 -1.7089,-0.4366 z m -6.8613,25.5851 c -0.5985,0.3493 -0.8033,1.1351 -0.4588,1.7027 0.3462,0.6113 1.1103,0.8296 1.7088,0.4803 0.5973,-0.3493 0.8017,-1.1352 0.4554,-1.7028 -0.3427,-0.6112 -1.1085,-0.8295 -1.7054,-0.4802 z m 8.1113,6.8547 c -0.5968,-0.3057 -1.3627,-0.131 -1.7071,0.4802 -0.3445,0.6113 -0.1397,1.3535 0.4571,1.7028 0.6003,0.3493 1.3626,0.131 1.7089,-0.4366 0.3444,-0.6113 0.1397,-1.3971 -0.4589,-1.7464 z m 27.5013,-16.3727 c -0.6907,0 -1.2504,0.5676 -1.2504,1.2225 0,0.6985 0.5597,1.2661 1.2504,1.2661 0.689,0 1.25,-0.5676 1.25,-1.2661 0,-0.6549 -0.561,-1.2225 -1.25,-1.2225" />
    <path
       inkscape:connector-curvature="0"
       id="path4198"
       style="fill:#4578c5;fill-opacity:1;fill-rule:nonzero;stroke:none"
       d="m 617.93113,-374.10059 c 0,-0.6549 -0.5589,-1.2225 -1.2487,-1.2225 -0.358,0 -0.6724,0.131 -0.9038,0.393 l 0,0 -32.8633,34.0552 -17.8527,-17.8572 c -0.2227,-0.2183 -0.5371,-0.3493 -0.882,-0.3493 -0.6898,0 -1.2487,0.5676 -1.2487,1.2662 0,0.3493 0.1397,0.6549 0.3668,0.8732 l 18.7478,18.7303 c 0.227,0.262 0.5414,0.393 0.8863,0.393 0.3537,0 0.668,-0.1747 0.8994,-0.393 l 0,0 33.7496,-35.0157 0,0 c 0.2139,-0.2183 0.3493,-0.5239 0.3493,-0.8732" />
    <path
       inkscape:connector-curvature="0"
       id="path4202"
       style="fill:#4578c5;fill-opacity:1;fill-rule:nonzero;stroke:none"
       d="m 905.0574,-356.59269 20.36321,-20.3458 c 0.2271,-0.2183 0.3668,-0.5676 0.3668,-0.8732 0,-0.6986 -0.5589,-1.2662 -1.2487,-1.2662 -0.3449,0 -0.6593,0.131 -0.8863,0.3493 l -20.36331,20.3895 -20.3676,-20.3895 c -0.227,-0.2183 -0.537,-0.3493 -0.8819,-0.3493 -0.6942,0 -1.2531,0.5676 -1.2531,1.2662 0,0.3056 0.1397,0.6549 0.3668,0.8732 l 20.3676,20.3458 -20.3676,20.3894 c -0.2271,0.2183 -0.3668,0.524 -0.3668,0.8732 0,0.6986 0.5589,1.2662 1.2531,1.2662 0.3449,0 0.6549,-0.1746 0.8819,-0.393 l 20.3676,-20.3457 20.36331,20.3457 c 0.227,0.2184 0.5414,0.393 0.8863,0.393 0.6898,0 1.2487,-0.5676 1.2487,-1.2662 0,-0.3492 -0.1397,-0.6549 -0.3668,-0.8732 l -20.36321,-20.3894" />
    <path
       inkscape:connector-curvature="0"
       id="path4216"
       style="fill:#4578c5;fill-opacity:1;fill-rule:nonzero;stroke:none"
       d="m 815.53738,-352.81604 c -2.0709,0 -3.7487,-1.6591 -3.7487,-3.7548 0,-2.0521 1.6778,-3.7548 3.7487,-3.7548 2.0721,0 3.75,1.7027 3.75,3.7548 0,2.0957 -1.6779,3.7548 -3.75,3.7548 z m 0,-9.9983 c -3.4505,0 -6.2492,2.7943 -6.2492,6.2435 0,3.4492 2.7987,6.2434 6.2492,6.2434 3.4535,0 6.2504,-2.7942 6.2504,-6.2434 0,-3.4492 -2.7969,-6.2435 -6.2504,-6.2435 z m -21.2487,9.9983 c -2.0722,0 -3.7505,-1.6591 -3.7505,-3.7548 0,-2.0521 1.6783,-3.7548 3.7505,-3.7548 2.0704,0 3.7487,1.7027 3.7487,3.7548 0,2.0957 -1.6783,3.7548 -3.7487,3.7548 z m 0,-9.9983 c -3.4523,0 -6.2509,2.7943 -6.2509,6.2435 0,3.4492 2.7986,6.2434 6.2509,6.2434 3.4518,0 6.2487,-2.7942 6.2487,-6.2434 0,-3.4492 -2.7969,-6.2435 -6.2487,-6.2435 z m -21.2505,9.9983 c -2.0721,0 -3.7504,-1.6591 -3.7504,-3.7548 0,-2.0521 1.6783,-3.7548 3.7504,-3.7548 2.0704,0 3.7505,1.7027 3.7505,3.7548 0,2.0957 -1.6801,3.7548 -3.7505,3.7548 z m 0,-9.9983 c -3.4518,0 -6.2508,2.7943 -6.2508,6.2435 0,3.4492 2.799,6.2434 6.2508,6.2434 3.4518,0 6.2505,-2.7942 6.2505,-6.2434 0,-3.4492 -2.7987,-6.2435 -6.2505,-6.2435" />
    <path
       inkscape:connector-curvature="0"
       id="path4232"
       style="fill:#4578c5;fill-opacity:1;fill-rule:nonzero;stroke:none"
       d="m 375.71675,-331.55349 c -13.8076,0 -25.0004,-11.2207 -25.0004,-25.0174 0,-13.7967 11.1928,-24.9738 25.0004,-24.9738 13.8076,0 24.9991,11.1771 24.9991,24.9738 0,13.7967 -11.1915,25.0174 -24.9991,25.0174 z m 0,-52.5235 c -15.1873,0 -27.5009,12.3122 -27.5009,27.5061 0,15.1938 12.3136,27.5061 27.5009,27.5061 15.1873,0 27.4996,-12.3123 27.4996,-27.5061 0,-15.1939 -12.3123,-27.5061 -27.4996,-27.5061 z m 2.7358,13.753 c -0.9706,0 -1.8028,0.3056 -2.497,0.9606 -0.6959,0.6112 -1.0421,1.3534 -1.0421,2.2703 0,0.8732 0.3462,1.6154 1.0421,2.2267 0.6942,0.6549 1.5264,0.9605 2.497,0.9605 0.9688,0 1.7992,-0.3056 2.4882,-0.9605 0.6872,-0.6113 1.0317,-1.3535 1.0317,-2.2267 0,-0.9169 -0.3445,-1.6591 -1.0317,-2.2703 -0.689,-0.655 -1.5194,-0.9606 -2.4882,-0.9606 z m 0.9361,25.0175 c -0.7641,0 -1.3029,-0.087 -1.615,-0.3493 -0.3105,-0.262 -0.4655,-0.6986 -0.4655,-1.3971 0,-0.262 0.048,-0.6549 0.145,-1.1789 0.096,-0.5239 0.203,-0.9605 0.324,-1.3971 l 1.477,-5.0646 c 0.1432,-0.4803 0.2423,-1.0042 0.2969,-1.5281 0.053,-0.5676 0.08,-0.9606 0.08,-1.1789 0,-1.0915 -0.3873,-1.9647 -1.1596,-2.6196 -0.7728,-0.6549 -1.8726,-1.0042 -3.3003,-1.0042 -0.7912,0 -1.6303,0.131 -2.5188,0.393 -0.8868,0.3056 -1.8145,0.6112 -2.7869,1.0041 l -0.3955,1.5718 c 0.2881,-0.087 0.6326,-0.2183 1.0352,-0.3493 0.4025,-0.087 0.7963,-0.1746 1.1801,-0.1746 0.7811,0 1.3098,0.131 1.5862,0.3929 0.2746,0.262 0.4143,0.6986 0.4143,1.3535 0,0.393 -0.046,0.7859 -0.1349,1.2225 -0.09,0.4366 -0.2013,0.8732 -0.334,1.3971 l -1.484,5.0647 c -0.131,0.5676 -0.2266,1.0478 -0.2882,1.4408 -0.058,0.4366 -0.089,0.8732 -0.089,1.2661 0,1.0479 0.3973,1.9211 1.1937,2.576 0.7968,0.6986 1.9137,1.0478 3.3514,1.0478 0.9348,0 1.7551,-0.1309 2.4611,-0.3929 0.7078,-0.2183 1.6526,-0.5676 2.838,-1.0042 l 0.3955,-1.5718 c -0.2047,0.087 -0.5322,0.1747 -0.9858,0.3056 -0.4554,0.131 -0.861,0.1747 -1.2212,0.1747" />
    <path
       inkscape:connector-curvature="0"
       id="path4236"
       style="fill:#4578c5;fill-opacity:1;fill-rule:nonzero;stroke:none"
       d="m 482.00294,-331.55349 c -13.8076,0 -25.0009,-11.2207 -25.0009,-25.0174 0,-13.7967 11.1933,-24.9738 25.0009,-24.9738 13.8076,0 24.9987,11.1771 24.9987,24.9738 0,13.7967 -11.1911,25.0174 -24.9987,25.0174 z m 0,-52.5235 c -15.1873,0 -27.5013,12.3122 -27.5013,27.5061 0,15.1938 12.314,27.5061 27.5013,27.5061 15.1873,0 27.4991,-12.3123 27.4991,-27.5061 0,-15.1939 -12.3118,-27.5061 -27.4991,-27.5061 z m 2.5,15.0192 -5.0004,0 c -0.6907,0 -1.25,0.5676 -1.25,1.2225 0,0.044 0.015,0.087 0.017,0.087 l -0.015,0 1.25,15.0192 0.015,0 c 0.048,0.6549 0.5732,1.1788 1.2329,1.1788 l 2.5005,0 c 0.6584,0 1.1836,-0.5239 1.2312,-1.1788 l 0.015,0 1.2504,-15.0192 -0.015,0 c 0,0 0.017,-0.044 0.017,-0.087 0,-0.6549 -0.5597,-1.2225 -1.2487,-1.2225 z m -2.5,19.9965 c -1.3797,0 -2.5004,1.1352 -2.5004,2.4886 0,1.3972 1.1207,2.4887 2.5004,2.4887 1.3797,0 2.5,-1.0915 2.5,-2.4887 0,-1.3534 -1.1203,-2.4886 -2.5,-2.4886" />
    <path
       inkscape:connector-curvature="0"
       id="path4364"
       style="fill:#4578c5;fill-opacity:1;fill-rule:nonzero;stroke:none"
       d="m 158.8939,-340.65669 c -0.3842,0.3056 -0.8339,0.5676 -1.3491,0.7422 -0.5108,0.1747 -1.0522,0.262 -1.6198,0.262 -1.3404,0 -2.3577,-0.3929 -3.0562,-1.2225 -0.6942,-0.8295 -1.061,-1.8774 -1.1003,-3.1872 l -2.3358,0 c -0.018,1.0479 0.1266,1.9647 0.4279,2.7943 0.3012,0.7859 0.7378,1.4844 1.3054,2.052 0.5676,0.5676 1.2574,0.9605 2.0652,1.2662 0.8033,0.2619 1.7027,0.3929 2.6938,0.3929 0.9169,0 1.7857,-0.087 2.5978,-0.3493 0.8165,-0.2619 1.5238,-0.6549 2.1306,-1.1788 0.6069,-0.4803 1.0872,-1.1352 1.4452,-1.8774 0.358,-0.7859 0.537,-1.6591 0.537,-2.6633 0,-1.2225 -0.2881,-2.2703 -0.8688,-3.1436 -0.5763,-0.8732 -1.4626,-1.4844 -2.6546,-1.7464 l 0,-0.044 c 0.7728,-0.3493 1.4103,-0.8732 1.9255,-1.5718 0.5152,-0.6986 0.7727,-1.5281 0.7727,-2.4013 0,-0.9606 -0.1528,-1.7465 -0.454,-2.445 -0.3056,-0.6549 -0.7248,-1.2225 -1.2531,-1.6591 -0.5283,-0.4366 -1.157,-0.7423 -1.8817,-0.9606 -0.7292,-0.2183 -1.5107,-0.3492 -2.3533,-0.3492 -0.9737,0 -1.8294,0.1746 -2.5716,0.4802 -0.7423,0.3493 -1.3623,0.7859 -1.8556,1.3535 -0.4934,0.5676 -0.8732,1.2225 -1.1396,2.052 -0.2663,0.7859 -0.4191,1.6591 -0.454,2.6197 l 2.3358,0 c 0,-0.5676 0.074,-1.1352 0.2227,-1.6591 0.1441,-0.524 0.3711,-1.0042 0.6723,-1.3972 0.3013,-0.3929 0.6855,-0.7422 1.1527,-0.9605 0.4672,-0.2183 1.0129,-0.3493 1.6373,-0.3493 0.991,0 1.8162,0.262 2.4755,0.7859 0.6593,0.5676 0.9867,1.3535 0.9867,2.445 0,0.5239 -0.096,1.0042 -0.2969,1.3971 -0.2052,0.4366 -0.4759,0.7859 -0.812,1.0479 -0.3406,0.262 -0.7335,0.4803 -1.1832,0.6112 -0.4497,0.1747 -0.9213,0.2183 -1.419,0.2183 l -0.7684,0 c -0.074,0 -0.1572,0 -0.2445,0 l 0,2.0084 c 0.4366,-0.044 0.9037,-0.087 1.3971,-0.087 0.5894,0 1.1352,0.087 1.6416,0.262 0.5021,0.1746 0.9387,0.3929 1.3055,0.7422 0.3667,0.3056 0.6593,0.7422 0.8776,1.2225 0.2183,0.4803 0.3274,1.0042 0.3274,1.6591 0,0.5676 -0.1091,1.1352 -0.3405,1.6154 -0.2271,0.4803 -0.5371,0.8732 -0.9213,1.2225 z m 11.9106,2.7943 2.3358,0 0,-20.0838 -1.7857,0 c -0.1266,0.7858 -0.3667,1.3971 -0.716,1.8774 -0.3493,0.4802 -0.7728,0.8732 -1.2793,1.1788 -0.502,0.262 -1.0653,0.4803 -1.6896,0.5676 -0.6244,0.087 -1.2662,0.1746 -1.9254,0.1746 l 0,1.9211 5.0602,0 0,14.3643 z m 16.1981,-28.685 -50,0 0,-7.5096 c 0,-1.3971 1.1177,-2.4886 2.5017,-2.4886 l 4.9991,0 0,3.7111 c 0,0.6986 0.5589,1.2662 1.2487,1.2662 0.6899,0 1.2487,-0.5676 1.2487,-1.2662 l 0,-3.7111 29.9991,0 0,3.7111 c 0,0.6986 0.5589,1.2662 1.2531,1.2662 0.6898,0 1.2487,-0.5676 1.2487,-1.2662 l 0,-3.7111 4.9991,0 c 1.3797,0 2.5018,1.0915 2.5018,2.4886 l 0,7.5096 z m 0,32.4835 c 0,1.3971 -1.1221,2.4886 -2.5018,2.4886 l -44.9965,0 c -1.384,0 -2.5017,-1.0915 -2.5017,-2.4886 l 0,-29.9948 50,0 0,29.9948 z m -2.5018,-45.014 -4.9991,0 0,-3.7548 c 0,-0.6549 -0.5589,-1.2225 -1.2487,-1.2225 -0.6942,0 -1.2531,0.5676 -1.2531,1.2225 l 0,3.7548 -29.9991,0 0,-3.7548 c 0,-0.6549 -0.5588,-1.2225 -1.2487,-1.2225 -0.6898,0 -1.2487,0.5676 -1.2487,1.2225 l 0,3.7548 -4.9991,0 c -2.7637,0 -5.0035,2.2703 -5.0035,5.0209 l 0,39.9931 c 0,2.7506 2.2398,4.9773 5.0035,4.9773 l 44.9965,0 c 2.7637,0 5.0035,-2.2267 5.0035,-4.9773 l 0,-39.9931 c 0,-2.7506 -2.2398,-5.0209 -5.0035,-5.0209" />
    <path
       inkscape:connector-curvature="0"
       id="path4370"
       style="fill:#4578c5;fill-opacity:1;fill-rule:nonzero;stroke:none"
       d="m 713.50293,-336.55259 -45.0009,0 c -1.378,0 -2.5002,-1.1352 -2.5002,-2.5323 0,-0.5239 0.1125,-0.8296 0.1688,-0.9605 0.044,-0.044 0,0 0.077,-0.131 l 22.5005,-34.9721 c 0.039,-0.087 0.075,-0.131 0.1074,-0.2183 0.01,0 0.706,-1.2225 2.1472,-1.2225 1.4412,0 2.0075,0.9606 2.0809,1.0915 0.059,0.1747 0.085,0.1747 0.1737,0.3493 l 22.5005,34.9721 c 0.033,0.044 0.067,0.087 0.1026,0.1746 0.036,0.087 0.1432,0.3493 0.1432,0.9169 0,1.3971 -1.1221,2.5323 -2.5005,2.5323 z m 4.3577,-4.9773 -22.5004,-34.9721 c 0,0 -1.1548,-2.5759 -4.3577,-2.5759 -3.0135,0 -4.3574,2.5759 -4.3574,2.5759 l -22.5006,34.9721 c 0,0 -0.6413,0.8296 -0.6413,2.445 0,2.7943 2.2376,5.021 4.9988,5.021 l 45.0009,0 c 2.7611,0 4.9987,-2.2267 4.9987,-5.021 0,-1.7464 -0.641,-2.445 -0.641,-2.445 z m -26.8581,-5.0209 c -1.3815,0 -2.5,1.0915 -2.5,2.4886 0,1.3535 1.1185,2.4887 2.5,2.4887 1.3796,0 2.5004,-1.1352 2.5004,-2.4887 0,-1.3971 -1.1208,-2.4886 -2.5004,-2.4886 z m 0,-20.0402 c -1.3815,0 -2.5,1.1352 -2.5,2.5323 l 1.25,13.753 c 0,0.6986 0.5592,1.2225 1.25,1.2225 0.6907,0 1.25,-0.5239 1.25,-1.2225 l 1.2504,-13.753 c 0,-1.3971 -1.1208,-2.5323 -2.5004,-2.5323" />
    <path
       inkscape:connector-curvature="0"
       id="path4534"
       style="fill:#4578c5;fill-opacity:1;fill-rule:nonzero;stroke:none"
       d="m 500.01237,1006.9541 c -251.04708,0 -454.550916,-203.46152 -454.550916,-454.63289 0,-251.09137 203.503836,-454.472874 454.550916,-454.472874 251.04525,0 454.52545,203.381504 454.52545,454.472874 0,251.17137 -203.4802,454.63289 -454.52545,454.63289 z m 0,-954.591961 C 223.88184,52.362139 0,276.22398 0,552.32121 c 0,276.17724 223.88184,500.04089 500.01237,500.04089 276.13779,0 499.98761,-223.86365 499.98761,-500.04089 0,-276.09723 -223.84982,-499.959071 -499.98761,-499.959071 z m 53.21775,628.641171 c -11.51082,9.52561 -22.02164,15.00389 -40.0015,16.353 l 0,-119.94924 c 7.65267,1.9855 10.88356,4.28735 18.22713,6.98557 7.31812,2.93823 13.92352,6.35102 19.75803,10.95473 5.8254,4.52553 10.509,10.00379 14.01079,16.593 3.47634,6.34919 5.23814,14.52569 5.23814,24.05311 0,20.71853 -5.76177,35.72241 -17.23259,45.00983 z M 483.20705,507.86776 c -7.00904,-1.90549 -9.66902,-3.89097 -16.49623,-6.6692 -6.85086,-2.46004 -12.83627,-5.87464 -17.97986,-9.92198 -5.1836,-4.12916 -9.43084,-9.12924 -12.7799,-14.84569 -3.31816,-5.87465 -4.9945,-12.94022 -4.9945,-21.11671 0,-18.17848 4.89814,-31.11869 14.76533,-38.89701 9.79628,-7.70012 19.5053,-11.51109 37.48516,-11.51109 l 0,102.96168 z M 590.968,548.90843 c -11.01082,-8.57287 -23.69617,-15.63844 -38.02515,-21.11671 -14.31989,-5.39827 -24.71071,-10.16016 -39.71423,-14.28751 l 0,-108.59813 c 17.97986,0 26.81615,4.52553 34.97609,13.81295 8.15266,9.28743 12.5908,22.78219 13.27262,40.24793 l 56.98863,0 c 0,-16.82937 -2.94543,-31.59506 -8.73993,-44.29708 -5.85814,-12.78022 -13.67807,-23.18039 -23.50527,-31.59506 -9.85992,-8.1765 -21.42528,-14.36751 -34.76153,-18.41667 -13.33626,-4.12734 -23.22709,-6.19102 -38.23061,-6.19102 l 0,-33.81872 -30.02157,0 0,33.81872 c -15.00352,0 -25.08526,2.30186 -38.76333,6.58739 -13.63807,4.60553 -25.73434,10.95654 -36.24517,19.37122 -10.47809,8.41468 -18.82167,18.81303 -24.98889,31.35506 -6.17631,12.54384 -9.23992,27.07135 -9.23992,43.66253 0,18.81304 3.34179,34.53147 9.9781,47.2335 6.66722,12.78021 15.41624,23.41857 26.26706,31.83325 10.81992,8.41467 23.00528,15.24025 36.49971,20.48033 13.48716,5.39827 22.82164,9.9238 36.49244,13.65477 l 0,124.71113 c -23.00528,-0.7091 -35.25427,-7.70013 -45.23964,-20.71853 -10.01811,-12.86021 -14.85261,-30.8805 -14.51261,-53.58451 l -56.99591,0 c -0.34545,19.29123 2.4218,36.35878 8.24902,51.12266 5.86541,14.76569 14.08171,27.07135 24.75071,37.31152 10.66174,10.24016 23.49618,17.94029 38.50879,23.41856 15.01078,5.39827 27.25978,8.41468 45.23964,8.81105 l 0,35.24603 30.02157,0 0,-35.24603 c 16.67805,-0.63637 27.90342,-3.65096 42.23239,-8.65287 14.32716,-4.9219 26.85433,-11.98747 37.49061,-21.51308 10.66173,-9.36742 19.09985,-21.43307 25.26889,-35.48421 6.14358,-14.28933 9.23993,-31.1987 9.23993,-50.24992 0,-18.65666 -3.35089,-34.05691 -9.9872,-46.83712 -6.65995,-12.70202 -15.50351,-23.41856 -26.50524,-32.07143" />
    <path
       inkscape:connector-curvature="0"
       id="path4546"
       style="fill:#4578c5;fill-opacity:1;fill-rule:nonzero;stroke:none"
       d="m -439.78404,1017.7384 c -0.19647,-0.1353 -0.41477,-0.2619 -0.66364,-0.3492 -0.2445,-0.1005 -0.35365,-0.1791 -0.60688,-0.2402 l 0,3.9644 c 0.60251,-0.052 0.9518,-0.227 1.34038,-0.537 0.38421,-0.3144 0.57632,-0.8121 0.57632,-1.4888 0,-0.3231 -0.0568,-0.5895 -0.17465,-0.799 -0.11788,-0.214 -0.27506,-0.4017 -0.47153,-0.5502 z m 14.46472,6.0601 -2.50174,0 c -0.68984,0 -1.24869,0.5632 -1.24869,1.2531 0,0.6855 0.55885,1.2487 1.24869,1.2487 l 2.50174,0 c 0.68984,0 1.24869,-0.5632 1.24869,-1.2487 0,-0.6899 -0.55885,-1.2531 -1.24869,-1.2531 z m -18.49895,-10.6706 c 0,0.262 0.0568,0.4977 0.16591,0.6855 0.11352,0.2008 0.2576,0.3623 0.42787,0.4977 0.17465,0.1397 0.37548,0.2401 0.60688,0.3274 0.22704,0.087 0.31436,0.1616 0.55449,0.2096 l 0,-3.3968 c -0.60688,0 -0.92997,0.1223 -1.26179,0.3886 -0.32745,0.2489 -0.49336,0.6724 -0.49336,1.288 z m 25.99983,-6.8285 c -0.68984,0 -1.25306,-0.5632 -1.25306,-1.2487 0,-0.6898 0.56322,-1.2487 1.25306,-1.2487 0.68983,0 1.24869,0.5589 1.24869,1.2487 0,0.6855 -0.55886,1.2487 -1.24869,1.2487 z m 1.24869,17.7262 c -0.39295,-0.1398 -0.80772,-0.2271 -1.24869,-0.2271 -2.06951,0 -3.75044,1.6766 -3.75044,3.7505 0,0.4366 0.0917,0.8644 0.2314,1.253 l -40.46455,0 c 0.14408,-0.3886 0.2314,-0.8164 0.2314,-1.253 0,-2.0739 -1.68093,-3.7505 -3.74607,-3.7505 -0.44534,0 -0.86011,0.087 -1.25306,0.2271 l 0,-15.4515 c 0.39295,0.1397 0.80772,0.227 1.25306,0.227 2.06514,0 3.74607,-1.6765 3.74607,-3.7504 0,-0.4366 -0.0873,-0.8645 -0.2314,-1.2487 l 40.46455,0 c -0.13971,0.3842 -0.2314,0.8121 -0.2314,1.2487 0,2.0739 1.68093,3.7504 3.75044,3.7504 0.44097,0 0.85574,-0.087 1.24869,-0.227 l 0,15.4515 z m -1.24869,4.7764 c -0.68984,0 -1.25306,-0.5632 -1.25306,-1.253 0,-0.6855 0.56322,-1.2487 1.25306,-1.2487 0.68983,0 1.24869,0.5632 1.24869,1.2487 0,0.6898 -0.55886,1.253 -1.24869,1.253 z m -47.49826,0 c -0.6942,0 -1.25306,-0.5632 -1.25306,-1.253 0,-0.6855 0.55886,-1.2487 1.25306,-1.2487 0.68984,0 1.24869,0.5632 1.24869,1.2487 0,0.6898 -0.55885,1.253 -1.24869,1.253 z m 0,-25 c 0.68984,0 1.24869,0.5589 1.24869,1.2487 0,0.6855 -0.55885,1.2487 -1.24869,1.2487 -0.6942,0 -1.25306,-0.5632 -1.25306,-1.2487 0,-0.6898 0.55886,-1.2487 1.25306,-1.2487 z m 48.74695,-2.5017 -50.00001,0 c -1.37967,0 -2.49738,1.1264 -2.49738,2.5017 l 0,25 c 0,1.3841 1.11771,2.4974 2.49738,2.4974 l 50.00001,0 c 1.37967,0 2.50176,-1.1133 2.50176,-2.4974 l 0,-25 c 0,-1.3753 -1.12209,-2.5017 -2.50176,-2.5017 z m -20.96141,19.1626 c -0.20957,0.4759 -0.49336,0.8644 -0.85138,1.1744 -0.35801,0.3144 -0.77715,0.5501 -1.25742,0.7117 -0.48027,0.1746 -0.86011,0.2663 -1.4146,0.2881 l 0,1.1614 -1.00856,0 0,-1.1614 c -0.60688,-0.013 -1.01729,-0.1135 -1.51938,-0.2881 -0.50646,-0.1878 -0.93434,-0.4366 -1.29235,-0.7728 -0.35802,-0.3406 -0.63745,-0.751 -0.83392,-1.24 -0.19647,-0.4846 -0.28816,-1.0347 -0.27506,-1.6722 l 1.91233,0 c -0.009,0.7466 0.15281,1.3361 0.489,1.7596 0.33182,0.4409 0.74223,0.6636 1.51938,0.6898 l 0,-4.1259 c -0.4628,-0.1135 -0.77279,-0.2751 -1.22686,-0.4497 -0.45407,-0.1747 -0.86011,-0.4017 -1.22686,-0.6768 -0.36238,-0.2707 -0.65491,-0.6243 -0.88194,-1.0478 -0.22267,-0.4148 -0.33182,-0.9387 -0.33182,-1.5631 0,-0.537 0.10042,-1.0129 0.30999,-1.4277 0.2052,-0.4235 0.48463,-0.7596 0.83828,-1.0347 0.35365,-0.2882 0.75533,-0.4977 1.21813,-0.6374 0.45843,-0.1529 0.79462,-0.2271 1.30108,-0.2271 l 0,-1.109 1.00856,0 0,1.109 c 0.5021,0 0.83392,0.066 1.27925,0.2009 0.44971,0.1397 0.83828,0.3405 1.16574,0.6156 0.33182,0.275 0.59378,0.6243 0.79025,1.0347 0.19648,0.4235 0.29689,0.9125 0.29689,1.4626 l -1.91669,0 c -0.0218,-0.5763 -0.17028,-1.0216 -0.44097,-1.3229 -0.27943,-0.3012 -0.57196,-0.4628 -1.17447,-0.4628 l 0,3.5846 c 0.5021,0.1397 0.85138,0.3012 1.33165,0.4759 0.48026,0.1877 0.90377,0.4147 1.27488,0.7029 0.37112,0.2882 0.66364,0.6374 0.89068,1.0478 0.22266,0.4236 0.33618,0.9387 0.33618,1.55 0,0.6374 -0.10478,1.1876 -0.30999,1.6504 z m -4.03859,-14.1635 c -5.52306,0 -9.99826,4.4752 -9.99826,9.9982 0,5.5275 4.4752,10.0027 9.99826,10.0027 5.52305,0 10.00262,-4.4752 10.00262,-10.0027 0,-5.523 -4.47957,-9.9982 -10.00262,-9.9982 z m -13.7487,0 -2.50174,0 c -0.68984,0 -1.24869,0.5632 -1.24869,1.2531 0,0.6854 0.55885,1.2486 1.24869,1.2486 l 2.50174,0 c 0.68984,0 1.24869,-0.5632 1.24869,-1.2486 0,-0.6899 -0.55885,-1.2531 -1.24869,-1.2531" />
    <path
       inkscape:connector-curvature="0"
       id="path4548"
       style="fill:#4578c5;fill-opacity:1;fill-rule:nonzero;stroke:none"
       d="m -338.81919,1018.1227 c 0,0.2663 0.057,0.5021 0.1659,0.6898 0.1135,0.2008 0.2576,0.3624 0.4323,0.5021 0.1702,0.1353 0.3711,0.2358 0.6025,0.3231 0.227,0.087 0.3187,0.1615 0.5545,0.2139 l 0,-3.4011 c -0.6069,0 -0.93,0.1266 -1.2574,0.3885 -0.3319,0.2489 -0.4978,0.6724 -0.4978,1.2837 z m 4.0386,4.6149 c -0.1965,-0.1397 -0.4191,-0.262 -0.6636,-0.3493 -0.2489,-0.1004 -0.358,-0.1747 -0.6113,-0.2402 l 0,3.9644 c 0.6025,-0.048 0.9562,-0.2226 1.3404,-0.537 0.3842,-0.3143 0.5807,-0.8121 0.5807,-1.4888 0,-0.3231 -0.061,-0.5851 -0.179,-0.799 -0.1179,-0.214 -0.2751,-0.4017 -0.4672,-0.5501 z m 2.2485,2.7244 c -0.2095,0.4759 -0.4933,0.8645 -0.847,1.1745 -0.358,0.3143 -0.7771,0.5501 -1.2618,0.7116 -0.4802,0.179 -0.8557,0.262 -1.4146,0.2882 l 0,1.1657 -1.0085,0 0,-1.1657 c -0.6069,-0.01 -1.0173,-0.1092 -1.5194,-0.2882 -0.5065,-0.1877 -0.9343,-0.4366 -1.2924,-0.7728 -0.358,-0.3362 -0.6374,-0.7509 -0.8339,-1.2399 -0.1921,-0.4847 -0.2838,-1.0348 -0.275,-1.6722 l 1.9167,0 c -0.013,0.7509 0.1484,1.336 0.4846,1.7639 0.3318,0.4366 0.7466,0.6592 1.5194,0.6854 l 0,-4.1259 c -0.4628,-0.1135 -0.7728,-0.275 -1.2269,-0.4497 -0.4497,-0.1746 -0.8601,-0.3973 -1.2225,-0.6724 -0.3667,-0.2794 -0.6593,-0.6287 -0.8819,-1.0522 -0.2271,-0.4104 -0.3362,-0.9387 -0.3362,-1.563 0,-0.537 0.1048,-1.0129 0.31,-1.4234 0.2052,-0.4235 0.4846,-0.764 0.8383,-1.0522 0.3536,-0.275 0.7553,-0.4846 1.2181,-0.6243 0.4584,-0.1485 0.7946,-0.2227 1.3011,-0.2227 l 0,-1.1133 1.0085,0 0,1.1133 c 0.5021,0 0.8339,0.061 1.2837,0.1965 0.4453,0.1397 0.8339,0.3405 1.1613,0.6156 0.3318,0.2751 0.5982,0.6243 0.7946,1.0347 0.1921,0.4279 0.2882,0.9126 0.2882,1.4627 l -1.9123,0 c -0.022,-0.572 -0.1703,-1.026 -0.441,-1.3229 -0.2751,-0.3013 -0.572,-0.4628 -1.1745,-0.4628 l 0,3.5889 c 0.5021,0.1353 0.8514,0.2968 1.3317,0.4715 0.4802,0.1877 0.9081,0.4148 1.2749,0.7029 0.3711,0.2838 0.6636,0.6375 0.8906,1.0479 0.2227,0.4278 0.3362,0.9387 0.3362,1.5499 0,0.6375 -0.1048,1.1876 -0.31,1.6504 z m -4.0386,-14.1591 c -5.523,0 -9.9982,4.4708 -9.9982,9.9982 0,5.5231 4.4752,9.9983 9.9982,9.9983 5.5231,0 10.00259,-4.4752 10.00259,-9.9983 0,-5.5274 -4.47949,-9.9982 -10.00259,-9.9982 z m 16.25039,17.4991 -2.5017,0 c -0.6899,0 -1.2487,0.5589 -1.2487,1.2487 0,0.6855 0.5588,1.2487 1.2487,1.2487 l 2.5017,0 c 0.6899,0 1.2487,-0.5632 1.2487,-1.2487 0,-0.6898 -0.5588,-1.2487 -1.2487,-1.2487 z m 7.5009,-17.4991 c -0.6942,0 -1.2487,-0.5632 -1.2487,-1.2531 0,-0.6854 0.5545,-1.2487 1.2487,-1.2487 0.6898,0 1.2487,0.5633 1.2487,1.2487 0,0.6899 -0.5589,1.2531 -1.2487,1.2531 z m 1.2487,17.7218 c -0.3886,-0.1354 -0.8077,-0.2227 -1.2487,-0.2227 -2.0739,0 -3.7504,1.6722 -3.7504,3.7461 0,0.441 0.092,0.8645 0.2314,1.253 l -40.46019,0 c 0.1397,-0.3885 0.2271,-0.812 0.2271,-1.253 0,-2.0739 -1.6766,-3.7461 -3.7505,-3.7461 -0.4366,0 -0.8557,0.087 -1.2487,0.2227 l 0,-15.4515 c 0.393,0.1397 0.8121,0.2271 1.2487,0.2271 2.0739,0 3.7505,-1.6766 3.7505,-3.7505 0,-0.4366 -0.087,-0.8601 -0.2271,-1.2487 l 40.46019,0 c -0.1397,0.3886 -0.2314,0.8121 -0.2314,1.2487 0,2.0739 1.6765,3.7505 3.7504,3.7505 0.441,0 0.8601,-0.087 1.2487,-0.2271 l 0,15.4515 z m -1.2487,4.7764 c -0.6942,0 -1.2487,-0.5632 -1.2487,-1.253 0,-0.6855 0.5545,-1.2487 1.2487,-1.2487 0.6898,0 1.2487,0.5632 1.2487,1.2487 0,0.6898 -0.5589,1.253 -1.2487,1.253 z m -47.50259,0 c -0.6898,0 -1.2487,-0.5632 -1.2487,-1.253 0,-0.6855 0.5589,-1.2487 1.2487,-1.2487 0.6942,0 1.2531,0.5632 1.2531,1.2487 0,0.6898 -0.5589,1.253 -1.2531,1.253 z m 0,-25 c 0.6942,0 1.2531,0.5633 1.2531,1.2487 0,0.6899 -0.5589,1.2531 -1.2531,1.2531 -0.6898,0 -1.2487,-0.5632 -1.2487,-1.2531 0,-0.6854 0.5589,-1.2487 1.2487,-1.2487 z m 48.75129,-2.5017 -49.99999,0 c -1.3796,0 -2.4973,1.1264 -2.4973,2.5017 l 0,25 c 0,1.3754 1.1177,2.4974 2.4973,2.4974 l 49.99999,0 c 1.3797,0 2.5017,-1.122 2.5017,-2.4974 l 0,-25 c 0,-1.3753 -1.122,-2.5017 -2.5017,-2.5017 z m -46.24949,-2.4974 42.49909,0 c 0.6942,0 1.253,-0.5632 1.253,-1.253 0,-0.6855 -0.5588,-1.2487 -1.253,-1.2487 l -42.49909,0 c -0.6899,0 -1.2487,0.5632 -1.2487,1.2487 0,0.6898 0.5588,1.253 1.2487,1.253 z m 4.9991,-5.00353 32.50079,0 c 0.6899,0 1.2487,-0.5588 1.2487,-1.2487 0,-0.6854 -0.5588,-1.2487 -1.2487,-1.2487 l -32.50079,0 c -0.6898,0 -1.2487,0.5633 -1.2487,1.2487 0,0.6899 0.5589,1.2487 1.2487,1.2487 z m 2.5017,12.50443 -2.5017,0 c -0.6898,0 -1.2487,0.5588 -1.2487,1.2487 0,0.6854 0.5589,1.2487 1.2487,1.2487 l 2.5017,0 c 0.6899,0 1.2487,-0.5633 1.2487,-1.2487 0,-0.6899 -0.5588,-1.2487 -1.2487,-1.2487" />
    <path
       inkscape:connector-curvature="0"
       id="path4550"
       style="fill:#4578c5;fill-opacity:1;fill-rule:nonzero;stroke:none"
       d="m -481.64794,911.38414 c -0.1773,0.3842 -0.4179,0.7116 -0.7248,0.9736 -0.3087,0.262 -0.6685,0.4628 -1.0797,0.5981 -0.3498,0.1136 -0.6514,0.1791 -1.0234,0.214 l 0,0.9867 -1.25,0 0,-0.9867 c -0.4074,-0.026 -0.7383,-0.1004 -1.1086,-0.2227 -0.4313,-0.1528 -0.7998,-0.3667 -1.1068,-0.6418 -0.3069,-0.2882 -0.544,-0.6243 -0.7129,-1.0217 -0.1673,-0.4147 -0.2472,-0.8775 -0.2371,-1.4146 l 1.6407,0 c -0.01,0.6244 0.1297,1.1134 0.4161,1.4758 0.2524,0.3143 0.5921,0.4759 1.1086,0.5239 l 0,-3.4492 c -0.2899,-0.087 -0.5388,-0.1877 -0.8562,-0.3143 -0.3886,-0.1485 -0.7383,-0.3362 -1.0505,-0.5633 -0.3104,-0.2357 -0.5628,-0.5195 -0.7558,-0.8732 -0.1908,-0.3492 -0.2881,-0.7859 -0.2881,-1.301 0,-0.4498 0.09,-0.8471 0.2681,-1.1963 0.1772,-0.3406 0.416,-0.6288 0.7177,-0.8645 0.3035,-0.2227 0.6515,-0.4017 1.044,-0.524 0.3274,-0.1135 0.5968,-0.1528 0.9208,-0.1746 l 0,-0.9518 1.25,0 0,0.9518 c 0.3226,0.013 0.5885,0.061 0.9077,0.1485 0.3833,0.1266 0.7177,0.2881 1.0011,0.5151 0.2812,0.2227 0.5065,0.524 0.675,0.8602 0.1672,0.3492 0.2528,0.764 0.2528,1.2268 l -1.6408,0 c -0.019,-0.489 -0.1467,-0.8514 -0.382,-1.1133 -0.1978,-0.214 -0.4418,-0.3144 -0.8138,-0.3493 l 0,3.0213 c 0.3274,0.1048 0.6073,0.2139 0.9518,0.3406 0.4112,0.1484 0.7758,0.3361 1.0932,0.5719 0.3157,0.2401 0.5698,0.5283 0.7623,0.8776 0.1913,0.3493 0.2864,0.7859 0.2864,1.288 0,0.537 -0.089,0.9998 -0.2658,1.3884 z m -3.4929,-12.225 c -4.8316,0 -8.7492,3.9076 -8.7492,8.7496 0,4.8376 3.9176,8.7496 8.7492,8.7496 4.8332,0 8.7509,-3.912 8.7509,-8.7496 0,-4.842 -3.9177,-8.7496 -8.7509,-8.7496 z m 30.0013,-12.50433 -40.0006,0 c -1.3814,0 -2.5002,1.1264 -2.5002,2.5017 l 0,1.2487 c 0,0.6898 0.5594,1.2531 1.2501,1.2531 0.6907,0 1.2501,-0.5633 1.2501,-1.2531 l 0,-1.2487 40.0006,0 0,22.50263 -3.7504,0 c -0.6907,0 -1.25,0.5632 -1.25,1.2487 0,0.6855 0.5593,1.2487 1.25,1.2487 l 3.7504,0 c 1.3797,0 2.4983,-1.1264 2.4983,-2.4974 l 0,-22.50263 c 0,-1.3753 -1.1186,-2.5017 -2.4983,-2.5017 z m -28.4356,22.45463 c -0.1672,-0.1267 -0.358,-0.2271 -0.568,-0.3013 -0.1345,-0.052 -0.2301,-0.087 -0.3327,-0.1266 l 0,3.1872 c 0.3907,-0.061 0.6771,-0.1877 0.9587,-0.3973 0.331,-0.262 0.496,-0.6767 0.496,-1.24 0,-0.275 -0.051,-0.489 -0.1515,-0.6723 -0.1008,-0.1747 -0.2353,-0.3275 -0.4025,-0.4497 z m 9.6856,5.0471 c -0.6911,0 -1.2504,0.5632 -1.2504,1.2531 0,0.6854 0.5593,1.2487 1.2504,1.2487 0.689,0 1.25,-0.5633 1.25,-1.2487 0,-0.6899 -0.561,-1.2531 -1.25,-1.2531 z m 7.4987,-14.9974 c -0.6907,0 -1.25,-0.5632 -1.25,-1.253 0,-0.6855 0.5593,-1.2487 1.25,-1.2487 0.6907,0 1.2505,0.5632 1.2505,1.2487 0,0.6898 -0.5598,1.253 -1.2505,1.253 z m 1.2505,15.2244 c -0.3926,-0.1397 -0.8086,-0.227 -1.2505,-0.227 -2.0704,0 -3.7504,1.6766 -3.7504,3.7504 0,0.4367 0.09,0.8645 0.2305,1.2487 l -30.4584,0 c 0.1382,-0.3842 0.2285,-0.812 0.2285,-1.2487 0,-2.0738 -1.6781,-3.7504 -3.7503,-3.7504 -0.4401,0 -0.8562,0.087 -1.2501,0.227 l 0,-12.954 c 0.3939,0.1397 0.81,0.227 1.2501,0.227 2.0722,0 3.7503,-1.6766 3.7503,-3.7504 0,-0.4366 -0.09,-0.8602 -0.2285,-1.2487 l 30.4584,0 c -0.1401,0.3885 -0.2305,0.8121 -0.2305,1.2487 0,2.0738 1.68,3.7504 3.7504,3.7504 0.4419,0 0.8579,-0.087 1.2505,-0.227 l 0,12.954 z m -1.2505,4.7721 c -0.6907,0 -1.25,-0.5588 -1.25,-1.2487 0,-0.6898 0.5593,-1.2486 1.25,-1.2486 0.6907,0 1.2505,0.5588 1.2505,1.2486 0,0.6899 -0.5598,1.2487 -1.2505,1.2487 z m -37.5001,0 c -0.6891,0 -1.2501,-0.5588 -1.2501,-1.2487 0,-0.6898 0.561,-1.2486 1.2501,-1.2486 0.6907,0 1.2501,0.5588 1.2501,1.2486 0,0.6899 -0.5594,1.2487 -1.2501,1.2487 z m 0,-22.4982 c 0.6907,0 1.2501,0.5632 1.2501,1.2487 0,0.6898 -0.5594,1.253 -1.2501,1.253 -0.6891,0 -1.2501,-0.5632 -1.2501,-1.253 0,-0.6855 0.561,-1.2487 1.2501,-1.2487 z m 38.7506,-2.5018 -40.0007,0 c -1.3798,0 -2.4986,1.1265 -2.4986,2.5018 l 0,22.4982 c 0,1.3753 1.1188,2.5018 2.4986,2.5018 l 40.0007,0 c 1.3814,0 2.5,-1.1265 2.5,-2.5018 l 0,-22.4982 c 0,-1.3753 -1.1186,-2.5018 -2.5,-2.5018 z m -21.8954,11.1029 c 0,0.2227 0.048,0.4235 0.1433,0.572 0.097,0.1659 0.22,0.3012 0.3684,0.4147 0.1485,0.1135 0.3205,0.214 0.517,0.2751 0.1174,0.048 0.1978,0.087 0.2812,0.1091 l 0,-2.7331 c -0.3803,0.022 -0.6462,0.1091 -0.885,0.2881 -0.2834,0.2096 -0.4249,0.572 -0.4249,1.0741 z m -9.3545,-6.0994 c -0.6907,0 -1.2501,0.5589 -1.2501,1.2487 0,0.6899 0.5594,1.2487 1.2501,1.2487 0.6907,0 1.2501,-0.5588 1.2501,-1.2487 0,-0.6898 -0.5594,-1.2487 -1.2501,-1.2487" />
    <path
       inkscape:connector-curvature="0"
       id="path4604"
       style="fill:#4578c5;fill-opacity:1;fill-rule:nonzero;stroke:none"
       d="m -447.28405,1117.3691 -20.00088,0 0,2.5017 20.00088,0 0,-2.5017 z m 9.99825,5.0035 -29.99913,0 0,2.4974 29.99913,0 0,-2.4974 z m -27.49738,-25 -2.50175,0 0,14.9974 2.50175,0 0,-14.9974 z m 27.49738,29.9991 -29.99913,0 0,2.4974 29.99913,0 0,-2.4974 z m -4.99913,4.9991 -25,0 0,2.5018 25,0 0,-2.5018 z m 7.50088,10.7361 -2.86413,-2.8728 c -0.2314,-0.2227 -0.54139,-0.3624 -0.88631,-0.3624 -0.34492,0 -0.65491,0.1397 -0.88194,0.3624 l -4.11719,4.1259 -4.11718,-4.1259 c -0.22704,-0.2227 -0.53703,-0.3624 -0.88194,-0.3624 -0.41041,0 -0.75533,0.2096 -0.98236,0.5108 l -0.0175,-0.013 -2.75061,3.6631 -2.75061,-3.6631 -0.0175,0.013 c -0.22703,-0.3012 -0.57195,-0.5108 -0.98236,-0.5108 -0.34492,0 -0.6549,0.1397 -0.88631,0.3624 l -4.11281,4.1259 -4.11719,-4.1259 c -0.22703,-0.2227 -0.54139,-0.3624 -0.88194,-0.3624 -0.34492,0 -0.65928,0.1397 -0.88631,0.3624 l -2.86413,2.8728 0,-48.2361 34.99826,0 0,48.2361 z m 1.24869,-50.7335 -37.50001,0 c -0.68983,0 -1.24869,0.5589 -1.24869,1.2487 l 0,52.4974 c 0,0.6899 0.55886,1.2531 1.24869,1.2531 0.34929,0 0.65928,-0.1397 0.88631,-0.3624 l 4.11719,-4.1259 4.11718,4.1259 c 0.22267,0.2227 0.53703,0.3624 0.88195,0.3624 0.34491,0 0.65927,-0.1397 0.88194,-0.3624 l 3.98184,-3.9906 2.88595,3.8509 0.0175,-0.013 c 0.22703,0.3012 0.57195,0.5152 0.98236,0.5152 0.41041,0 0.75533,-0.214 0.98236,-0.5152 l 0.0175,0.013 2.88596,-3.8509 3.98184,3.9906 c 0.22267,0.2227 0.53703,0.3624 0.88194,0.3624 0.34492,0 0.65928,-0.1397 0.88195,-0.3624 l 4.11718,-4.1259 4.11719,4.1259 c 0.22703,0.2227 0.53702,0.3624 0.88194,0.3624 0.6942,0 1.25305,-0.5632 1.25305,-1.2531 l 0,-52.4974 c 0,-0.6898 -0.55885,-1.2487 -1.25305,-1.2487 z m -8.74957,4.9992 -2.49738,0 0,14.9974 2.49738,0 0,-14.9974 z m 4.99913,0 -2.49738,0 0,14.9974 2.49738,0 0,-14.9974 z m -14.99738,0 -2.50175,0 0,14.9974 2.50175,0 0,-14.9974 z m -4.99913,0 -4.99912,0 0,14.9974 4.99912,0 0,-14.9974 z m 9.99826,0 -2.50175,0 0,14.9974 2.50175,0 0,-14.9974" />
    <path
       inkscape:connector-curvature="0"
       id="path4606"
       style="fill:#4578c5;fill-opacity:1;fill-rule:nonzero;stroke:none"
       d="m -339.78317,1127.3717 -25,0 0,2.4974 25,0 0,-2.4974 z m 2.50175,16.1631 -4.11719,-3.3007 c -0.22703,-0.2227 -0.54139,-0.3624 -0.88631,-0.3624 -0.34491,0 -0.6549,0.1397 -0.88194,0.3624 l -4.11718,4.1259 -4.11719,-4.1259 c -0.22703,-0.2227 -0.53702,-0.3624 -0.88194,-0.3624 -0.34492,0 -0.65491,0.1397 -0.88631,0.3624 l -4.11282,4.1259 -4.11718,-4.1259 c -0.22704,-0.2227 -0.54139,-0.3624 -0.88631,-0.3624 -0.34055,0 -0.65491,0.1397 -0.88194,0.3624 l -4.11719,3.3007 0,-41.1631 30.0035,0 0,41.1631 z m 1.24869,-43.6649 -32.50088,0 c -0.68984,0 -1.24869,0.5633 -1.24869,1.2531 l 0,44.9965 c 0,0.6899 0.55885,1.2531 1.24869,1.2531 0.34492,0 0.65927,-0.1397 0.88631,-0.3624 l 5.26546,-4.2133 4.21323,4.2133 c 0.22704,0.2227 0.53703,0.3624 0.88631,0.3624 0.34492,0 0.65928,-0.1397 0.88194,-0.3624 l 4.11719,-4.1259 4.11718,4.1259 c 0.22704,0.2227 0.53703,0.3624 0.88195,0.3624 0.34491,0 0.65927,-0.1397 0.88194,-0.3624 l 4.2176,-4.2133 5.26546,4.2133 c 0.22703,0.2227 0.54139,0.3624 0.88631,0.3624 0.68983,0 1.24869,-0.5632 1.24869,-1.2531 l 0,-44.9965 c 0,-0.6898 -0.55886,-1.2531 -1.24869,-1.2531 z m -16.25044,22.5027 -12.5,0 0,2.4973 12.5,0 0,-2.4973 z m 26.24869,-29.9992 -32.50087,0 c -0.68984,0 -1.2487,0.5589 -1.2487,1.2487 l 0,3.7505 2.50175,0 0,-2.5018 29.99913,0 0,41.1631 -4.11718,-3.3007 c -0.22704,-0.2227 -0.53703,-0.3624 -0.88195,-0.3624 l 0,3.0126 0.0961,-0.087 5.26982,4.2132 c 0.22267,0.2227 0.53702,0.3624 0.88194,0.3624 0.68984,0 1.24869,-0.5632 1.24869,-1.2487 l 0,-45.0009 c 0,-0.6898 -0.55885,-1.2486 -1.24869,-1.2486 z m -21.24956,39.9974 -17.49913,0 0,2.5018 17.49913,0 0,-2.5018 z m 2.50174,-27.4974 -2.50174,0 0,12.4957 2.50174,0 0,-12.4957 z m 4.99913,0 -2.50175,0 0,12.4957 2.50175,0 0,-12.4957 z m -15.00175,0 -4.99913,0 0,12.4957 4.99913,0 0,-12.4957 z m -7.50087,0 -2.49738,0 0,12.4957 2.49738,0 0,-12.4957 z m 12.5,0 -2.49738,0 0,12.4957 2.49738,0 0,-12.4957" />
    <path
       inkscape:connector-curvature="0"
       id="path4738"
       style="fill:#4578c5;fill-opacity:1;fill-rule:nonzero;stroke:none"
       d="m 1028.0007,-331.98289 -14.9974,-4.2787 0,-44.9004 14.9974,4.2787 0,44.9004 z m -17.4991,-4.2787 -14.99739,4.2787 0,-44.9004 14.99739,-4.2787 0,44.9004 z m -17.49909,4.2787 -15.0018,-4.2787 0,-44.9004 15.0018,4.2787 0,44.9004 z m 36.58749,-47.0267 0.01,-0.013 -17.5035,-4.9991 0,0.013 c -0.1092,-0.026 -0.2183,-0.061 -0.3406,-0.061 -0.1179,0 -0.227,0.035 -0.3362,0.061 l 0,-0.013 -17.15859,4.8987 -17.1542,-4.8987 -0.01,0.013 c -0.1091,-0.026 -0.2183,-0.061 -0.3362,-0.061 -0.6898,0 -1.2486,0.5588 -1.2486,1.2487 l 0,47.4982 c 0,0.5763 0.3885,1.0391 0.9125,1.1876 l -0.01,0.013 17.5035,4.9991 0,-0.01 c 0.1091,0.022 0.2183,0.061 0.3362,0.061 0.1222,0 0.2314,-0.039 0.3405,-0.061 l 0,0.01 17.15419,-4.8987 17.1586,4.8987 0,-0.01 c 0.1135,0.022 0.2183,0.061 0.3405,0.061 0.6899,0 1.2487,-0.5632 1.2487,-1.2487 l 0,-47.5026 c 0,-0.5763 -0.3929,-1.0391 -0.9125,-1.1876" />
  </g>
</svg>
