<?xml version="1.0" encoding="UTF-8" standalone="no"?>
<!-- Created with Inkscape (http://www.inkscape.org/) -->

<svg
   xmlns:dc="http://purl.org/dc/elements/1.1/"
   xmlns:cc="http://creativecommons.org/ns#"
   xmlns:rdf="http://www.w3.org/1999/02/22-rdf-syntax-ns#"
   xmlns:svg="http://www.w3.org/2000/svg"
   xmlns="http://www.w3.org/2000/svg"
   xmlns:sodipodi="http://sodipodi.sourceforge.net/DTD/sodipodi-0.dtd"
   xmlns:inkscape="http://www.inkscape.org/namespaces/inkscape"
   width="210mm"
   height="297mm"
   viewBox="0 0 744.09448819 1052.3622047"
   id="svg4922"
   version="1.1"
   inkscape:version="0.91 r13725"
   sodipodi:docname="recibo-2.svg">
  <defs
     id="defs4924" />
  <sodipodi:namedview
     id="base"
     pagecolor="#ffffff"
     bordercolor="#666666"
     borderopacity="1.0"
     inkscape:pageopacity="0.0"
     inkscape:pageshadow="2"
     inkscape:zoom="0.7"
     inkscape:cx="-152.14286"
     inkscape:cy="520"
     inkscape:document-units="px"
     inkscape:current-layer="layer1"
     showgrid="false"
     inkscape:window-width="1920"
     inkscape:window-height="1053"
     inkscape:window-x="0"
     inkscape:window-y="0"
     inkscape:window-maximized="1" />
  <metadata
     id="metadata4927">
    <rdf:RDF>
      <cc:Work
         rdf:about="">
        <dc:format>image/svg+xml</dc:format>
        <dc:type
           rdf:resource="http://purl.org/dc/dcmitype/StillImage" />
        <dc:title></dc:title>
      </cc:Work>
    </rdf:RDF>
  </metadata>
  <g
     inkscape:label="Capa 1"
     inkscape:groupmode="layer"
     id="layer1">
    <path
       inkscape:connector-curvature="0"
       id="path4604"
       style="fill:#32974d;fill-opacity:1;fill-rule:nonzero;stroke:none"
       d="m 464.30474,479.97162 -369.112673,0 0,46.16916 369.112673,0 0,-46.16916 z m 184.51592,92.33851 -553.628593,0 0,46.0887 553.628593,0 0,-46.0887 z m -507.45924,-461.37054 -46.169353,0 0,276.77397 46.169353,0 0,-276.77397 z m 507.45924,553.62859 -553.628593,0 0,46.08871 553.628593,0 0,-46.08871 z m -92.25805,92.25787 -461.370543,0 0,46.16935 461.370543,0 0,-46.16935 z M 694.99001,954.95923 642.133,901.94111 c -4.27045,-4.10933 -9.99126,-6.68766 -16.35669,-6.68766 -6.36544,0 -12.08625,2.57833 -16.27605,6.68766 l -75.98201,76.14312 -75.98182,-76.14312 c -4.18998,-4.10933 -9.91079,-6.68766 -16.27604,-6.68766 -7.57405,0 -13.93948,3.86758 -18.12928,9.42728 l -0.32296,-0.24176 -50.76202,67.60204 -50.76201,-67.60204 -0.32296,0.24176 c -4.1898,-5.5597 -10.55524,-9.42728 -18.12928,-9.42728 -6.36544,0 -12.08606,2.57833 -16.35669,6.68766 L 210.57401,978.08423 134.592,901.94111 c -4.18979,-4.10933 -9.99125,-6.68766 -16.27604,-6.68766 -6.36544,0 -12.1669,2.57833 -16.35669,6.68766 l -52.857013,53.01812 0,-890.188988 645.886643,0 0,890.188988 z m 23.04435,-936.27769 -692.055994,0 c -12.73069,0 -23.0443512,10.313477 -23.0443512,23.044351 l 0,968.830009 c 0,12.7306 10.3136612,23.1248 23.0443512,23.1248 6.446085,0 12.166895,-2.5784 16.356693,-6.6877 l 75.982011,-76.14311 75.98182,76.14311 c 4.10933,4.1093 9.91079,6.6877 16.27623,6.6877 6.36525,0 12.16671,-2.5784 16.27604,-6.6877 l 73.48415,-73.64525 53.25969,71.06695 0.32296,-0.2418 c 4.1898,5.5597 10.55524,9.5078 18.12928,9.5078 7.57404,0 13.93948,-3.9481 18.12928,-9.5078 l 0.32296,0.2418 53.25987,-71.06695 73.48415,73.64525 c 4.10934,4.1093 9.91079,6.6877 16.27605,6.6877 6.36543,0 12.16689,-2.5784 16.27623,-6.6877 l 75.98182,-76.14311 75.98201,76.14311 c 4.18979,4.1093 9.9106,6.6877 16.27604,6.6877 12.81134,0 23.12482,-10.3942 23.12482,-23.1248 l 0,-968.830009 c 0,-12.730874 -10.31348,-23.044351 -23.12482,-23.044351 z m -161.47175,92.25805 -46.08871,0 0,276.77397 46.08871,0 0,-276.77397 z m 92.25805,0 -46.0887,0 0,276.77397 46.0887,0 0,-276.77397 z m -276.77397,0 -46.16935,0 0,276.77397 46.16935,0 0,-276.77397 z m -92.25806,0 -92.25786,0 0,276.77397 92.25786,0 0,-276.77397 z m 184.51611,0 -46.16935,0 0,276.77397 46.16935,0 0,-276.77397" />
  </g>
</svg>
