<?xml version="1.0" encoding="UTF-8" standalone="no"?>
<!-- Created with Inkscape (http://www.inkscape.org/) -->

<svg
   xmlns:dc="http://purl.org/dc/elements/1.1/"
   xmlns:cc="http://creativecommons.org/ns#"
   xmlns:rdf="http://www.w3.org/1999/02/22-rdf-syntax-ns#"
   xmlns:svg="http://www.w3.org/2000/svg"
   xmlns="http://www.w3.org/2000/svg"
   xmlns:sodipodi="http://sodipodi.sourceforge.net/DTD/sodipodi-0.dtd"
   xmlns:inkscape="http://www.inkscape.org/namespaces/inkscape"
   width="1000"
   height="1000"
   viewBox="0 0 1000 1000"
   id="svg4767"
   version="1.1"
   inkscape:version="0.91 r13725">
  <defs
     id="defs4769" />
  <sodipodi:namedview
     id="base"
     pagecolor="#ffffff"
     bordercolor="#666666"
     borderopacity="1.0"
     inkscape:pageopacity="0.0"
     inkscape:pageshadow="2"
     inkscape:zoom="0.35"
     inkscape:cx="-43.571429"
     inkscape:cy="600.8122"
     inkscape:document-units="px"
     inkscape:current-layer="layer1"
     showgrid="false"
     units="px"
     inkscape:window-width="1920"
     inkscape:window-height="1053"
     inkscape:window-x="0"
     inkscape:window-y="0"
     inkscape:window-maximized="1" />
  <metadata
     id="metadata4772">
    <rdf:RDF>
      <cc:Work
         rdf:about="">
        <dc:format>image/svg+xml</dc:format>
        <dc:type
           rdf:resource="http://purl.org/dc/dcmitype/StillImage" />
        <dc:title></dc:title>
      </cc:Work>
    </rdf:RDF>
  </metadata>
  <g
     inkscape:label="Capa 1"
     inkscape:groupmode="layer"
     id="layer1"
     transform="translate(0,-52.362161)">
    <path
       inkscape:connector-curvature="0"
       id="path7383"
       style="fill:#4578c5;fill-opacity:1;fill-rule:nonzero;stroke:none"
       d="M 808.21091,873.44921 C 759.28414,813.51384 698.59435,780.04289 648.99866,757.46862 637.99811,752.79937 631.04293,747.34925 626.94303,742.68 c 74.42088,-1.55107 132.64456,-34.25006 135.38276,-35.80647 7.68664,-4.67103 12.03529,-13.23221 11.09411,-21.79517 -0.88737,-7.78386 -6.05266,-14.7904 -13.43566,-17.90323 -3.12736,-2.33552 -39.32659,-31.91455 -39.32659,-193.82099 0,-184.47892 -70.25879,-277.10793 -208.83129,-277.10793 -116.99956,0 -236.64646,31.1358 -236.64646,265.43214 0,170.4694 -28.3843,203.16126 -32.79069,207.05319 -7.50595,2.33552 -13.46292,8.56296 -15.31606,16.34682 -2.27955,9.34028 1.97538,19.45965 10.48399,24.908 62.66357,35.80647 111.89825,38.92108 138.3649,37.36289 -3.22073,2.33551 -9.72455,7.00654 -22.73239,10.89847 C 291.80297,778.48647 226.22195,825.18964 189.60291,871.8928 106.39544,790.93958 54.520921,678.0736 54.520921,552.75095 c 0,-246.75159 199.446889,-446.02021 445.480239,-446.02021 246.03406,0 445.48309,199.26862 445.48309,446.02021 0,126.09997 -52.8166,239.74504 -137.27334,320.69826 z M 500.00116,997.99277 c -104.83973,0 -201.02616,-36.58379 -277.09171,-97.29826 30.29821,-39.6984 90.80429,-82.51142 144.10484,-99.63556 32.1535,-10.89669 50.7548,-26.46441 55.28289,-47.48226 5.74136,-26.46441 -14.15928,-45.14675 -16.43865,-47.48226 -5.78038,-5.44835 -14.19794,-7.00476 -21.72884,-4.66925 -1.70346,0 -38.11296,10.11938 -97.85818,-16.34682 18.02095,-31.91454 33.45907,-95.74184 33.45907,-223.40001 0,-203.93893 90.86577,-221.0636 192.09578,-221.0636 70.53106,0 164.28453,24.13014 164.28453,232.73939 0,118.31611 18.62482,177.47416 37.10157,207.05319 -25.22184,9.34206 -65.36524,21.01785 -108.97064,17.12592 -9.72474,-0.78445 -18.47693,4.66925 -22.3124,13.23221 -8.38655,18.68055 -8.9621,61.49357 48.87243,87.95798 45.12248,20.23875 100.24962,49.81778 143.70695,104.3048 -75.69653,59.15806 -170.85054,94.96453 -274.50764,94.96453 z m 0,-935.63057 C 229.38227,62.3622 10,281.86957 10,552.75095 10,822.85412 229.38227,1042.3622 500.00116,1042.3622 770.61897,1042.3622 990,822.85412 990,552.75095 990,281.86957 770.61897,62.3622 500.00116,62.3622" />
  </g>
</svg>
