<?xml version="1.0" encoding="UTF-8" standalone="no"?>
<!-- Created with Inkscape (http://www.inkscape.org/) -->

<svg
   xmlns:dc="http://purl.org/dc/elements/1.1/"
   xmlns:cc="http://creativecommons.org/ns#"
   xmlns:rdf="http://www.w3.org/1999/02/22-rdf-syntax-ns#"
   xmlns:svg="http://www.w3.org/2000/svg"
   xmlns="http://www.w3.org/2000/svg"
   xmlns:sodipodi="http://sodipodi.sourceforge.net/DTD/sodipodi-0.dtd"
   xmlns:inkscape="http://www.inkscape.org/namespaces/inkscape"
   width="1000"
   height="1000"
   viewBox="0 0 1000 1000"
   id="svg4767"
   version="1.1"
   inkscape:version="0.91 r13725"
   sodipodi:docname="usuario_h.svg">
  <defs
     id="defs4769" />
  <sodipodi:namedview
     id="base"
     pagecolor="#ffffff"
     bordercolor="#666666"
     borderopacity="1.0"
     inkscape:pageopacity="0.0"
     inkscape:pageshadow="2"
     inkscape:zoom="0.35"
     inkscape:cx="-456.42857"
     inkscape:cy="595.09791"
     inkscape:document-units="px"
     inkscape:current-layer="layer1"
     showgrid="false"
     units="px"
     inkscape:window-width="1920"
     inkscape:window-height="1053"
     inkscape:window-x="0"
     inkscape:window-y="0"
     inkscape:window-maximized="1" />
  <metadata
     id="metadata4772">
    <rdf:RDF>
      <cc:Work
         rdf:about="">
        <dc:format>image/svg+xml</dc:format>
        <dc:type
           rdf:resource="http://purl.org/dc/dcmitype/StillImage" />
        <dc:title />
      </cc:Work>
    </rdf:RDF>
  </metadata>
  <g
     inkscape:label="Capa 1"
     inkscape:groupmode="layer"
     id="layer1"
     transform="translate(0,-52.362161)">
    <path
       inkscape:connector-curvature="0"
       id="path7381"
       style="fill:#4578c5;fill-opacity:1;fill-rule:nonzero;stroke:none"
       d="m 824.76068,856.47327 c -26.60652,-25.66674 -77.87433,-70.77786 -128.90871,-94.88887 -42.08774,-20.22217 -66.20449,-40.44451 -73.75079,-61.44445 -5.21244,-15.55556 -2.87839,-32.66665 7.15732,-52.88882 7.54612,-14.77779 14.62557,-28.00003 21.23835,-39.66674 27.77329,-48.99997 49.24506,-84.77769 49.24506,-212.33339 0,-189.77773 -109.61507,-199.11096 -131.32009,-199.11096 -17.73739,0 -28.86234,3.88884 -39.59814,7.77769 -11.82504,3.88885 -23.96138,8.55564 -51.73466,8.55564 -50.17874,0.77847 -155.28129,3.11107 -155.28129,177.33325 0,122.11113 31.81861,178.11103 56.791,223.22215 6.37955,11.66672 12.44762,22.55565 17.2709,33.44441 21.23853,48.22238 5.67911,82.44457 -48.93377,106.55558 C 277.8528,783.3621 245.33393,798.91766 177.57336,858.80657 101.48853,778.69549 54.499646,671.36215 54.499646,552.36209 c 0,-246.5554 199.469644,-445.66653 445.461514,-445.66653 246.06973,0 445.4615,199.11113 445.4615,445.66653 0,117.44452 -45.9775,224.00009 -120.66198,304.11118 z m -324.7997,140.77778 c -110.85951,0 -212.07265,-40.44453 -290.02449,-107.33337 59.98086,-52.88882 88.68764,-66.88884 154.97019,-96.4444 76.78491,-33.44442 102.92441,-94.1111 71.65034,-164.88896 -5.60142,-12.44429 -12.13616,-24.11101 -18.98237,-36.55549 -23.72777,-42.77782 -51.18993,-91.00002 -51.18993,-202.22221 0,-130.66659 62.08147,-131.44436 111.48208,-132.2223 35.00846,-0.77849 52.12363,-6.99993 65.81569,-11.66654 9.10221,-3.11108 14.62574,-5.44456 24.73915,-5.44456 41.30996,0 86.8208,41.22229 86.8208,154.77778 0,115.88898 -17.34858,143.88901 -43.64382,190.55568 -6.9239,12.4443 -14.39233,25.66655 -22.32742,41.99987 -15.32601,31.11112 -18.43783,60.66668 -9.25776,87.11119 11.82505,33.44441 42.55458,61.44444 96.77847,87.11117 44.34391,20.22217 90.94383,61.44428 115.91675,85.55546 -78.341,68.44438 -180.5655,109.66668 -292.74768,109.66668 z m 0,-934.88885 C 229.3857,62.3622 10,281.69551 10,552.36209 10,823.02884 229.38552,1042.3622 499.96098,1042.3622 770.6143,1042.3622 990,823.02884 990,552.36209 990,281.69551 770.61448,62.3622 499.96098,62.3622" />
  </g>
</svg>
