<?xml version="1.0" encoding="UTF-8" standalone="no"?>
<!-- Created with Inkscape (http://www.inkscape.org/) -->

<svg
   xmlns:dc="http://purl.org/dc/elements/1.1/"
   xmlns:cc="http://creativecommons.org/ns#"
   xmlns:rdf="http://www.w3.org/1999/02/22-rdf-syntax-ns#"
   xmlns:svg="http://www.w3.org/2000/svg"
   xmlns="http://www.w3.org/2000/svg"
   xmlns:sodipodi="http://sodipodi.sourceforge.net/DTD/sodipodi-0.dtd"
   xmlns:inkscape="http://www.inkscape.org/namespaces/inkscape"
   width="685"
   height="460"
   viewBox="0 0 685 460"
   id="svg2"
   version="1.1"
   inkscape:version="0.91 r13725">
  <defs
     id="defs4">
    <clipPath
       id="clipPath4150"
       clipPathUnits="userSpaceOnUse">
      <path
         inkscape:connector-curvature="0"
         id="path4152"
         d="m 0,595.28 841.89,0 L 841.89,0 0,0 0,595.28 Z" />
    </clipPath>
    <clipPath
       id="clipPath5268"
       clipPathUnits="userSpaceOnUse">
      <path
         inkscape:connector-curvature="0"
         id="path5270"
         d="M 0,792 1224,792 1224,0 0,0 0,792 Z" />
    </clipPath>
    <clipPath
       id="clipPath5845"
       clipPathUnits="userSpaceOnUse">
      <path
         inkscape:connector-curvature="0"
         id="path5847"
         d="M 0,0 612,0 612,792 0,792 0,0 Z" />
    </clipPath>
    <clipPath
       id="clipPath5859"
       clipPathUnits="userSpaceOnUse">
      <path
         inkscape:connector-curvature="0"
         id="path5861"
         d="M 0,792 612,792 612,0 0,0 0,792 Z" />
    </clipPath>
  </defs>
  <sodipodi:namedview
     id="base"
     pagecolor="#ffffff"
     bordercolor="#666666"
     borderopacity="1.0"
     inkscape:pageopacity="0.0"
     inkscape:pageshadow="2"
     inkscape:zoom="0.98994949"
     inkscape:cx="576.93449"
     inkscape:cy="282.6178"
     inkscape:document-units="px"
     inkscape:current-layer="layer1"
     showgrid="false"
     units="px"
     inkscape:window-width="1920"
     inkscape:window-height="1053"
     inkscape:window-x="0"
     inkscape:window-y="0"
     inkscape:window-maximized="1" />
  <metadata
     id="metadata7">
    <rdf:RDF>
      <cc:Work
         rdf:about="">
        <dc:format>image/svg+xml</dc:format>
        <dc:type
           rdf:resource="http://purl.org/dc/dcmitype/StillImage" />
        <dc:title></dc:title>
      </cc:Work>
    </rdf:RDF>
  </metadata>
  <g
     inkscape:label="Capa 1"
     inkscape:groupmode="layer"
     id="layer1"
     transform="translate(0,-592.36216)">
    <g
       id="g5855"
       transform="matrix(1.25,0,0,-1.25,-39.999903,1317.3623)">
      <g
         id="g5857"
         clip-path="url(#clipPath5859)">
        <g
           id="g5863"
           transform="translate(87.1294,421.4429)">
          <path
             d="m 0,0 c 21.782,30.695 33.391,65.076 62.948,90.022 7.865,6.639 16.137,12.782 24.704,18.484 18.656,12.416 39.554,20.634 61.181,26.216 44.976,11.608 94.222,16.502 140.341,9.795 39.777,-5.786 78.842,-18.453 113.104,-39.715 12.929,-8.024 24.959,-17.582 35.926,-28.178 5.533,-5.346 10.811,-10.946 15.915,-16.702 2.058,-2.322 13.149,-14.665 13.149,-14.665 0,0 -103.033,0.073 -103.712,0.075 C 326.973,71.441 283.403,85.189 238.453,84.998 191.787,84.8 131.601,68.504 101.223,30.294 93.694,20.824 86.796,8.128 83.888,-3.698 c -5.142,-20.909 -3.387,-41.631 7.825,-60.275 5.046,-8.39 11.799,-16.354 20.225,-23.694 33.731,-29.384 80.036,-45.634 124.579,-45.764 40.517,-0.118 82.062,9.063 115.703,32.497 17.877,12.452 35.472,29.14 41.351,50.83 1.494,0 84.611,-10e-4 87.182,-10e-4 -0.02,-0.1 -0.046,-0.233 -0.075,-0.377 -0.029,-0.144 -0.059,-0.299 -0.088,-0.441 -0.029,-0.142 -0.054,-0.272 -0.074,-0.367 -0.018,-0.093 -0.03,-0.152 -0.03,-0.154 -1.255,-14.694 -9.548,-32.609 -16.931,-45.165 -8.159,-13.874 -19.676,-25.133 -31.74,-35.663 -25.411,-22.18 -56.012,-38.947 -87.734,-49.503 -18.628,-6.199 -38.39,-10.297 -57.856,-12.81 -56.824,-7.338 -117.919,-2.276 -170.586,21.508 -37.034,16.725 -67.693,42.222 -91.43,75.099 -17.917,24.815 -33.916,53.773 -62.852,67.553 1.947,-0.979 11.55,6.04 13.125,7.232 C -16.433,-16.323 -6.295,-8.871 0,0 m 140.092,142.799 c -10.719,-3.227 -21.226,-7.031 -31.43,-11.444 C 96.056,125.904 83.957,119.042 72.862,110.927 42.863,88.982 22.522,61.109 5.446,28.291 -7.883,2.675 -26.198,-18.508 -53.842,-28.748 c 0,0 0.014,-7.287 -0.001,-8.524 17.655,1.255 34.08,-14.852 43.864,-27.858 12.34,-16.407 22.292,-34.456 34.935,-50.651 11.902,-15.246 26.292,-28.542 41.793,-40.051 48.641,-36.114 108.234,-51.961 168.292,-52.155 16.782,-0.055 33.778,1.008 50.436,3.07 37.658,4.663 73.638,14.256 107.056,32.59 8.976,4.925 17.674,10.392 26.035,16.302 7.4,5.231 14.518,10.89 21.229,16.981 10.853,9.847 21.531,20.746 29.939,32.744 8.897,12.696 14.254,26.078 18.382,40.174 0.632,2.16 5.124,26.412 2.808,26.412 0,0 -104.908,-0.041 -105.062,-0.041 -0.152,0 -3.553,-11.95 -4.011,-13.104 -1.823,-4.592 -4.161,-8.961 -7.096,-12.941 -18.741,-25.42 -49.362,-42.298 -79.397,-50.345 -8.733,-2.339 -17.752,-4.073 -26.713,-5.27 -34.488,-4.606 -68.209,-2.081 -100.569,11.395 -8.521,3.549 -16.879,7.755 -24.797,12.505 -18.526,11.115 -39.206,25.12 -47.152,46.175 -17.474,46.312 14.048,86.258 53.91,105.9 10.416,5.132 21.688,9.367 32.894,12.434 11.24,3.075 22.849,5.023 34.408,6.441 37.016,4.541 80.937,-0.856 113.781,-19.786 6.169,-3.555 12.035,-7.594 17.942,-11.56 1.99,-1.336 8.299,-7.086 10.711,-7.086 l 126.428,-0.015 c 0,0 -1.263,1.913 -1.285,1.945 -29.177,44.211 -71.484,77.957 -120.704,97.507 -14.407,5.723 -29.067,10.433 -44.199,13.828 -46.331,10.394 -94.88,11.684 -141.677,3.517 -12.91,-2.253 -25.696,-5.208 -38.246,-8.986"
             style="fill:#000000;fill-opacity:1;fill-rule:nonzero;stroke:none"
             id="path5865"
             inkscape:connector-curvature="0" />
        </g>
        <g
           id="g5867"
           transform="translate(73.2632,390.0049)">
          <path
             d="m 0,0 c 8.367,6.152 14.572,11.448 20.651,20.023 3.045,4.295 6.535,8.683 9.052,13.309 5.329,9.791 11.526,20.754 16.127,30.941 4.241,9.388 9.641,18.203 16.337,25.909 6.914,7.956 12.504,15.278 20.464,22.155 17.568,15.179 37.347,26.176 58.902,35.001 26.045,10.664 53.349,17.924 81.448,20.381 13.445,1.176 27.242,1.582 40.729,0.928 43.614,-2.116 89.515,-10.168 128.396,-30.862 10.327,-5.496 20.119,-11.928 29.465,-18.956 7.631,-5.738 15.586,-11.129 22.59,-17.647 2.669,-2.483 14.156,-13.946 14.156,-13.946 l -78.65,0.097 c 0,0 -10.036,8.505 -15.904,11.513 -5.54,2.84 -11.46,5.692 -17.13,8.241 -8.151,3.665 -16.467,6.104 -24.987,8.813 -17.644,5.61 -35.996,8.549 -54.472,9.419 -36.549,1.723 -75.385,-2.732 -108.333,-19.534 -8.745,-4.46 -17.809,-9.342 -25.707,-15.162 C 122.133,82.515 112.635,74.52 104.138,63.671 95.845,53.082 89.043,41.155 85.486,28.123 82.391,16.783 81.676,4.492 83.47,-7.114 c 1.814,-11.737 6.059,-22.593 12.851,-32.347 12.073,-17.337 26.157,-31.472 44.397,-42.457 22.485,-13.54 47.973,-22.538 73.723,-27.459 45.07,-8.613 95.685,-1.944 136.841,18.594 22.879,11.418 46.678,29.896 59.316,52.546 0.533,0.955 5.402,9.904 5.402,9.904 l 64.578,-0.051 c -0.531,-3.714 -1.719,-7.129 -2.989,-10.682 -1.213,-3.395 -3.236,-7.984 -5.038,-11.055 -2.025,-3.453 -3.376,-5.73 -5.536,-9.101 -4.348,-6.787 -9.778,-12.621 -14.991,-18.772 -10.805,-12.749 -23.662,-23.552 -37.607,-32.715 -28.046,-18.431 -59.966,-31.218 -92.89,-37.604 -32.393,-6.284 -63.626,-9.601 -96.429,-5.41 -9.143,1.169 -18.256,2.548 -27.373,3.893 -24.943,3.68 -48.981,10.529 -71.243,22.96 -8.281,4.624 -16.828,9.021 -24.635,14.392 -3.961,2.725 -8.099,5.275 -11.91,8.159 -5.742,4.345 -7.63,6.149 -11.135,9.076 -7.295,6.093 -12.905,12.275 -19.066,19.121 -5.565,6.184 -11.068,13.938 -15.664,20.867 -9.946,14.989 -16.968,31.307 -30.365,43.764 C 12.672,-10.528 1.332,0.979 0,0"
             style="fill:#ff4000;fill-opacity:1;fill-rule:nonzero;stroke:none"
             id="path5869"
             inkscape:connector-curvature="0" />
        </g>
      </g>
    </g>
  </g>
</svg>
